<svg xmlns="http://www.w3.org/2000/svg" viewBox="0 0 452.77 88.93"><defs><style>.cls-1{fill:#d8add1;}</style></defs><g id="Layer_2" data-name="Layer 2"><g id="big_spoon" data-name="big spoon"><path class="cls-1" d="M451.4,73a11.43,11.43,0,0,0-.62,4.85c.11.09.17.16,0,.07a3.3,3.3,0,0,1-1.06,2.33c-.19-.37-.64-.85-.53-1.07a4.32,4.32,0,0,1,1.15-1.4,8.28,8.28,0,0,0-2.14-.38c.64,0,1.27.08,1.91.11L451.4,73a25.54,25.54,0,0,0-12.71-7.67c-5.14-1.32-10.55-1.64-15.85-2.28-8.4-1-16.8-2-25.22-2.89-3.55-.37-7.12-.54-10.69-.61-3.27,0-6.55.4-9.8.2-5.86-.36-11.69-1.35-17.55-1.5-7.2-.19-14.43.36-21.64.29-9.85-.08-19.69-.43-29.54-.7-7.75-.21-15.49-.47-23.23-.73-7.45-.25-14.9-.57-22.36-.77-5.71-.15-11.43-.15-17.15-.22-.87.19-1.73.46-2.59.67.86-.21,1.72-.48,2.59-.67-4.14-.27-8.27-.61-12.4-.78a12.31,12.31,0,0,0-3.18.74c-.53-.35-1-.93-1.6-1-4.07-.64-8.15-1.2-12.22-1.76-.83-.12-1.68-.07-2.51-.17-3.38-.41-6.76-1.25-10.14-1.22-8.5.07-16.5-1.53-23.17-7-3.69-3-6.73-6.82-10.06-10.27L164,28.83a4.1,4.1,0,0,0,0-.61l-.7-.71C158.69,21.94,152.82,18,147,13.93l-2-1.24c-7-4.53-14.29-8.19-22.62-9.44-1.59-.24-3.17-.5-4.75-.79-3.39-.6-6.76-1.57-10.17-1.77C101.19.32,94.88.41,88.57.31H84C79.42,0,74.77-.61,70.4,1.6c-.92.3-2,1.06-2.73.83-4.36-1.35-8.11.94-12,1.95-3.19.82-6.18,2.46-9.26,3.73A3.17,3.17,0,0,1,45.48,10a3.17,3.17,0,0,0,.91-1.84c-6.26.44-11.17,3.6-15.58,7.77v0l-4.49,2.59a2.17,2.17,0,0,0-.1.62l-1.88,1.33h0l.48,2.74-.48-2.74L19.76,25,18.43,26.2q-2.91,2.94-5.8,5.89h0L9.39,35.35c-6.58,6.14-9,14-9.37,22.7-.1,2.15.19,4.32.29,6.48l1.95,4.53c.7.46,1.83.78,2,1.4,1.91,5.7,7.23,6.69,11.82,8.29,5.89,2,11.81,4,18.33,3.94,5.31-.06,10.61,1.61,15.94,1.84,7.07.3,14.16-.08,21.24-.1,1,0,2.09.62,3.08.49,5-.65,10-1.62,15-2.18,6.52-.74,13.08-1.1,19.59-1.83,4.75-.53,9.44-1.6,14.19-2,6.87-.63,13.78-.9,20.67-1.35,3.5-.23,7-.68,10.5-.77,5.29-.14,10.61.23,15.88-.12,8.4-.54,16.76-1.86,25.17-2.17,7.52-.28,15.07.34,22.61.62,1.77.07,3.52.44,5.28.56,3.38.25,6.78.28,10.14.67,3.8.44,7.54,1.48,11.34,1.74,9.24.63,18.51,1,27.76,1.42,3.93.19,7.85.4,11.78.6a10.57,10.57,0,0,1,2.21-.23c10.17,1.21,20.32,2.51,30.49,3.68,4.23.49,8.49.74,12.74,1.1,8.09.67,16.18,1.42,24.28,2,3.38.24,6.81-.14,10.17.18,4.94.48,9.83,1.68,14.77,2,6.11.35,12.25.09,18.38.07,3.72,0,7.44,0,11.15-.15,3.38-.13,6.74-.47,10.12-.72,5.44.29,10.88.77,16.33.8,2.14,0,4.3-1,6.44-1.5h0c3.13-2,6.55-3.59,9.29-6C453.39,79.12,453.21,75.08,451.4,73ZM79.49,1.61h0c-.27.14-.53.3-.79.46A17.55,17.55,0,0,1,77.12,3a17.55,17.55,0,0,0,1.58-.88c.26-.16.52-.32.79-.46ZM33.82,16.52h0Zm-4.31,5.85h0a2.88,2.88,0,0,1,.24.46A2.88,2.88,0,0,0,29.51,22.37ZM14.39,34.71c.3,0,.59,0,.89,0C15,34.72,14.69,34.71,14.39,34.71ZM34,16.52h0l.15.51a6.76,6.76,0,0,0,.26.65,6.76,6.76,0,0,1-.26-.65Zm.68,1.65.21.27ZM142.85,72.22a.39.39,0,0,0-.33-.16A.39.39,0,0,1,142.85,72.22Zm-.35-.16a5.63,5.63,0,0,0-1.35.27h0A5.63,5.63,0,0,1,142.5,72.06Zm-1.36.26h0l-2.22-.23Zm52.91-3,.21-.18c.15.22.33.44.49.65-.16-.21-.34-.43-.49-.65l-.21.18a3.23,3.23,0,0,0-.42.35A3.23,3.23,0,0,1,194.05,69.33ZM442,81.17h0c0,.16,0,.31,0,.47Zm-.78,5.69h0l.7-.42c-.37.23-.75.45-.69.43l.43-.26v.65h0C441.67,87,441.67,86.81,441.24,86.86Zm.66-.39c2.77-1.92.58-5,2.28-7.56C442.4,81.6,444.86,84.81,441.9,86.47Z"/></g></g></svg>