<svg xmlns="http://www.w3.org/2000/svg" viewBox="0 0 872.46 628.54">
  <defs>
    <style>.cls-1{fill:#ed97a8;}.cls-2{fill:#deb0d0;}.cls-3{fill:#fee8ac;}</style>
  </defs>
  <g id="Layer_2" data-name="Layer 2">
    <g id="Layer_1-2" data-name="Layer 1">
      <path class="cls-1" d="M871.13,246.69c-2.26-2.69-3.11-1.48-3.41,1.24a143.8,143.8,0,0,1-16.87,15.68c-11.25,9.57-24.25,16.28-37.31,22.89L793,295c-3.42,3.22-8.4,1.23-12.06,3.62-.09.38-.06,1-.29,1.12-8.61,4.36-17.37,8.1-27.4,6.2-1.72,1.55-4,1.81-6.07,2.33-5.85-2.59-11,3.9-16.82,1.35a14.49,14.49,0,0,1-8.91,2.7c-4.08,0-7.93.3-11.64,2-6.29,2-12.79,2.33-19.32,2.38l-1.19,0c-4.39,1-8.53,3.44-13.29,2.38-7,2.44-14.56,1.12-21.48,2.72-3.67.86-7.94-1.32-11.1,2-.35.37-1.37.66-1.67.44-4.71-3.57-10.55.37-15.2-2.23-2.22-1.24-4.11.78-6-.39-6.2,4.18-12.89.12-19.28,1.13l-19.3,0c-8.52.49-17,.36-25.6,1.35a125.53,125.53,0,0,1-21.31.8,30.16,30.16,0,0,0-13.87,2.84c-.73.33-1.71,1-2.21.76-7.48-3.7-15.29.18-22.75-1-11.57-1.88-23.29-1.63-34.84-3.29a48,48,0,0,0-4.81-.22c-6.1-1.95-12.2-.81-18.3,0-9.25,1.24-18.25-3.24-27.54-1.21-16.84-.32-33.54-3.59-50.46-2.47-2.06.13-4.43.82-6.19-1.17l-16.91-1.18c-12.12,1.28-23.77-1.65-35.5-3.91-7.45-1.44-15-1.41-22.57-2.44s-14.67-3.49-22.31-4.06c-4-.29-7.94-.14-11.85-.18-8-.09-15.39-1.6-21.95-6.15-2.4-1.66-6.31,1.9-7.64-2.51-16.42-2.75-32.11-8.31-48.08-12.76-2.85-.8-6.77.95-8.53-3-16.61-5-33.25-9.8-48.84-17.82-8.46-4.35-17-8.59-25.33-13.17a5.92,5.92,0,0,1-3-2.74c-6.39-4.48-13.91-7.32-19.33-13.22-8.11-5.31-16.09-10.84-24.38-15.84-5.92-3.57-9.85-9.27-15.36-13.2-4-2.65-6.49-6.89-10.43-10.5.3,2.36.51,4,.72,5.71,2.47,5.21,4,10.84,7.27,15.68v0c2.58,9.27,7,17.8,10.83,26.56h0a26.89,26.89,0,0,0,4.79,13.3C37.32,266,42,273,45.32,280.61c1,1.5,2,2.95,2.89,4.51q10,18.22,19.95,36.48a117.41,117.41,0,0,0,19.36,30.25l10.71,16.81c5,9,8.58,18.87,15.84,26.52a22.73,22.73,0,0,0,5.84,9.69c1.49,3,2.61,6.3,4.56,9a392.18,392.18,0,0,0,33,40.4c3.26,5.46,7.87,9.8,12.05,14.5a30.77,30.77,0,0,0,10.7,12.18h0c0,3.48,2.24,5.46,4.87,7.17.55,3.41,3.31,4.1,6,4.9,4.55,7.44,11.49,12.83,16.9,19.56,3.86,4.8,7.62,10,13.24,13.1L243,543.58c4.67,5.22,8.8,11.09,14.18,15.41,3.87,3.12,6.95,7.8,12.42,8.76h0c2.14,2.37,3.84,5.25,7.22,6.15a110.74,110.74,0,0,0,16.89,11.89h0c7.81,5.06,16.45,8.2,25.28,10.9,35.64,11.93,72.59,16.91,109.77,20.62a14.68,14.68,0,0,0,3.32,1.14c18.91,1.54,37.15,7.34,56.37,7.65,14.26.22,28.46,3.73,42.89,1.92,14.33.88,28.37-1.95,42.4-3.92,7.19-1,14.6-1,21.61-3.29l2.3-.09c10.52-1.93,20.06-6.23,29-12h0c7.21-3.38,13.5-7.91,18.19-14.46a49.13,49.13,0,0,0,14.31-13.35c5-1.65,7.66-6,10.93-9.56l0,0h0a2.43,2.43,0,0,0,2.44-2.37,59.43,59.43,0,0,0,9.6-9.75c0-.42,0-.83-.07-1.25h0c0,.42,0,.83.07,1.25a18.05,18.05,0,0,0,6-6.08c3.53-4.48,7.88-8.29,10.78-13.28,4.85-6,11.36-10.4,15.67-16.87,4.46-5.18,10.07-9.36,13.49-15.45,1.21-1.32,2.51-2.57,3.6-4,7.31-9.49,14.38-19.16,21.88-28.5,15-18.68,29.4-37.78,41.93-58.23a6.57,6.57,0,0,0,2.46-4.79c8.29-12.95,18.2-24.84,25.35-38.54a4.19,4.19,0,0,0,.13-1.34,4.19,4.19,0,0,1-.13,1.34,12.2,12.2,0,0,0,2.46-7.24h0c2.32-1.36,3.13-3.61,3.56-6.08h0c1.56-1.81,3.29-3.51,3.53-6.08,1.67-3.57,4.47-6.61,4.94-10.73,7.52-9.69,10-21.64,14.52-32.65,2.25-2.37,2.64-5.52,3.57-8.45l-1.31,0h0l1.31,0c3.77-4.86,4.57-10.9,6.25-16.52C865.84,272.93,872.51,260.74,871.13,246.69ZM87.59,350.49c-.7-1.26-1.42-2.55-2.11-3.83.69,1.28,1.41,2.57,2.11,3.83,1.38,2.88,3.89,4.56,6.5,6.13C91.48,355.05,89,353.37,87.59,350.49Zm15.91,22.13a4.51,4.51,0,0,0-1.45-.41,4.84,4.84,0,0,0,1.43-4.06,4.84,4.84,0,0,1-1.43,4.06A4.51,4.51,0,0,1,103.5,372.62ZM332.35,597.89a5.29,5.29,0,0,0,1.2-1.27A5.29,5.29,0,0,1,332.35,597.89ZM818.29,368.61a2,2,0,0,0,1,1A2,2,0,0,1,818.29,368.61Zm10.77-8.52h0l.07.06ZM841.16,328a10,10,0,0,1,.55-2.62A10,10,0,0,0,841.16,328Zm8.45-17.3a3.89,3.89,0,0,0-.89,2.51,3.89,3.89,0,0,1,.89-2.51c-.33-3,.1-5.55,2.18-7.16C849.71,305.12,849.28,307.68,849.61,310.67Z"/>
    </g>
    <g id="Layer_2-2" data-name="Layer 2">
      <path class="cls-2" d="M867.75,204.51c-1.42-5.06-1.25-10.8-6.07-14.44h0a20.29,20.29,0,0,1-3.82-4.34,20.29,20.29,0,0,0,3.82,4.34c-1.08-4.49-2-9.06-6-12.07-5.46-10-14-17.32-21.7-25.35a37.39,37.39,0,0,1-10.89-10.81c-1.17-2.53-3.52-3.19-6-3.71h0c-.16-2.42-1.68-3.78-3.7-4.75-13.38-8-23.92-19.52-36.15-29a7.77,7.77,0,0,1-2.66-.73,6.37,6.37,0,0,1-2.17-1.7c-1.7-.63-3.43-1.16-5.14-1.73,1.71.57,3.44,1.1,5.14,1.73a6.37,6.37,0,0,0,2.17,1.7,7.77,7.77,0,0,0,2.66.73c-.82-2.23-3-2.64-4.78-3.66L741.12,83.93C733.18,80.08,725.75,75.1,717,73c-6.17-4.6-13.45-6.85-20.47-9.66-.73-1.4-1.21-3.16-2.84-3.68-7.48-2.36-13.55-7.86-21.32-9.54a4.76,4.76,0,0,0-1.13-.1c-3.23-1.83-6.32-4-9.74-5.39-6.09-2.45-11.15-7.31-18.07-7.8h0c-6-3.6-12.72-5.22-19.29-7.28-11-1.89-20.85-7.6-31.63-10.19-9.48-2.28-19.31-3.18-28.66-5.83C545.68,8.39,527.2,6.45,508.4,6.65c-9.74-.46-19.15-3.58-28.94-3.56L477,3h-2.4C466.21,1.71,457.71-.93,449.25.34,432,2.92,414.7,2.89,397.43,4.07c-10.78.73-21.66-.23-32.44.42-7.27.44-14.67.11-21.81,2.1-13.72,0-27.36,1.62-40.9,3.35-12.64,1.61-25.26,3.63-37.87,5.55-24.58,3.75-49,8.36-73.19,14.18h0l-4.55.17c-9.42,3.78-19.51,5.2-29.15,8.25-7.94,3.12-16.61,4.16-24.19,8.36l-15.61,6.08h0c-8.87,4-17.93,7.69-26.57,12.16S73.34,72.6,65.83,79v0C54.54,86,43.17,93,33.29,102a9.18,9.18,0,0,0-6,6.07l1.21,0h0l-1.21,0c-6,8-13.19,15.27-17.4,24.41-3.17,6.88-8.51,13.1-8,21.41C-.72,161.14-.24,168.8,1,176c1.64,9.5,7.88,17.36,11.73,26.12-.21-1.67-.42-3.35-.72-5.71,3.94,3.61,6.43,7.85,10.43,10.5,5.51,3.93,9.44,9.63,15.36,13.2,8.29,5,16.27,10.53,24.38,15.84a45.39,45.39,0,0,1,2-6.6,45.39,45.39,0,0,0-2,6.6c5.42,5.9,12.94,8.74,19.33,13.22a5.92,5.92,0,0,0,3,2.74c8.35,4.58,16.87,8.82,25.33,13.17,15.59,8,32.23,12.79,48.84,17.82,1.76,3.95,5.68,2.2,8.53,3,16,4.45,31.66,10,48.08,12.76,1.33,4.41,5.24.85,7.64,2.51,6.56,4.55,14,6.06,21.95,6.15,3.91,0,7.89-.11,11.85.18,7.64.57,14.81,3,22.31,4.06s15.12,1,22.57,2.44c11.73,2.26,23.38,5.19,35.5,3.91a7.23,7.23,0,0,1,.45-.76,7.23,7.23,0,0,0-.45.76l16.91,1.18c1.76,2,4.13,1.3,6.19,1.17,16.92-1.12,33.62,2.15,50.46,2.47,9.29-2,18.29,2.45,27.54,1.21,6.1-.82,12.2-2,18.3,0a48,48,0,0,1,4.81.22c11.55,1.66,23.27,1.41,34.84,3.29,7.46,1.21,15.27-2.67,22.75,1,.5.25,1.48-.43,2.21-.76A30.16,30.16,0,0,1,535,324.9a125.53,125.53,0,0,0,21.31-.8c8.57-1,17.08-.86,25.6-1.35l19.3,0c6.39-1,13.08,3,19.28-1.13,1.9,1.17,3.79-.85,6,.39,4.65,2.6,10.49-1.34,15.2,2.23.3.22,1.32-.07,1.67-.44,3.16-3.28,7.43-1.1,11.1-2,6.92-1.6,14.47-.28,21.48-2.72,4.76,1.06,8.9-1.37,13.29-2.38l1.19,0a16.68,16.68,0,0,1,5.68-2.94,16.68,16.68,0,0,0-5.68,2.94c6.53-.05,13-.33,19.32-2.38,3.71-1.66,7.56-2,11.64-2a14.49,14.49,0,0,0,8.91-2.7c5.85,2.55,11-3.94,16.82-1.35,2.12-.52,4.35-.78,6.07-2.34,10,1.91,18.79-1.83,27.4-6.19.23-.11.2-.74.29-1.12,3.66-2.39,8.64-.4,12.06-3.62l20.57-8.51c13.06-6.61,26.06-13.32,37.31-22.89a143.8,143.8,0,0,0,16.87-15.68c.3-2.72,1.15-3.93,3.41-1.24C873.48,232.35,872.93,218.25,867.75,204.51ZM193.68,32a7,7,0,0,0-.62.69c-.21.26-.41.52-.62.76.21-.24.41-.5.62-.76a7,7,0,0,1,.62-.69Zm-2.36,0h0a2.61,2.61,0,0,1-1.2.3A2.61,2.61,0,0,0,191.32,32Zm-10.69,3.65c-2.09.4-4.18.85-6.26,1.29C176.45,36.5,178.54,36.05,180.63,35.65Zm-23.1,3.61a74.1,74.1,0,0,0,14.76-1.88,74.1,74.1,0,0,1-14.76,1.88c-2.73,3-6.32,3.84-9.93,4.62C151.21,43.1,154.8,42.21,157.53,39.26ZM337.86,316.84a2,2,0,0,1,.4-.37A2,2,0,0,0,337.86,316.84Zm17.4,1.09h0c.23-.93.45-1.87.68-2.8C355.71,316.06,355.49,317,355.26,317.93Zm16.86-.05a11.42,11.42,0,0,1-1.17,0,11.42,11.42,0,0,0,1.17,0c1.27-1.15,2.54-2.26,3.8-2.05C374.66,315.62,373.39,316.73,372.12,317.88ZM699,313.52a8.8,8.8,0,0,0-1.45,0,8.8,8.8,0,0,1,1.45,0,10.81,10.81,0,0,1,1.52.27A10.81,10.81,0,0,0,699,313.52Zm120.65-40.89c-.06.25-.12.49-.2.73C819.5,273.12,819.56,272.88,819.62,272.63Zm-1.13,2.5a6.85,6.85,0,0,1-.67.79A6.85,6.85,0,0,0,818.49,275.13Zm1.23-3.08c0-.22,0-.44.06-.67C819.77,271.61,819.75,271.83,819.72,272.05Zm.08-1.39c0-.46,0-.93-.09-1.4C819.76,269.73,819.79,270.2,819.8,270.66Zm-.24-2.79c0,.32.08.64.11,1C819.64,268.51,819.6,268.19,819.56,267.87Z"/>
    </g>
    <g id="Layer_3" data-name="Layer 3">
      <path class="cls-3" d="M819.48,266.16a27,27,0,0,1,.32,3.64c0-1.07-.18-2.16-.32-3.27a18.35,18.35,0,0,1-8-10.26c-2.41-7.71-8.33-11.57-13.61-16.37-1.93-.38-5.25,1.15-5.1-2.1.12,2.76,3.24,1.37,5.1,1.73-.73-2.42-.78-5.78-4.88-3.54,0,.11,0,.2-.06.31l-3.53-3.59c-2.68-.4-5-1.21-4.88-4.41.11,2.9,2.31,3.66,4.88,4-1.28-1.94-1-5.51-4.87-4.77,0,.13,0,.24,0,.36-2.14-.54-4-1.27-4.35-4-.17-1.23-.39-3.21-2.21-3.13-3.78.17-5.33-2.8-7.82-4.65-2.14-1.58-3.38-5.26-4.73-5.23-6.09.16-7.18-8.19-13.32-7.23-6.26,3.15-9.6-4.06-15-4.36-1.34-.08-3.13-.92-4.4-.34-3.33,1.53,2.59.88-.67,2.83-1.88,0-5.13-1.12-8.31-.2-.58.16-.94,0-1.42-.57-4.81-6.15-4.84-6.12-9.36-.45-1.42-1.93-3.27-3.72-1.92-6.39s-1-2.9-2.37-3.76c-3.63.2-7.34,0-10.84.75-3.05.67-.53-2.39-2.5-2.76-2.28-.43-2.92-4.19-6-4.06-3.81-3.78-10-2.86-13.58-6-4.25-3.65-8.29-3.28-12.88-2.44-2.51-.31-4.78-1.33-7.58-.77-3.33.66-4.73-3.48-7.95-4.66s-6.89-3.45-9.82-3.14c-4.59.49-1.46-2.54-2.44-3.43l-2.35-.12c-5.3,2.18-8.53-3.6-13.29-3.48-2.54,1-3.67-.76-4.82-2.46h0c-7.76,2.57-12.49,1.56-16.87-3.61a9.43,9.43,0,0,0-1.19,0c-.81,1.76,3.57,9.27-4,3.58-1.36-1-2,.32-2.79,1.23a12.4,12.4,0,0,1-6.36,4.52c-1.29-1.77,1-3.11.62-4.68-3.64,1.67-5.09-.14-5.56-3.51h0c-2,.44-2.37,4.69-6.08,1.79-2.45-1.92-2.46,3.47-4.95,3.71-2.14-1.36.49-3.32-.83-5.16-5,4.27-9.77.27-14.69-.29-2.8,2.4-7.09,1.5-9.66,4.32-1.12,1.23-1,.07-1.3-.49-1.93-3.2-5.34-4.44-8.32-6.23h0c.91,3.55-.38,4.58-3.54,2.87-2.6-1.41-4.7-3.78-7.76-4.35s-6.1-2.67-9.09.87c-1.32,1.56-2.28-.29-2.54-1.8a15,15,0,0,0-9.56-1.61c-6.7.95-13.74,1.89-19.5-3.31-1.57-1.43-3.4-1.29-5.09-1-7.94,1.43-15.66-.79-23.47-1.11-6.93-.28-13.55-4.81-20.7-1.48-3.83-.93-7.35-2.49-11.54.08-2.25,1.39-6.21,1.5-7.8-2.49l-3.68-2.33c-4.32-1.34-8.16,2.32-12.48,1.18-9.22-2.43-18.51-1.07-27.66.14-3.07.41-6.1,1.17-9.26,1-2.39,4.59-4.79,5.18-7.23,0h-2.39c-.61,5.77-6.08,4.87-9.35,5.81-2.84.82-6.93,1.64-10-1-4.51-2.37-8.91.39-13.39.32-8.36-.13-14.49,8.44-23.49,6.29-.27-.06-.64.5-1,.59-6.42,1.67-12.45,7.75-19.58,1.73-.29-.25-1.21.38-1.69.2-7.46-2.78-16.18,4.9-23.05-2.78a1.14,1.14,0,0,0-1.13,0c-2.55,2.47-5.4-.07-7.84.49-5.34,1.24-11.1-2.11-16.1,1.66-2.93,3.89-7.35,1.09-10.86,2.4-2.4.4-4.94,2.15-7-.72-1.06,1-4.34-1.65-4.51,1.05-.09-3.28,3.4-.34,4.51-1.41,2.07,2.87,4.61,1.11,7,.71v-3.71c-6.18.33-12.36.58-18.54,1s-11.21,5.09-17.65,3.87l-22.87,7.31c7.57,3,13.62-2.65,20.48-3.63,1.44.69,3.09,4.76,4.18-.24.19-.88.75-1.89,1.41-1.5,4.2,2.52,7.14-1.62,10.87-2.11,0,.12,0,.25,0,.37-3.71.52-6.65,4.62-10.83,2.11-.66-.39-1.22.61-1.41,1.5-1.09,5-2.74.92-4.18.23-6.86,1-12.91,6.6-20.48,3.63-8.9,2.78-15.14,9.8-22.91,14.39a.39.39,0,0,1,0-.33c-3,.11-4.5,3.11-7.27,3.62,2.31-.55,2.61.79,2.58,2.36,0-1.4-.46-2.5-2.58-2-.34,0-.69,0-1,0,0-.12-.07-.23-.12-.36-2.45-1-2.62,1.36-3.67,2.44,1.17-.35,4,1.79,4.15-.05.16,2.46-2.92.05-4.15.41-2.62,3-6.25,4.28-9.62,6-.73,1.57.62,4.51-3.55,3.64-.35-.08-.53-.06-.62,0-.14-.34-.06-.52.62-.38,4.17.88,2.82-2.07,3.55-3.64a16.46,16.46,0,0,0-9.68,4.81c1.55,2.33,4.13,1.42,6.19,2a.91.91,0,0,0,.24-.49,1,1,0,0,1-.24.85c-2.06-.61-4.64.3-6.19-2-2,.52-4.22.83-4.72,3.36l-.08-.05a2.53,2.53,0,0,0-2.39,1.2c1.27.39,1.62,3.25,3.53,1.61a2,2,0,0,0,.7-1c.09.35-.07.78-.7,1.32-1.91,1.63-2.26-1.23-3.53-1.61-6.18.84-8.8,6.62-13.14,9.94a42.25,42.25,0,0,0-15.83,25.15c5.42,5.9,12.94,8.74,19.33,13.21l.16,0a6.36,6.36,0,0,0,2.87,2.42c8.35,4.58,16.87,8.82,25.33,13.18,15.5,8,32,12.73,48.55,17.73.1.15.2.29.29.44l.17,0c1.83,3.52,5.6,1.91,8.36,2.68,15.7,4.38,31.13,9.83,47.26,12.62.27.17.55.32.82.51,1.33,4.41,5.24.85,7.64,2.51,6.56,4.55,14,6.06,21.95,6.15,3.91,0,7.89-.11,11.85.18,7.64.57,14.81,3,22.31,4.06s15.12,1,22.57,2.44c11.73,2.26,23.38,5.19,35.5,3.91l.19-.36L354.06,318c1.76,2,4.13,1.3,6.19,1.16,16.92-1.11,33.62,2.15,50.46,2.48,9.29-2,18.29,2.45,27.54,1.2,6.09-.82,12.17-1.95,18.26,0,0,.13,0,.25,0,.37a48,48,0,0,1,4.81.22c11.55,1.66,23.27,1.41,34.84,3.29,7.46,1.21,15.27-2.67,22.75,1,.5.25,1.48-.44,2.21-.76A30.16,30.16,0,0,1,535,324.14a125.53,125.53,0,0,0,21.31-.8c8.57-1,17.08-.86,25.6-1.35l.81-.37,18.49,0c6.32-1,12.93,3,19.08-1a2.54,2.54,0,0,0,.2.24c1.9,1.18,3.79-.84,6,.4,4.65,2.6,10.49-1.34,15.2,2.23.3.22,1.32-.08,1.67-.44,3.16-3.28,7.43-1.11,11.1-2,6.92-1.61,14.47-.28,21.48-2.72l.38-.3c4.44.82,8.36-1.3,12.47-2.34.15.09.29.16.44.26l1.19,0,.52-.37c6.36-.07,12.68-.38,18.8-2.37,3.71-1.67,7.56-2,11.64-2a14.71,14.71,0,0,0,8.71-2.56l.2.22c5.85,2.55,11-3.94,16.82-1.35-.09-.72-1.12-1.74-.93-2.38.14.62.86,1.42.93,2,2.12-.53,4.35-.79,6.07-2.34,10,1.9,18.79-1.84,27.4-6.2.23-.11.2-.73.29-1.12,3.55-2.31,8.32-.53,11.73-3.34l.33.09,20.57-8.51c-.09-3.33,4.89-2.61,4.76-6a3.23,3.23,0,0,1-1.32-2.65,3.36,3.36,0,0,0,1.32,2.29,16.88,16.88,0,0,1,.67-2.16c5.15,1,5.23-3.3,6.54-6.28ZM129.91,181.47c-2.12.59-2.62,2.89-4.92,4l0-.37c2.27-1.14,2.77-3.43,4.89-4,1.08-.3,1.57-.57,1.71-.84C131.82,180.64,131.49,181,129.91,181.47ZM197.08,160c-4.36-3.16-5.57.84-7.38,3.41a4.53,4.53,0,0,1-.8-2.82,4.57,4.57,0,0,0,.8,2.46c1.81-2.58,3-6.58,7.38-3.41.66.48,3.15-.42,3.33-2C200.62,159.46,197.79,160.54,197.08,160ZM450.43,220c-.29,1.9-1.88,2.58-3.68,2.72-.48,0-1.57-1-1.49-1.39.4-1.9,2-2.8,3.69-3.27C450.38,217.61,450.47,218.68,450.43,220Zm26.27-72.44c-.59-.09-1.64.47-1.51-.78,0-.29.86-.68,1.32-.69s.94.4,1.33.59C477.82,147.64,477.22,147.59,476.7,147.51Zm108.55,95.57c-.71-4.47-2.27-6.64-6-7.28,2.93.13,4.4-5,5.51-3A10.4,10.4,0,0,1,585.25,243.08Zm72,76.06c-.23.15-1.27-.34-1.46-.76a2.48,2.48,0,0,1-.27-1.34,2.69,2.69,0,0,0,.27,1c.19.41,1.23.91,1.46.75a2.12,2.12,0,0,0,1-1.79A2.22,2.22,0,0,1,657.23,319.14Zm.75-4.68a3.74,3.74,0,0,1,0-.75,4,4,0,0,0,.3-.42A2.36,2.36,0,0,0,658,314.46Zm56.81-12.16a3.65,3.65,0,0,1,.78-2.28,16.08,16.08,0,0,1,1.37-1.06A5.05,5.05,0,0,0,714.79,302.3Zm51.92-9c-.33-.1-.66-.23-1-.36,4.45.31,4.06-2.9,5.67-6l.25-.09C769.87,289.82,770.28,293.06,766.71,293.29Zm18.2-4.82a2.19,2.19,0,0,1-.24-1.11,3.56,3.56,0,0,0,.24.75,5.41,5.41,0,0,1,.55,2.5A6.06,6.06,0,0,0,784.91,288.47Zm-2.79-12.6c-1.42-1-4.46,0-4.55-3.24a.51.51,0,0,1,0-.13c.23,3,3.14,2.07,4.53,3,2-.5,5-.08,5.19-2.19C787.5,275.85,784.27,275.35,782.12,275.87Zm8.79,13.71a4.46,4.46,0,0,0-.83,2,3.9,3.9,0,0,1,.83-2.4,2.32,2.32,0,0,0,.41-.95A1.83,1.83,0,0,1,790.91,289.58Z"/>
    </g>
  </g>
</svg>