<svg xmlns="http://www.w3.org/2000/svg" viewBox="0 0 667.47 567.71">
  <defs>
    <style>.cls-1{fill:#fff;}.cls-2{fill:#a0d6c2;}</style>
  </defs>
  <g id="Layer_2" data-name="Layer 2">
    <g id="cup_fill" data-name="cup fill">
      <path class="cls-1" d="M173.82,222.05c5.6,19.29,6.9,39.52,8.18,59.56q2.13,33.56,4.27,67.12c3.23,50.85,8.09,105.8,41.88,143.94,12.24,13.82,27.57,24.48,41.7,36.36,6.38,5.36,12.79,7.67,20.62,10.54,5.39,2,11.13,3.91,16.84,4.32,33.87,2.4,68.33,4.4,101.24-3.95s64.4-25.71,84.75-52.89c18.32-24.47,26.51-55.22,29.27-85.66s.49-61.09,0-91.65a801.38,801.38,0,0,1,6.73-118.42,14.91,14.91,0,0,0-4.57-12.9c-14.06-13-28.91-17.32-49.22-20.85-12.52-2.18-32-12-48-12-27.53,0-59.6,2.65-87,0-19-1.85-49.87,4.55-69,5-36.32.84-62.4,16-99.81,18.84A15.69,15.69,0,0,0,159.94,194,93.12,93.12,0,0,1,173.82,222.05Z"/>
    </g>
    <g id="cup">
      <path class="cls-2" d="M666.4,138.53c.84-3.78,1.93-7.55,0-11.32l-.88,0c0-.27,0-.53,0-.8,0,.27,0,.53,0,.8l.88,0c.17-.2.52-.43.49-.57-.45-1.88-.38-4.43-1.59-5.46-1.79-1.52-1.5-3.58-2.59-5.14A6.77,6.77,0,0,0,661.5,115l-4.23-4c-.23-.81-.47-1.62-.7-2.43a3.84,3.84,0,0,0-.76-.07,8,8,0,0,0-1-2.37c-1.47-1.66-3.44-3-4.59-4.8a5,5,0,0,0-4.94-2.6c-1-1.16-2.09-2.28-3-3.49-1.62-2-5.08-2.26-5.39-5.64,0-.46-1.15-1-1.84-1.22a11.71,11.71,0,0,1-5.28-3.9c-1.59-2.07-4.19-3.36-6.35-5-.14-2.46-2-1.49-3.31-1.66l.28.68-.28-.68a32.08,32.08,0,0,1-3.43-3.25,20.11,20.11,0,0,0-10.16-7,1.37,1.37,0,0,1-.63-.49c-2.21-3-5.25-4-8.89-4-1,0-2.18-.94-3.1-1.66-2.29-1.83-4.69-3.24-7.75-3-1.28-.77-2.88-1.28-3.76-2.37A7.85,7.85,0,0,0,574.85,53a4.35,4.35,0,0,1-4.18-1.58c-1.27-1.43-2.56-1.06-3.94-.34-1.51-.9-3-2.38-4.56-2.57-2-.25-3.54-3.64-6-1.1-2.27-1.39-5.38,1.2-7.38-1.55-.14-.19-.47-.25-.71-.37-1.47-4.35-5.51-4-8.9-4.95A7.9,7.9,0,0,1,536.34,39c-1.26-1-1.55-.06-2,.74-.52-.12-1-.22-1.55-.36-2-.54-4.87-2.2-5.88-1.44-3.7,2.82-5.69-1.26-8.41-1.28-2,0-3.66-1.33-5.25-1.11s-4.31-1.58-5,1.56c-1.14-1.09-2.19-2.84-3-2.72-3.25.47-5.92-.85-8.38-2.35-5.95-3.65-13-4-19.22-6.82-1.81,2.75-2.14-.52-3.19-.83l0-.05-.1,0,0,0c-2.54,0-5.45.69-7.52-.31s-4-2.12-6.38-2.33-4.7-.43-6.85-1.78c-.49-.31-2.58-2.48-3,.57a2.08,2.08,0,0,1-1.33.07c-1.39-.56-2.73-1.25-4.09-1.89-.39-.33-.82-1-1.18-.94a24.53,24.53,0,0,1-11.41-2c-3.46,2.38-6.62-.91-10-.57-.62.06-1.42-1.09-1.94-1-4.41,1.13-8.46-1-12.69-1.24-2.84.13-5.65.08-8.13-1.6h0a5,5,0,0,0-4.67-1c-1.5.44-3.48.79-4.75.16-3.58-1.76-7.36-.9-10.84-.71-2.11.11-2.37-.65-3.19-1.67-.29-.25-.59-.73-.86-.71a66.45,66.45,0,0,1-18-1.38,5.89,5.89,0,0,0-2.24.49c-.83.07-1.9.52-2.44.16-2-1.37-5.18.72-6.7-2.21-.09-.18-1.21.06-1.79.27-1.5.53-3,1.16-4.44,1.75,0-1.43-.76-1.95-2.07-1.36a14.55,14.55,0,0,0-2,1.31c.14-1.76-1.36-1.49-2.33-1.76-.19,0-.61.69-.92,1.07l1.6,1.57-1.6-1.57-5.76,0c-.61,0-1.23,0-1.83,0a25.52,25.52,0,0,1-4.49-.55c-2.16-.63-4.73,1.18-6.55-1.15C312,1.31,312,1.31,310.06,3.31c-.37.16-.8.54-1.09.45-5.54-1.66-11.15-.26-16.71-.47-1.65-2.09-3.85,0-5.68-.74-.22-.39-.56-1.14-.65-1.11-1.16.37-1.55,3.64-3.54.88-1.92,1-3.12.14-4-1.53-.82,1.43-2.74-2.88-3.25.62,0,.2-1.2.35-1.84.33-3.23-.07-6.51-.49-9.39,1.57a4.3,4.3,0,0,1-.8,0c-.93-.41-2-1.33-2.77-1.16C256.9,2.92,253.53,4,250.14,5c-2.68.3-5.4,1-8,.75a7.58,7.58,0,0,0-4.88.94l-2.46,0-1.66.76h0c-.26,0-.51,0-.76.09h-.82l-.81,0-1.6,0-3.25.76L222.62,9H221l-3.26.79c-3.29.61-6.58,1.18-9.86,1.82-2.38.47-4.74,1-7.1,1.57l-8.13,2.3-.82.75-.81.85v0c-1.09-1.29-2.17-1.51-3.25,0-1.67.65-3.31,1.77-5,1.86-3.5.18-6.27,2.28-9.5,3.07a23.38,23.38,0,0,0-10.58,3.18c-1.25.32-2.55.53-3.76,1-2.79,1-5.54,2.13-8.31,3.2l-.82.73h0L140,34.86l-14.5,5.76-7.34,3.17h0l-2.38,1.66c-2.16,1.07-4.31,2.14-6.48,3.19-2.43,1.17-4.92,2.2-7.28,3.49-3,1.67-6,3.54-9,5.32l-6.41,3.37v0a14,14,0,0,0-7.33,4.82l-.81.83h0C74,67,71.78,71.28,68,73L59.1,80.26,56.69,82h0c-2.38,2.55-4.78,5.09-7.12,7.67-.22.24-.15.75-.22,1.14h0l-1.61,1.62a6,6,0,0,0-.05.73c-.64.19-1.54.17-1.87.6-1.87,2.46-3.6,5-5.39,7.57L38,104.45q-2,4.06-4,8.15c-2.53,2.45-2.58,6-3.9,9a12.05,12.05,0,0,0-3.38,8.81c-2.83-.67-1.48,1.43-1.67,2.51l.11.78c-3,3.2-5,6.8-4.91,11.33-2.83,4.73-3.17,10.11-4.06,15.34-2.26,2-1.1,4.77-1.71,7.13-1.17,4.52-2.43,9-2.69,13.72-.23,4.15-1.32,8.26-2,12.39-.47,3.61-1,7.22-1.4,10.84-.63,5.28-1.23,10.57-1.84,15.85l1.6.81c.52-.42.8,1.78,1.35.78-.55,1-.83-1.18-1.42-.61l.07-.17-.19.07a6.51,6.51,0,0,0-1.41-.88L4.79,239.66h0v.87l0,0c-.51,3.88-1.05,7.75-1.49,11.64,0,.4.44.87.68,1.31a12.08,12.08,0,0,0-.78,8.93,6.33,6.33,0,0,0-.67,1.42,66.94,66.94,0,0,0-1.59,8.69c-.19,2.79.94,5.63-.12,8.45a4.92,4.92,0,0,0-.09.76l0,4.09,0,0,0,0h0l0,0,0,0L0,289.86c.27,1.35.53,2.69.8,4,0,.25,0,.49-.06.74a18.22,18.22,0,0,0-.41,3.18,46.37,46.37,0,0,0,.52,5.26,27.94,27.94,0,0,0,.76,3c0,.27,0,.54,0,.81l-.37.57,1.11.25c0,.27,0,.53.05.8-.24.3-.74.76-.66.88,1.58,2.7-.39,6.39,2.48,8.78a2.34,2.34,0,0,1,.08,2.21c-2,3.23,0,6.14.55,9.15h0c.26.55.51,1.1.77,1.64l0,.79c-.94,1.87.55,2.76,1.34,4.12s.25,3.28.82,4.75c.84,2.14-.4,4.85,1.89,6.52a2.68,2.68,0,0,0,0,.8,29.17,29.17,0,0,0,2.43,10.52,5.79,5.79,0,0,0,.72,0q.84,5.25,1.67,10.49c0,.27.06.54.1.81.19,4.64.4,9.27,3.09,13.34a2.91,2.91,0,0,1,.13,1.77c-.12.77-.75,1.61-.57,2.26.87,3.16,1.93,6.27,2.92,9.39,2.59,3.62,3.56,7.91,4.91,12,.1.25.19.5.3.75,2,4.54,3.31,9.71,9.24,11,.28.06.26,1,.61,1.28a7.71,7.71,0,0,0,1.94.77h0l.8.8c.23,2.33,2.5,1.49,3.68,2.36.68.5,2,.77,2.12,1.32.63,3.29,2.38,1.79,4,1.11,3.3,0,6.6.13,9.89,0,3.83-.13,5.56-1.31,6.31-4,.7-.06,1.69.14,2-.24,1.31-1.44,2.42-3.08,3.61-4.65h0c2.16-3.24,5.28-5.85,6.47-9.74A20.88,20.88,0,0,0,81,400c1.51-4,3.77-7.83,4.35-11.93s1.22-8.27,2.13-12.36h0c.27-.53.54-1.07.82-1.6,2.21-2.05,1-4.87,1.65-7.28v-3.27c3.84-1.65,2.77-5.67,3.51-8.47.85-3.25.16-6.95,1.56-10.3.13-.3-.67-1-1-1.48a16.61,16.61,0,0,0,1.61-8.14q.39-9.28.79-18.58l-.09-4.09c0-1.58,0-3.17,0-4.76a15.87,15.87,0,0,0,.31-3.12c0-.62-.68-1.18-1-1.77l-.81-4-.74,0a5.84,5.84,0,0,0,0-.73,6.31,6.31,0,0,1,.76.07,2.15,2.15,0,0,0,0,.67c1-.17,3.3.69,1.36-1.83a14,14,0,0,1-1.37-3h0c-.56-1.07,1.8-2.18,0-3.25,2.56-4.32.71-8.66,0-13l-.06-4.8L93.9,272c1.07-3.22-.69-6.3-.51-9.48,0,0-.18-.12-.29-.18L93,261.5a1.35,1.35,0,0,0,0-.77l-.7-1.71-.06-2.35c-1.35,0-2.69,0-4,.13l-.08.06c-.13-.09-.23-.17-.3-.16.08,0,.19.11.38.1-1.76-1.48-3.36-2.05-4.39.84,1-2.89,2.63-2.32,4.38-1h4c0-.54,0-1.08,0-1.62h0l-.87-6.5a1.94,1.94,0,0,0,0-.76c-.1-2.49-.59-5-.21-7.46a19.1,19.1,0,0,0-1.3-9.63c.22-4,.47-8,.65-12,.08-1.64,0-3.28,0-4.93.91-4.72,1.08-9.6,3-14.11.13-.31-.3-.86-.47-1.29l-3.32-1.59,3.32,1.59,3.15-6.44,2.44-4q1.2-2,2.39-4.08c.68-.75,1.33-1.52,2-2.23,1.32-1.35,2.51-2.9,4.48-3.4l.4,0,.4,0a47.22,47.22,0,0,1,4.4-1.73c.73-.21,2.21-.13,2.32.19a12.26,12.26,0,0,0,3.73,5.27c1.07.91,1.63,2.42,2.42,3.67l.77.76c.07,1.07-.3,2.53.27,3.15,3.42,3.74,2.48,8.69,3.92,13,1.07,2.71,2.15,5.41,3.23,8.12.75,1.92,2.16,3.87,2.1,5.77-.12,3.62,1.33,6.56,2.74,9.61l.8.78c.33,2.85,2.42,5.31,1,8.64a7.65,7.65,0,0,0,.57,6.36c1.31,1.88,1.06,3.25.63,5a6.86,6.86,0,0,0,.19,2.18c.1.83.25,1.67.29,2.51.18,3.91.34,7.83.51,11.75l.84,8.86h0l.06,1.62c-.1,2.12-.25,4.25-.29,6.37s1.37,3.64.61,6c-.66,2.08.27,4.67.5,7l1.54,5.7q.82,4,1.64,8.07c.29,4.35.44,8.72.89,13.06.31,2.95,1,5.85,1.6,8.78.15,1.66.19,3.33.46,5,.58,3.5,1.27,7,1.91,10.48a2.31,2.31,0,0,0,.08.74q1.17,5.67,2.35,11.34c0,.55,0,1.11,0,1.66.43,2.92.82,5.85,1.33,8.76.07.36.81.6,1.23.89a4.29,4.29,0,0,0,0,.8l0,.83a3.09,3.09,0,0,0,0,.8,3.16,3.16,0,0,1,.43,0,3.16,3.16,0,0,0-.43,0l1.59,5.65c.31,1.37.16,3.3,1,4,2.38,2,1.11,3.93.89,6.09-.21,2,.32,4.08.52,6.11,0,.54,0,1.08,0,1.62a3.56,3.56,0,0,0,0,.8,2.68,2.68,0,0,0,1.6-.41c0,.14,0,.28,0,.42l.29-.18c.29,3.37.8,6.25,1.31,9.12,0,.53,0,1.06,0,1.59.27,3.8,1.83,7.34,2.15,11.13,0,.07.22.12.34.18l-.12.81c-.64,3,.38,12.63,1.63,15.41-.11.51-.48,1.13-.31,1.52,1.82,4.22,2,8.67,2,13.16a7.14,7.14,0,0,0,.32,2.78A74.45,74.45,0,0,1,170,461.44a1.16,1.16,0,0,0,.86-.36c0,.12,0,.23,0,.35l.12-.08a3.34,3.34,0,0,0-.12.88v-.8H170c0,.52.06,1,.1,1.57h0l2.29,4.9q0,.39.12.78c.48,3.79,3,6.58,4.8,9.72.54,1.48,1,3,1.67,4.42.27.54,1,.83,1.6,1.23l.75-.77a2.91,2.91,0,0,1,0,.78q-.36,0-.72,0c0,.83-.28,1.93.14,2.41,1.12,1.3,2.25,2.4,1.76,4.36-.08.32.82.88,1.27,1.32l.84,1.62h0l.82.8h0c.52,1.28.75,3.41,1.6,3.7,2.71.93,3.55,3.21,4.87,5.2a13.38,13.38,0,0,0,5.78,6.64,3.79,3.79,0,0,1,2.36,3,58.92,58.92,0,0,0,2.91,6.17c.29.48,1.8.23,2.75.31h0c.9,2.8,2.05,5.29,5.7,4.83-1,3.31,3.09,3,3.76,5.36.25.88,2,1.38,3.15,1.95.68.35,1.74.3,2.14.81,2.78,3.57,7.51,4.64,10.4,8l-.06.17a.85.85,0,0,1,.17-.06l-.11-.11a.54.54,0,0,1,.33-.23c0,.09,0,.21-.06.25a.83.83,0,0,1-.16.09c1.93,2.16,4.43,2.63,7.15,2.45v0c1.13,4.25,5.95,3.66,8.33,6.31.1.11.9-.4,1.38-.63h0c3.7,1.85,7.37,3.78,11.15,5.48.64.29,1.72-.37,2.59-.59l11.35,1.63h0c1.82,1.42,3.47,3.25,6.1,1.12.54-.44,2,0,2.94.36,2.14.76,4.22,1.7,6.32,2.57.29.25.55.65.88.74,4.3,1.1,8.61,2.17,12.92,3.25.76,0,1.52.06,2.27.15,2.31.27,4.9,0,6.87,1a10.57,10.57,0,0,0,5.7,1.28c.91-.06,2.1-.47,2.67,0,2,1.51,4,.84,6.1.43a13.75,13.75,0,0,1,2.31,0c2.63-.08,5.25-.19,7.87-.29a20.36,20.36,0,0,1,3-.06c3.93.5,7.87,1.58,11.78,1.47,3.49-.09,7.12,1.21,10.58-.58.7-.37,1.83.09,2.76.16,1.57.11,3.15.34,4.71.31,1.81,0,3.77-.85,5.38-.38a9.09,9.09,0,0,0,6.76-.38,8.13,8.13,0,0,1,5.33-.87c1.22.24,2.58-.3,3.89-.48.75-.1,1.65-.48,2.23-.21,2.33,1.11,4.61.32,6.9.08l0,0,.12,0-.06,0c.55-.28,1.16-.84,1.63-.74,4.43,1,9.07-2,13.4.72a1.26,1.26,0,0,0,.79,0c4.46-1,8.84-1.92,13.55-1.21,2.48.37,5.18-.77,7.79-1.23,1.3,1.24,1.7-.42,2.51-.78h.39l.39,0c3.29.27,6.59.77,9.88.76a11.78,11.78,0,0,0,9.56-4.77l6.41-.07c1.89-1.64,5-1.2,6.32-3.81,2.64,1,3.75-1,5.05-2.58.54-.07,1.25,0,1.57-.26.54-.5.67-1.59,1.24-1.86,2-.93,4.09-1.48,6.06-2.4A56.36,56.36,0,0,0,497.1,540l4.86-5.66,4-4.09,4-4.84h0a8.38,8.38,0,0,0,4.11-5.6,4.43,4.43,0,0,0,.73-.11,17.53,17.53,0,0,1,4.68-5.89,2,2,0,0,0,.69-1c.58-4.94,6.62-7.89,5-13.63,0-.12.2-.39.37-.47,2.78-1.36,2.2-4.29,3.08-6.53a6.81,6.81,0,0,0,0-.78l1.53-3.25h0c.78-2.44,1.57-4.87,2.35-7.3q.84-3.24,1.69-6.46c3.2-1.78,2.8-5.35,4-8.1l3.21-10.53h0c.25-.3.65-.57.73-.91,1-4.35,2.18-8.68,3-13.08a63.39,63.39,0,0,0,.44-7.82h0l.69-.84c1.84-3.91,1.11-8,1-12.09a4.08,4.08,0,0,0,.7-1.31c.58-4.7,1.11-9.41,1.65-14.12.23-4.24.2-8.5.73-12.7.91-7.2,2.14-14.36,3.31-21.52.24-1.43,1.32-2.88,1.13-4.2a31.32,31.32,0,0,1,.51-11.21c.44-2,.15-4.13.43-6.17.57-4.12,1.32-8.21,2-12.33a10.87,10.87,0,0,0,0-2.42c-.26-3.18-.56-6.37-.84-9.55,0-.55.08-1.09.11-1.63h0c.14-3.46.69-7,.21-10.35a15.75,15.75,0,0,1-.14-3.62,16.85,16.85,0,0,0-.09-2.24h0c.26-3.5.58-7,.74-10.5a8.22,8.22,0,0,0-.73-2.48c0-4.47,0-8.95,0-13.43,0-1.48,0-3,.06-4.43h0l-.06-2.31h0a12.93,12.93,0,0,0,.66-2.51c.12-2.33,0-4.67.17-7,.46-5.63,1.08-11.26,1.6-16.89.2-2.21-.18-4.59.55-6.59,1.59-4.31,1.27-8.79,1.84-13.19,0-.26,0-.53,0-.8h0v-.8a1.64,1.64,0,0,0-.73-.07c.26-.76.52-1.52.77-2.29a10.64,10.64,0,0,0,.77-2.55c.33-7,.58-13.9.83-20.85,0-1.4,0-2.8,0-4.2l2.4-8.1,0,0c.27-1.08.54-2.16.8-3.24l.9-2.31a9.19,9.19,0,0,0-.68-1.19,9.19,9.19,0,0,1,.68,1.19c.95-1.77,1.58-3.86,2.93-5.24s3.39-2,5.13-2.94a16.35,16.35,0,0,0,5.89-2.64c1.49-1.2,4.1-1,6.22-1.42h0c2.09,1.53,4.19.67,6.35.11a9.8,9.8,0,0,1,4.21-.38c3.09.63,6.31,1.07,8.45,4,.7,1,2.22,1.4,3.42,1.92,2.58,1.13,6.07,1.47,7.6,3.39,2.07,2.63,4.87,2.31,7.2,3.53a47,47,0,0,0,4.86,2c3.5,3.44,8.58-.37,12.19,2.62,0,0,.21-.15.32-.21,2.41-1.31,5-2.34,7.15-4a36.15,36.15,0,0,0,5.24-5.84c.16-.19-.34-.94-.54-1.43l1.51-.06c-.28-.6-.56-1.19-.85-1.79.29.6.57,1.19.85,1.79,2-2.4,4.14-4.69,5.88-7.25.69-1,.46-2.65.65-4,.62-1.89,2.65-3.4,1.53-5.75,0-.78.06-1.57.08-2.36l1.62-8.11h0c1.32-1.62,1.77-3.25.08-4.91C667.71,142.54,666.21,140.41,666.4,138.53ZM2.4,288.24h0Zm0,.81h0Zm-.81.82c0,.26,0,.53,0,.79,0-.26,0-.53,0-.79l.8,0Zm.8.79v-.81l.82-.8.8-.81H4l-.8.81-.82.8ZM4.83,298l-1.62.8a18.25,18.25,0,0,0,1.85-1c.05.1.1.2.14.2l.1,0a12.1,12.1,0,0,0,1.64,3.56Zm4.45,2h0c.07.1.16.27.21.26S9.35,300,9.28,300Zm85.84,10.53c0,.08,0,.19-.07.23a.87.87,0,0,1-.24.1ZM93.75,293.6a1.12,1.12,0,0,1,.09.22l-.32-.3C93.6,293.54,93.71,293.55,93.75,293.6Zm-1.07-4.14c.09,0,.21,0,.25.07a.69.69,0,0,1,.1.25Zm.36-27-.18,1-.43-.26C92.63,262.89,92.84,262.65,93,262.41Zm-3.2,99.47.6.36-.6-.36L89,363.5Zm-1.62-99.55.24.24-.24-.24ZM641.1,107h0ZM575.61,55.16h0L575,56ZM499.48,61.7c1.34,1,2.65,2,4,3a6.58,6.58,0,0,0,1.59.66L512,67.69a10,10,0,0,0,2.62.81c4.23.13,7.91,1.91,11.62,3.62.43.48.77,1.26,1.3,1.41,4,1.13,8.41.93,12.23,3,.21.12.71-.27,1.08-.42,3.59,0,6.69,1.41,9.64,3.27l-.06.07.11,0,0,0v0l9.68,3.29c1.29.62,2.62,1.16,3.85,1.87,4.76,2.74,9.45,5.59,14.22,8.3,3.92,2.23,8,4.19,11.84,6.54,1.4.86,2.23,2.6,3.5,3.75.51.46,1.49.42,2.25.6l.86,1.53.53.54-.53-.54,1.58,2.48c1.85.83,3.72,1.35,5.37,2.87,1.83,1.67,4.51,2.41,6.82,3.56h0c.36,2.33,2.17,2.38,3.93,2.51l0,0a33.41,33.41,0,0,0,2.28,3.1c1.34,1.45,2.81,2.78,4.22,4.15l3.23,4.86c2.36,2.19,0,5.29,1.45,7.64-2.5,2.28-1.55,5.84-3.13,8.47a3.49,3.49,0,0,0-.72.05c-2.7-.49-5.39-1.3-8.11-1.39s-4.95-.67-6.6-3c-.24-.33-1-.25-1.47-.47-1-.49-1.93-1.09-2.92-1.59-1.16-.58-2.36-1.09-3.54-1.63-1.6,0-3.15,0-4.08-1.65h0a13.55,13.55,0,0,0-2-2.24c-.48-.34-1.32-.17-2-.23l0,.05c-.81-2.41-3-2-4.84-2.44h0c-1.19-1.76-3.95-2.21-4-4.87a10.18,10.18,0,0,0-8.08-4.86l-2.42,0c-1.36-1.38-1.85-.08-2.49.79a6.54,6.54,0,0,0-5.63-2.73c-2.46,0-5.08.39-7.36-.3-6.87-2.11-13.17-.55-19.4,2.2l-1.58,0-4,.91h-.88l-5.64,1.57-.84.79h0c-2,.23-4.27,0-6.09.77-4,1.68-7.95,3.17-12.42,2.64-.51-.06-1.16.94-1.74,1.45l-1.58,0-6.48,1.63h-.81a6,6,0,0,0-.64,1.69l-.06,0-.11-.05a1.34,1.34,0,0,1,.07.18c-.84.81-1.31,1.76-2.53,2.22,1.27-.48,1.7-1.51,2.46-2.4l.81-1.62L485.73,132l-2.41.84c-8.08,1.08-16.17,2.15-24.24,3.26a6.71,6.71,0,0,0-1.71.78l-3.22,1.59a18.71,18.71,0,0,0-4.26.26c-4.8,1.41-9.48,3.26-14.33,4.43-2.82.68-5.82.57-8.22,2.56l-7.18,1.69-3.17.85-3.3.78-13.75,2.5-.84.72h0c-.36-.17-.74-.51-1.08-.48-4.86.48-9.71,1-14.56,1.56-.2,0-.36.36-.54.56L373.17,155c-1.35.16-2.7.3-4.06.45-1.36,0-2.77-1.21-4.09.31-.25.28-1.18,0-1.79-.08-2.34-.32-4.68-.67-7-1l-4.07.78h0l-1.61.06a3.06,3.06,0,0,0-.8-.07l-4.06.05c-1.54.18-3.08.46-4.63.51-5.05.15-10.11.17-15.17.33a14.27,14.27,0,0,0-2.93.73,85.77,85.77,0,0,0-15.29-.54c-2.78.18-5.65-.67-8.45-1.24-1.88-.38-3.68-1.19-5.56-1.56-.61-.12-1.36.57-2.06.85-1,.39-2.15,1.61-2.73-.57a2.48,2.48,0,0,0-2.08-.3c-2.25,2.48-1.46-1.14-2.54-1.23-1.23-.1-.79,2.49-2.55,1.25-3-2.08-6.56-2.55-10-2.93-1.37-.15-2.73.45-3.79-.94-.19-.25-.93-.45-1.05-.32-2,2.08-3.55-.59-5.34-.48-.9-.44-1.82-1.31-2.64.12a11.3,11.3,0,0,0-2.66-1.68c-.55-.18-1.36.41-2,.66h-.71c-1.16-.79-2.35-2.28-3.46-2.22a30.28,30.28,0,0,1-8.11-.86,97.27,97.27,0,0,0-12.28-1.59,26.09,26.09,0,0,0-5.37.65h0c-1.83,1.08-3.18-.71-4.82-.8l-1.64-.79h0a7.09,7.09,0,0,0-2.47-.76,26.47,26.47,0,0,1-12.34-2.09c-2.94-1.23-5.7-1.79-8.66-.39l-.4-.05-.4,0c-3.13-1-6.26-2-9.41-2.89-.29-.09-.71.29-1.07.45l-4.9-1.59-10.48-2.47h-2.45v0l-2.45-.79h0c-.92-.72-1.75-1.78-2.79-2.08a68.15,68.15,0,0,0-6.87-1.27c-.85-1.67-2.43-1.74-3.86-1.4-4.27,1-6.8-1.51-9.3-4.25-.38-.43-1.29-1-1.41-.93-2.33,2-3,0-3.78-1.55-.65-1.36-1.22-2.23-3-1.55-.84.32-2.68,0-3-.54-1.51-3.11-5.07-4.37-6.47-7.48a5.83,5.83,0,0,1-.31-1.74c-.16-1.29-.29-2.58-.44-3.88,2.15-3.3,2.15-3.36,0-5.67a4.13,4.13,0,0,1,2-3.65c1.83-1.29,3.06-3.44,4.54-5.23s2.47-3.93,4.79-4.82a14,14,0,0,0,10.49-3.35l4.05-.74c1,.11,2.28.69,2.92.27a53.3,53.3,0,0,0,5.2-4.31,6.69,6.69,0,0,1-1.5-1.31,6.69,6.69,0,0,0,1.5,1.31h0l2.42,0,7.26-1.65,4.08-1.58h0A32.64,32.64,0,0,1,173,73.22c2.1-.52,4.25-.81,6.36-1.29,1.61-.38,3.19-.89,4.78-1.38.71-.21,1.4-.51,2.09-.77a5.24,5.24,0,0,0,.79-.15l2.47-.68h1.6l1.6-.06,4.1-.87,4-1.53v0l.84,0A25.47,25.47,0,0,0,213.75,64l5.62-1.59h0l8.11-3.2,9-2.39,6.4-2.48v0l.81-.06c1.28-.22,2.72-.13,3.82-.7,3.91-2,8.12-2.32,12.37-2.58,3.73-.55,7.36-2.35,11.26-.82.19.08.6-.41.91-.63l2.41-.1h0c2.66,0,5.33,0,8-.21.61,0,1.17-.83,1.75-1.27l1.62-.19,4.88.83,4,.08,3.24-.09,2.43-.75h0l.78,0a58.7,58.7,0,0,0,22.7-2.4c4.78,1.61,9.68,1.13,14.57.81a13.34,13.34,0,0,0,2.83-.06c1.37-.33,2.55-1.72,4,.12.77,1,1.68.45,1.71-1,0-.22.71-.44,1.1-.66h0c2.23,3.06,5.19,2.27,8.13,1.53v0a12.68,12.68,0,0,0,2.44.68c1.61.13,3.24.1,4.87.14h0a5.89,5.89,0,0,0,5.59.06h0c1.87,2.57,4.92,1.45,7.33,2.31a2.68,2.68,0,0,0,.8,0l5.68-1.48a5,5,0,0,0,.67,0c.27,1.45.92,2.3,2.62,2.29,1.88,0,3.76.38,5.64.47a12.1,12.1,0,0,0,2.43-.36l.77,0c1.6,2,3.23-.15,4.84,0a33.24,33.24,0,0,0,4.36,1.54c2,.43,4.12.57,6.19.83a3.06,3.06,0,0,0,.8,0c1.62.18,3.25,1.46,4.87,0l2.44.84c1.06,1.7,2.14.33,3.22,0,1.6.52,3.21,1.51,4.79,1.46a57.69,57.69,0,0,1,7.88.13c5.16.51,10.45,1.14,15.66,0a29,29,0,0,1,9.82,2.09c1.95.82,4.53.65,6.83,1.11a26.65,26.65,0,0,0,6.73.45,52,52,0,0,0,6.6-1.2l0,0,4.82.86c1.76.53,3.57.94,5.28,1.61A21.49,21.49,0,0,0,499.48,61.7Zm76,21.46a9.36,9.36,0,0,1-1.7-1.37l.17.07-.06-.15c2-1.45.31-1.67-.63-2.24,1,.58,2.71.8.69,2.39A7.46,7.46,0,0,0,575.53,83.16Zm35.78,17.26c.11-.12.23-.23.34-.34,0,.07,0,.18-.07.22A1,1,0,0,1,611.31,100.42Zm14.55,51.86Zm-6.54,4.1v.71l-.7-.71Zm-5.65-.06h0l-.82,0a3.16,3.16,0,0,0-.52-.17,3.16,3.16,0,0,1,.52.17h0ZM604,149.84h0l-.81-.82-2.43-2.41,2.43,2.41Zm-5.66,0,1.61,0-1.61,0c-.27-.54-.54-1.08-.82-1.62v0c.27-1.08.55-2.15.82-3.23-.27,1.08-.55,2.15-.82,3.23C597.75,148.76,598,149.3,598.29,149.84ZM595,135.29l-.37.39c0-.09,0-.21.07-.26A1.36,1.36,0,0,1,595,135.29Zm-33.94-10.42a4,4,0,0,1-3-.08,3.66,3.66,0,0,0,2.94,0c.65-1.44.81-1.81,1.54-1.41-.72-.39-.85,0-1.37,1.48h0l-.05,0-.1,0A.36.36,0,0,1,561.08,124.87Zm-33.25,10.37c2.07.4,2,.32,2.65-1.43-.67,1.79-.56,1.84-2.63,1.47-.28.21-.65.66-.82.59.17.07.54-.38.65-.66l.05,0,.12.05Zm-12.91-7.18c-1.25,0-2.49-.23-3.35.48.88-.74,2.16-.51,3.32-.55l2.26-1.41a12.47,12.47,0,0,0-2.08,1.48l-.18-.07Zm-15.28,5c-.17.13-.33.26-.48.36-.61-.35-1.09-.78-.91-1.22-.14.42.5.73,1.38.67a1.26,1.26,0,0,1,.19-.27,2.22,2.22,0,0,0-.19.27h0v0A.22.22,0,0,0,499.64,133.1ZM497,135.27c0-.39-.86-.75-1.31-1.12a2.33,2.33,0,0,0-.31-.11,4.38,4.38,0,0,1,1,.27,1.31,1.31,0,0,0,.25-1.32c.14.41.26.83.38,1.25l-.63.07C496.16,134.52,497,134.88,497,135.27Zm-2.77,6.09h0l-.08-.12ZM474.79,147l.17-.11-.17.11Zm-.18-.65c.05-.05.17-.11.23-.16h0C474.78,146.25,474.66,146.31,474.61,146.36Zm-31.14-.5c-2.33-2.34-2.74-2.36-5.31-.81,2.61-1.58,3-1.54,5.49.75-.06.82-.13,1.64-.22,2.82.09-1.18.16-2,.15-2.65l.07-.17ZM425,155.51Zm-35-.33-1.44,2h0Zm-39.86,2.35-.13.08.13-.08Zm-28.77,7.69-.8-.8h0Zm-4.08,3.94a10.63,10.63,0,0,0,1.65-.7l-1.61.81c-1.17.77-1.76.9-2,.69.28.15.81,0,1.87-.76l.17.07A.76.76,0,0,1,317.31,169.16Zm-38.4-4.34.23.59-.26.22.26-.22C279.07,165.22,279,165,278.91,164.82Zm-55.6-18.31-.29,0-.29,0ZM221,153.08v.81h0Zm-.4,2.86c0,.09,0,.2-.08.24a.82.82,0,0,1-.26.1Zm-1.49-2.79c-.51.17-.8.76-1.05,1.45C218.31,153.91,218.6,153.32,219.11,153.15Zm-25.61-10.6c-.32,1.18-.58,2.22-.84,3.25l.81-3.24a1.32,1.32,0,0,1-.66-1.84c-.24.59-.24,1.16.73,1.67l-.07.17Zm-23-2.11-.11.09h0Zm-42.26-11.21c0,.09,0,.2-.07.24a.56.56,0,0,1-.21.09Zm6.52-47.76.4.39h0Zm15-7.74a5.94,5.94,0,0,1,1.58.84h0A5.94,5.94,0,0,0,149.76,73.73ZM171.67,60.1l.33.32c-.08,0-.19,0-.23-.09A.6.6,0,0,1,171.67,60.1Zm28.7,6c.08,0,.19,0,.23.07a.51.51,0,0,1,.1.21ZM242.3,54l.53-.39c0,.24,0,.48,0,.72ZM342.87,38.56l-.17.12.17-.12.24.6-.28.22.27-.22C343,39,343,38.76,342.87,38.56Zm14.15-2,.79-.67.28.44-.28-.44Zm1.62,1.62,1.61-.81-1.61.81ZM363.55,47l.34-.34c0,.08,0,.2-.08.24A1,1,0,0,1,363.55,47Zm57.82,5.17.32-.16a3.35,3.35,0,0,1,.05.63Zm7.71.52,1.59.8h0Zm5.1-8.85c.54-2.11,0-2.09-2.13-2C434.6,41.76,434.85,41.75,434.18,43.87Zm1.91-.17A14.68,14.68,0,0,0,434,45.6l-.09-.87,0-.11C434.74,44.31,436.12,43.9,436.09,43.7ZM461.7,55.35a2.77,2.77,0,0,1,.17.23h0A2.77,2.77,0,0,0,461.7,55.35Zm13.58,0c-.43.3-.7.71-1.07.93a5,5,0,0,0,1-1.08c.38-.27.7-1.55,1.12-1.4-.41-.13-.68,1.15-.95,1.47l-.06,0-.11,0Zm3.18.64c-.51-1.83-1-3.66-1.45-5.26.44,1.6.95,3.44,1.62,5.35l0,0,0,0Zm2.43-1.6L482.54,53a17.1,17.1,0,0,0-1.72,1.49l.07-.17-.1,0c-.23-.87-1.06-1.92-.84-2.51C479.73,52.49,480.68,53.57,480.89,54.35Zm-.43,2.86c0,.08,0,.19-.08.23a.74.74,0,0,1-.22.1ZM489.18,51h0l-.09,0-.09,0a2.46,2.46,0,0,1,0,.26c-.63,1-1.13,2-1.61,3L489,51.11l-2.08-2.43A16.53,16.53,0,0,0,489.18,51Zm-86-32.29-1.88-2a17.28,17.28,0,0,0,2.13,2h-.25l.18.28c-1.5.17-2.8.66-3.9.2C400.59,19.69,401.89,19,403.17,18.74Zm-3.41-7.16-1.08,1-.19-.32Zm-67.17,5.23a.57.57,0,0,1,.09.24l-.34-.31C332.43,16.76,332.55,16.75,332.59,16.81Zm-12-5.35,3.15,1.17-3.15-1.17ZM286.26,2.7a.91.91,0,0,1,.3-.13l-.37.38C286.21,2.87,286.2,2.75,286.26,2.7Zm-96,25.75h0l-1.38.3ZM99.56,64.87c.22-.23.43-.48.66-.71-.23.23-.44.48-.66.71h0Zm-2,6.09c-.07,0-.17,0-.21-.08a.79.79,0,0,1-.09-.23ZM87,61.22c-.09,0-.21,0-.25-.08a.93.93,0,0,1-.1-.25ZM52.61,107h0c-.52.4-1,.82-1.55,1.23C51.58,107.78,52.09,107.36,52.61,107ZM38.42,121.11h0a2.38,2.38,0,0,0-.18-.22A2.38,2.38,0,0,1,38.42,121.11Zm-9.94,39.72h0a.25.25,0,0,0,0,.07l-.38.14a4.21,4.21,0,0,1-.91-.67A2,2,0,0,0,28.48,160.83Zm-4.67-3.2a3.63,3.63,0,0,1-.35.3h0A3.63,3.63,0,0,0,23.81,157.63Zm-3.18,12.85.05,0-.05,0Zm0-.86h0l-.16.13Zm-2-13.3c.68.31,1.23.63,1.25,1.13,0-.48-.56-.78-1.22-1a.3.3,0,0,0,0,.1c-.15,0-.3-.08-.33,0s.22,0,.35-.06c-.14-.56-.33-1.06-.41-1.54C18.28,155.36,18.47,155.84,18.59,156.32Zm.81,46.94ZM14.54,350.55h0l.29-1.12ZM14.48,324l0-.07,0-.1-.19.07a10.87,10.87,0,0,0-1.76-1.34c.69.46,1.32.87,2,1.27a14,14,0,0,0,1.56.33A7.77,7.77,0,0,0,14.48,324Zm2.13-10.19-.19-.13.22-.07Zm8.47,64.24a3.82,3.82,0,0,1-.52,1.21,3.82,3.82,0,0,0,.52-1.21Zm1.21-14.16h0l.15-.12Zm.17-.13s.08-.08.07-.1S26.5,363.73,26.46,363.77Zm12.37,53.15a2,2,0,0,1-.55-.82,2,2,0,0,0,.55.82c0,.8,0,1.61,0,2.42C38.83,418.53,38.83,417.72,38.83,416.92Zm44.53-36.43-.81-.8.81.81h0l-.81-.81a1.86,1.86,0,0,0-.88.16h0l.07-.16h0a5.16,5.16,0,0,0,0-.82l-.79-.67.79.67h.81l.18-.07-.18.07v.81l.81.8Zm1.23-16.56c-.06-.07-.12-.19-.17-.24s.11.17.17.24Zm-.3-36.67.19.2-.19-.2Zm-.22,36.5-.3.12h0Zm9.82-189.63h0l.66.79ZM98,180.59c-.37,1.61-.68,3.09-1,4.73.36-1.7.67-3.21,1-4.72-1,0-2,0-3.06.11a29.07,29.07,0,0,0,3.13-.28l-.07.17Zm12.5-15h0c.06.07.12.18.17.23S110.53,165.67,110.47,165.61Zm25,61a.65.65,0,0,1-.23.09l.3-.33C135.54,226.43,135.54,226.55,135.49,226.59Zm5.77,58.84-.09-.14.09.14Zm7.32-60.6-.21-.15.24-.09Zm2.79,110.34a1.1,1.1,0,0,1-.14-.18l0,0c.4.09.7.14.94.17A6,6,0,0,1,151.37,335.17Zm.81-16.19h0a5,5,0,0,1,1-1.46A5,5,0,0,0,152.18,319Zm-.81-9.7v2.24a13.18,13.18,0,0,0-.17-2.31l.17.07v0c.9.32,1.67.57,2.43.83Zm-2.5-30.59.22-.06,5.46,3.93C152.68,281.22,150.81,279.87,148.87,278.69Zm9.79,56.49-2.75-.79,2.75.79Zm1.58,0h0a6.79,6.79,0,0,0,0-.78A6.79,6.79,0,0,1,160.24,335.16Zm4.9,87.42c-1.08-.07-1.83-.37-1.19-1.67-.64,1.3.11,1.6,1.26,1.5l-.07.17.13-.05c1.26,2.6,2.59,1.23,3.91.05C167.83,423.78,166.49,425.19,165.14,422.58ZM170.8,425a3.4,3.4,0,0,1-.08-.74,3.4,3.4,0,0,0,.08.74l-1.62,2.21V425a2.88,2.88,0,0,0,.36-.31,2.88,2.88,0,0,1-.36.31v2.2Zm-3.43,15.47a2.68,2.68,0,0,1-.51-.09,9.72,9.72,0,0,1,.11-1.19c.24.26.46.39.49.55A2.32,2.32,0,0,1,167.37,440.48ZM169,438.7l.16.06-.05-.15c1.24-.89,1.75-1.95,1.22-3.21.55,1.31,0,2.4-1.17,3.36,1.17,1.65,2.24,3.26-.77,4.15C171.42,442,170.35,440.41,169,438.7Zm2.12,14.2-2-.41,2,.41Zm1.12,3.54c-.15-.05-.32-.15-.45-.18.13,0,.3.13.45.18Zm1,5-.79.79h0l.79-.79Zm-.79-38h0c.29.09.55.15.79.21C173,423.55,172.72,423.49,172.43,423.4ZM174.86,459l-1.63-.8,1.63.8Zm4.21.89h0l-.06,0-.1,0,0,.07c-1,0-1.49,1.69-2.46,1.37,1,.33,1.48-1.52,2.43-1.44l2.43-2.44A22,22,0,0,0,179.07,459.88Zm2.27-2.52h0a3.16,3.16,0,0,1,.93-.33A3.16,3.16,0,0,0,181.34,457.36Zm6.75,22.55c0-.09.1-.18.15-.28h0C188.19,479.73,188.13,479.82,188.09,479.91Zm-1-11.82a.6.6,0,0,0-.08.08c-.2-.15-.31-.25-.36-.23s.2.13.44.15c-.91-1.53-1.87-2.8-2.55-4.21a43,43,0,0,0,2.48,4l1.37,2.67C187.91,469.68,187.46,468.79,187.07,468.09Zm86.07,87.07a.69.69,0,0,1-.25.1l.31-.36C273.18,555,273.19,555.12,273.14,555.16Zm245.8-56.51c1.24,1.45,1.24,1.43-.37,1.85,1.61-.42,1.61-.4.2-1.92h0l.17.07s0-.1-.05-.15a20.81,20.81,0,0,0,4.63-3.95C522.32,496.16,520.51,497.32,518.94,498.65Zm5.18-14.35-.32-.21a.76.76,0,0,1,0,.15,2.09,2.09,0,0,0-.82-.15c.27-.27.54-.54-.17-1.64a12.34,12.34,0,0,1,.81,1l-.64.64h.81v-.39a6.75,6.75,0,0,0,.62.79ZM522.83,482c0-.05,0-.09,0-.13a1,1,0,0,1,.22.07A.22.22,0,0,0,522.83,482Zm16.33-50.59a.74.74,0,0,0-.12-.27.74.74,0,0,1,.12.27ZM553,294l-.08.06c-.13-.09-.23-.18-.3-.17.09,0,.2.11.38.1Zm-.23-71.9c1.33-.71,1.09-3.07,2.66-3.49l1.61-.81c-.54.27-1.08.54-1.18,1.29l0,0-.08-.09-.33-.37c0,.17,0,.36,0,.54C553.92,219.52,554,221.5,552.72,222.13Zm2.48-21.4.18.1a4,4,0,0,0,1.9,1,4,4,0,0,1-1.9-1Zm1.14,97.45c.21-.88.39-1.77.63-2.64h0C556.73,296.41,556.55,297.3,556.34,298.18Zm1.46-67.4c-.7.95-1.12,2.52-2.57,1.82,1.44.7,1.85-.88,2.41-1.89l.16.07a.14.14,0,0,0,0-.06c.74.05,1.37.06,2.29.06Zm2-11.16h0l-.12.07-.19-.27c.32-.41.62-1.11.95-1.11C560.1,218.3,559.81,218.91,559.77,219.62Zm5.32-47.12-1.62-2.42-2.06-.29a8.73,8.73,0,0,0,2.13.12l0,.06,0,.11.13-.05a21.54,21.54,0,0,0,1.49,2.47Zm12.73-3.06c.06-.24.11-.48.17-.72-.13-.19-.26-.38-.4-.56.14.18.27.37.4.56C577.93,169,577.88,169.2,577.82,169.44Zm10.24,1.29a.51.51,0,0,1-.21.1l.29-.33C588.11,170.58,588.12,170.69,588.06,170.73Zm63.81-19.22a1,1,0,0,0,.33.23A1,1,0,0,1,651.87,151.51Zm.4-12.28a38.49,38.49,0,0,0-1.37,6.57l-.81,4.85a3.62,3.62,0,0,1,.68,1.51,3.62,3.62,0,0,0-.68-1.51c-.24,1.36-.49,2.72-.73,4.09.25,0,.49,0,.74,0-.25,0-.49,0-.74,0-.51,3-.37,6.24-2.92,8.65-.51.48-.28,1.73-.39,2.63-.77.65-1.58,1.25-2.29,2a26.77,26.77,0,0,0-1.69,2.13,14.32,14.32,0,0,1-3.44,2c-2.86.75-5.87,2.75-8.58-.53a1.47,1.47,0,0,0-2.64.19l-4.27-.89c-.26-.06-.72,0-.76-.17-1.4-4.54-6.7-2.48-9.1-5.4-1.16-1.4-4.13-.68-4.31-3.45,0-.08-.87-.3-1-.14-1.59,1.48-2.59-.57-3.91-.59-4.25-3.92-12.64-5-17.88-2.38h-.81c-4.92.57-10-.07-14.63,2.48l-2.36.84c-1.94.86-3.91,1.57-5,3.78-.36.75-1.68,1.12-2.61,1.53-1.88.84-3.16,2-3,4.28-.52.3-1.26.47-1.51.92-1.18,2.09-2.23,4.26-3.32,6.4l-1.65,6.47-.84,1.6h0c-.22.83-.45,1.67-.68,2.51-.31,1.85-.61,3.71-.92,5.57-.7,2-1.13,7.58-.81,10.57a3.48,3.48,0,0,0,0,.79c-.94.8-1,1.6,0,2.37a1.44,1.44,0,0,0,.65.11h0c-.42,2-1,4-1.24,6-.55,4.16.27,8.43-1,12.55-.47,3-.94,6.08-1.38,9.12,0,.18.26.4.4.61-.62,4.25-1.25,8.5-1.85,12.75-.24,1.65-.39,3.31-.58,5a6.46,6.46,0,0,0,1.89-1.08,6.46,6.46,0,0,1-1.89,1.08l0,5.7c-.22.54-.43,1.09-.65,1.64a1.8,1.8,0,0,0,0,.8c2.14.54,4.27,1.08,6.48,1.45h0l-.41.08-6.07-1.53c-.22,2.06-.59,4.12-.62,6.18a44.25,44.25,0,0,0,.5,5.23h0c0,.79,0,1.57,0,2.36h0a11.52,11.52,0,0,0-.69,3c.14,3.84.45,7.67.7,11.5a25.5,25.5,0,0,0-.66,4.54c.12,4.82.62,9.63.62,14.45s-.52,9.54-.65,14.32a28.15,28.15,0,0,0,.62,4.71c-.18,1.88-.39,3.75-.55,5.63-.32,3.8-.62,7.6-.93,11.4.45-.83.83-1.7,1.3-2.52-.47.82-.85,1.69-1.3,2.52q-1.2,12.17-2.42,24.32c-.29.41-.79.8-.83,1.22-.32,3.63-.56,7.25-.83,10.88h0c-1.11,6.53-2.39,13-2.17,19.74.17,5.27-1.14,10.58-1.79,15.88l.05,1.6c0,.28-.05.55-.08.82-.27,2.43-.55,4.86-.82,7.29l4.82,2.42c-.3-.62,1.22-1.13,1.12-1.78.12.62-1.13,1.18-.86,2l-.12.07c-1.85-1.13-3.41-1.92-5-2.7a2.76,2.76,0,0,0-.07.76q-.42,2.87-.86,5.73a7.87,7.87,0,0,0-1.13,4.31c-.08,2.88-1.3,5.73-2,8.59q-1.26,5.66-2.5,11.33l-1.58,2.41-2.4,7.32h0l-.82.8c.94.49,1.89.95,2.81,1.48-.92-.53-1.87-1-2.81-1.48h0l-3.21,9.73a1.09,1.09,0,0,0,.82-.34c0,.11,0,.23,0,.34l.4-.27a2.49,2.49,0,0,0,1.23,1.08l-1.63-.81h-.81c-.73,1.76-1.53,3.5-2.17,5.29-1.48,4.16-2.87,8.34-4.3,12.51l-1.62,4.06-7.35,11.29c-1.09,1.54-2.11,3.13-3.3,4.59a14.85,14.85,0,0,1-2.31,1.91L489.79,527l-3.2,2.48h0c-4.41,3.74-8.51,8-14.65,8.85l-8,4.08c-1.4-.1-2.68,0-3.25,1.61-1.69.75-3.9,1.06-5,2.33-3.63,4.32-8.92,1.72-13.05,3.59-2.48-2.2-3.75.45-5.46,1.35a6.1,6.1,0,0,1-1.94-.19c-2.21-1-4.36-2.52-5.16,1.54-.11.6-1.62,1.46-2.9,0s-3.23-2-4.66.24a4.85,4.85,0,0,0-.66,0l-1.66-.71c-.54-.25-1.47-.82-1.56-.71-1.47,1.75-3.08,1.17-5,.9a61.07,61.07,0,0,0-9.57-.18c-2.14,0-4.66,1-6.31.18-2.27-1.14-2.05.44-2.68,1.35l0,.06c-1.05-.33-2.27-1.16-3.14-.89a10.55,10.55,0,0,1-5.61.35c-1.36-.27-3.12.52-4.76.2,0,0-.2.7-.31,1.08-1.63.45-3.26,1.27-4.9,1.29-2.83,0-5.43,2.55-8.43.65a4.71,4.71,0,0,0-2.31-.19,14.37,14.37,0,0,0-4.16.15c-3.71,1.15-7.28-.46-10.92-.25-4.09-.12-8-2.32-12.24-.84-.24-.28-.47-.57-.71-.86-.49-.82-.8-1.54-2.13-.79s-3.14,1.52-4.34,1.11c-2.82-1-5.43-1.61-8.29-.35a2.18,2.18,0,0,1-1.9-.24c-2.08-1.9-4.55-1.15-6.89-1.24h-1.6c-1-2.34-2.49-1.71-4.07-.77a54.43,54.43,0,0,1-18.87-4.22A22.1,22.1,0,0,0,280,546c-2.85.15-6.29.37-9.11-1.89a9.41,9.41,0,0,0-5.29-1.54c-2.05-.08-3.9.47-5-2.11-.35-.78-2.47-.68-3.68-1.21-3.07-1.34-6.08-2.81-9.12-4.23-.63-1.61-2.15-2-3.46-2.8-3.58-2.29-6.75-5.2-10.15-7.78-.36-.27-1.18.06-1.78.11-3.81-1.35-5.76-3-7.44-6.51-.92-1.88-1.68-1.89-4.52,0a7.68,7.68,0,0,0,.16-1.57c-.24-2.19-5-6.22-7.63-6.46h0l-.79-.83h0a10.22,10.22,0,0,1-.89-3.11c.06-2-1.21-1.67-2.38-1.7l-.75-.86-1.31-.41,1.31.41a19.87,19.87,0,0,1-2.1-4.2c-.57-2.49-2.11-3.53-4.4-3.9-.89-1.61-2.82-2.84-1.43-5.24.25-.45-1.16-1.86-1.8-2.82-1.75-3.83-4.63-7-5.72-11.28-.74-2.88-2.52-5.48-3.76-8.24-.7-1.56-1.25-3.18-1.87-4.77l-1.56-1.6a5.29,5.29,0,0,1-.09-.8l-.81-1.62a3.59,3.59,0,0,0-.05-.8,3.59,3.59,0,0,1,.05.8l.81,1.62c.11-2.74,0-5.42-2.47-7.29l-1.57,2.43h0l1.57-2.43c-.29-3.19-.54-6.38-.94-9.55-.06-.44-.87-.79-1.34-1.17l0-1.4c.67-4.22-1-8.11-1.66-12.16l-.06-1.62a28.1,28.1,0,0,1-1-12.88c.08-.52-.4-1.13-.62-1.7a4,4,0,0,0,0-.77,3.85,3.85,0,0,1-.55.23,3.85,3.85,0,0,0,.55-.23l-.75-4.88h0c0-.53,0-1.06-.07-1.58l-2.4,1.59h0l2.4-1.59c-.54-1.37-1.09-2.74-1.64-4.11q-1.36-5.65-2.75-11.33c-.39-1.61-.79-3.23-1.18-4.85l-.9-7.24c-.26-1.35-.51-2.71-.77-4.07-.54-2.43-1.07-4.86-1.61-7.29-.92-.91-1.78-2.11-3.32-.63l0-.05.05-.12-.13,0a3.73,3.73,0,0,0-.58-1.05c.27.28.46.69.71,1,1.47-1.31,2.33-.11,3.25.8-1.12-5.71-1.66-11.51-2.56-17.25-.38-2.47-2-4.74-3.07-7.11a4.33,4.33,0,0,0,0-.72l.75-1.63c1.22-1.34,1.28-2.67-.06-4l-.37,0h-.38c0-.57,0-1.13,0-1.69.05-2.36.26-4.65-1.85-6.55-.66-.59-.31-2.32-.38-3.54-.08-1.48-.12-3-.18-4.44-.24-1.35-.49-2.7-.74-4.05a6.94,6.94,0,0,0,0-.79c.71-1.33,1.91-2.68-.38-3.77-.3-.14-.47-.92-.42-1.36.53-4-.71-7.86-1-11.8-.08-1.13-.82-2.21-1-3.35-.51-3.77-.88-7.57-1.3-11.35a5.9,5.9,0,0,0-.1-.75h0a20.16,20.16,0,0,0,0-2.58c-.16-1.34-.46-2.65-.71-4a5.85,5.85,0,0,0,.71-2.23c-.31-3.08-.92-6.13-1.19-9.21s-.28-6.34-.4-9.51a7,7,0,0,1-.51-.62,7,7,0,0,0,.51.62c-.13-1.61-.31-3.22-.39-4.83-.23-5-.42-9.93-.65-14.89,0-.18-.37-.35-.57-.53-.57-3.59-1-7.21-1.78-10.77a57,57,0,0,0-2.31-7.21,27.65,27.65,0,0,0-1.54-3.08c-.78-1.25-1.58-2.49-2.32-3.76a2.85,2.85,0,0,1-.52-1.48c.21-3.38-.16-5-1.83-7.63-.15-.24.13-.73,0-1-.81-2.13.5-5.12-2.55-6.38,0,0,.23-.67.29-1s0-.77.11-1.14c.5-2.41-4.14-.68-2.87-3.39,1.15-2.44-.89-2.91-2-4s-1.17-2.13-.9-3.93c.08-.48-.41-1.13-.78-1.58-.8-1-2.07-1.79-2.47-2.9-.71-2-.11-4.8-3.73-4-.18,0-.49-.8-.81-1.17-.76-.89-1.57-1.74-2.36-2.61-.61-2.77-2.88-2.3-4.82-2.47-2.32-3.09-3.4-3.49-6.53-2.37l-1.61.77h-.4l-.4,0c-.2-1.88-1.41-2.27-2.21-.76s-1.56,1.38-2.74,1.68a29.34,29.34,0,0,0-13.7,8l4.86-1.57.84,0-.84,0-4.86,1.57-5.56,8.15c-.56,1.09-1.11,2.19-1.66,3.28l-3.27,6.43c-1.09,3.9-2.29,7.78-3.22,11.72a62.42,62.42,0,0,0-.87,6.86,29.51,29.51,0,0,0-1,4.83c-.11,2.44.13,4.89.23,7.33a1.85,1.85,0,0,0,.14.77c-.46,6.25,1.12,12.5,0,18.78-.22,1.21.46,2.59.72,3.9,0,1.88,0,3.77,0,5.66.28,2.16.57,4.32.85,6.48,1.4,3.09,1.39,6.42,1.6,9.7.23.83.45,1.66.68,2.49,0,1.87.09,3.75.13,5.62,0,.8,0,1.61,0,2.41.43.16.88.29,1.32.45-.44-.16-.89-.29-1.32-.45.3,4.62.57,9.24.9,13.85.1,1.3.31,2.58.52,3.87a20.78,20.78,0,0,1,.59,3.25c0,1.65-.32,3.3-.49,4.94,0,7.31.25,14.62,0,21.91-.22,5.8-.16,11.67-1.94,17.35-.59,1.87-.31,4-.42,6l-2.37,13q-.78,2.82-1.57,5.63l-.18,2.38c-.51,1.91-1,3.82-1.52,5.73q-1.2,5.67-2.41,11.34l2.46-1.92-2.46,1.92q-4.08,9.3-8.15,18.58-2.42,3.66-4.82,7.31h0l-.8.82-3.31,2.39-5.6-.77L45,410.82c-1.31,1.35-1.22.35-1.33-.71a8.57,8.57,0,0,0-.76-2.1l-.78-.87-.9-2.33c-.4-.24-1-.38-1.16-.73-1.52-3-3-6-4.43-9.05-.35-.75-2.15-1.19-.5-2.42.17-.13-.24-1-.38-1.56l-2.32-5.79c-.28-1.05-.57-2.1-.85-3.16-.26-1.34-.51-2.69-.77-4l-1.58.74,1.58-.74-.14-3.19q-1.23-4.87-2.45-9.75c0-.27,0-.55,0-.82v-2.38c-1-4.73-1.95-9.47-3-14.19a24.84,24.84,0,0,0-1-2.85c-1.26-5.2-2.07-10.58-3.92-15.57-1.35-3.66.78-8.22-3-11.11-.06,0,0-.27,0-.37,1.47-2.51.07-5.18.46-7.75-.78-5.4-3-10.59-2.41-16.18a1.27,1.27,0,0,0-.09-.77l0-8.91c.23-1.23.56-2.45.67-3.7.16-1.73.17-3.48.24-5.23.6-3.63,2.37-7.2.55-11,2.07-3.3.83-7.17,1.84-10.67a11.45,11.45,0,0,0-.05-3.45c.05-.8.09-1.6.14-2.4.49-2.7,1-5.41,1.48-8.12,0-.55,0-1.1.05-1.66h0c0-.53,0-1.07,0-1.61h0a4.07,4.07,0,0,0,0-.78h0c.29-2.15.57-4.29.86-6.44-.65-6.07,2.8-11.88,1.13-18-.11-.42.24-1,.49-1.48a13.57,13.57,0,0,0,.78-11.26h0c2.9-1.23,1.74-3.61,1.59-5.69h0l2.4-14.58h0c.55-.81,1.72-1.8,1.55-2.4-.89-3.15.88-5.93.91-8.91.86-4.37,1.42-8.83,2.66-13.09,1.07-3.71,3-7.18,4.37-10.81.76-2,1.25-4,1.86-6l.86-3.2a13,13,0,0,0,1.6-2.14c.91-2,1.14-4.73,2.63-5.88,2.59-2,2.33-5.31,4.42-7.35a5.83,5.83,0,0,0-.63-.85c.28-.3.56-.59.83-.89s.55-.49.82-.74q2.07-3.61,4.12-7.24c1.59-2.17,3.19-4.34,4.78-6.52l.88-1.56h0c.27-.28.54-.55.8-.83h0l1.57-.08.82-.77h0C65.09,97,66.63,94,68.79,91.58l4.5-4.14a5.3,5.3,0,0,1,.75-.68c2.11-1.32,4.34-2.47,6.31-4,5.28-4,10.28-8.35,16.77-10.35a6.69,6.69,0,0,0,1.63-1.08,2.26,2.26,0,0,0,.78-.1l3.3-2.32L111.65,64l10.58-4.83c2.37-1.4,4.67-2.89,7.49-3.31.55-.08,1-.93,1.47-1.43h0l4.8-1.74c2.61-1.26,5.2-2.58,7.84-3.76,2.15-1,4.39-1.71,6.56-2.61,3.56-1.49,7.08-3.06,10.65-4.52a47.85,47.85,0,0,0,4.83-1.78c1-.53,1.63-1.69,2.42-2.57.94,2.53,2.44-.67,3.55.31,0,0,.38-.28.59-.44l6.49-1.71,9.71-3.94c4.44.18,9.17-1.83,13.18,1.87.34.32,2.42-.52,2.41-.65-.39-2.74,1.22-1.74,2.64-1.69.93,0,1.89-.74,2.84-1.15s2.23-.74,3.27-1.25c1.44-.71,3-2.44,4.18-2.18,2.81.62,4.39-1.13,6.38-2.19a5.51,5.51,0,0,0,.7,0c.23.31.5.92.7.9q6.4-.62,12.78-1.4c.14,0,.2-.72.3-1.1s.15-1,.23-1.44c-.08.48-.15,1-.23,1.44h1.52c.11,1.16.59,1.32,1.83,1.24a32,32,0,0,0,10.36-2.77l-.77-1,.77,1c.38.33.94,1,1.13.94,4.32-2.1,9-1.76,13.59-2.21a19.47,19.47,0,0,0,2.67-.3c3.59-.81,7.09-2.48,10.88-.82.37.16.93-.14,1.4-.22,3.07-.52,6.12-1.14,9.2-1.54s6.36-.49,9.52-.91c2.57-.35,5.09-1,7.64-1.5,4-.2,7.78,1.23,11.65,1.93,2,.36,4.42,1.1,6.07-1.14h0c1.85.51,3.69,1.83,5.57.07l-.73,2.19,2.39-.69v0l7.29-.8a6.89,6.89,0,0,0,2.11.73,17.29,17.29,0,0,1,8.13,1.86c1.85,1,7.13.4,9.43,1.35,2.91,1.21,5.14-1.29,7.61-.12a4.43,4.43,0,0,1,1.06,1l10.53.85,1.65.75h0c.57.4,1.13,1.12,1.72,1.14a42,42,0,0,0,4.74-.3l.79.06c.71,1.48,1.73,1.53,3.31,1.26,1.87-.32,3.87.18,5.81.15s3.88-.41,5.82-.37c.66,0,1.26,1,2,1.17.48.13,1.11-.38,1.68-.6h0c.47.25,1,.47,1.4.76,2,1.24,1.94,1.17,4.39.49a8.16,8.16,0,0,1,2.54.13,6.74,6.74,0,0,0,2.44.07c1.09-.37,2-1,2.28.8a1.29,1.29,0,0,0,.79,0c2.35-1,4.36,0,6.38,1,.23,1.49.69,2.28,2.61,2a17.45,17.45,0,0,1,5.73.46c3.18.61,6.33,1.11,9.48-.06,1.05.29,2.1.62,3.17.85s3-1.85,3,1.19a5.1,5.1,0,0,0,1.11-.06c3-.86,5.78.18,8.07,1.76,1.23.85,2.58.67,3.8,1.45s3.11-.07,4.72-.07a9.34,9.34,0,0,1,1.8.57,59,59,0,0,0,7.13,1.48c2.55.24,4.9.42,6.81,2.53.62.69,2.08.68,3.18.91,1.4.29,2.81.5,4.22.75,1.46,2.14-1.66,1.17-1.6,2.36l-.81,0-3.25.06,3.25-.06-3.28-.74-10.49-.08c-2.6-1.25-4.91.2-7.3.81h-.78a13.85,13.85,0,0,0-2.53-1.06c-1.62-.33-4.15.1-4.74-.81A2.77,2.77,0,0,0,456,41.63c-2,1.48-3.35,0-5-.28-.54-.36-1.06-1-1.64-1a47.67,47.67,0,0,0-6.65-.28c-.82,0-1.6.85-2.39,1.31h-1.44a23.4,23.4,0,0,0-11.42-.76h0c-1.78-2-2.71.37-4,.76a6.44,6.44,0,0,0-.34-1.07c-2.92.44-5.23-1.67-7.92-1.92-2.37-.22-4.76-2-7.2-.22-3.28-.34-6.59-.47-9.82-1.1a27.68,27.68,0,0,0-6.73-.75,14.29,14.29,0,0,1-2.53-.61,9.1,9.1,0,0,0-1.87.08l-.05,0c-1.13-.42-2.1-2-3.49-.66-1.21,1.14-2.12.64-3.26-.15a6.17,6.17,0,0,0-2.61-.78c-4.32-.57-8.65-1.13-13-1.58-1.72-.18-3.47,0-5.2-.06a22.71,22.71,0,0,0-3-.52c-2.06-.09-4.14.11-6.18-.06-2.55-.22-5.05.12-7.7-.37-3.62-.66-7.58.51-11.4.9-1.07-1.73-2.39-2.18-4.09-.79a3.49,3.49,0,0,0-.79,0,21,21,0,0,0-15.46,1.6c-1.63,0-3.26.08-4.89.1-3.81,0-7.93-.77-11.35.41a13.52,13.52,0,0,1-8.21.24,6.5,6.5,0,0,0-1.91-.36c-5.28.41-10.55.81-15.82,1.34-3.36.34-6.7.86-10.05,1.38-3.63.56-7.26,1.16-10.88,1.83-2.54.47-5.07,1-7.55,1.64-3.15.84-6.23,1.91-9.37,2.79-8.23,2.32-16.24,5.23-24.24,8.24-3.4,1.27-7.29,1.22-10.93,1.89-2.35.43-4.65,1.09-7,1.65l-2.43.75c0,.53,0,1.08-.05,1.62,0-.54,0-1.09.05-1.62a4.39,4.39,0,0,0-.81,0,27.09,27.09,0,0,0-10.52,3.23L171.63,60v0L170,60l-7.32,1.56h0l-3.2.88-7.26,1.61v0l-4.09,1.57-4.87,1.61c-1.18.47-2.33,1-3.53,1.38-2.75.91-5.54,1.73-8.29,2.65-1.47.49-2.9,1.11-4.35,1.67-4.21.19-6.4,3-8.12,6.34l-.8.11-1.55.86h0l-1.68,2.38-.85,1.54a12.42,12.42,0,0,0-4.81,12.22c-1.06,2.8-2.25,5.57-3.07,8.45-.13.44,1.45,1.37,2.23,2.07h0a38.21,38.21,0,0,0-.23,3.84c0,.34.72.64,1.11,1h0l1.63,1.66c-.87,2.25,1.9,1.71,2.38,3.11a21.84,21.84,0,0,0,2.43,4.15h0l0,0v0l2.38.87a10,10,0,0,0,1.06,2,24.67,24.67,0,0,0,8.69,6.06h0c2.7,1.58,5.34,3.3,8.13,4.71s5.55,2.49,8.38,3.62a16.09,16.09,0,0,0,2.79.6,10.06,10.06,0,0,0-.37,1.83c3.28,1.22,6.17,4.36,10.18,2.2h0c1.51,2.31,3.27,3,5.69,2.41h0c1.45,2.3,4,3.2,7.23,2.49h0l.35,1.36a18.42,18.42,0,0,1,2.18-1c.32-.1.75.16,1.13.25-.64,2,.6,1.24,1.67,1.32a14,14,0,0,1,5.63,1.17c2.76,1.52,6.12-1.11,8.54,1.54a2.09,2.09,0,0,0,.4-.55c.62-1.81,1.35.11,2-.07,1.71.07,4.54-.46,4.95.31,1.39,2.61,2.62.91,4,.44h0c.45,2.8,2.66,1.17,4.05,1.61l4,.88c.31.48.61,1.38,1,1.4,2.65.15,5.3.14,8,.17h2.45c5.19,3.34,11.22,1.67,16.79,2.79.06,0,.16-.19.24-.29,1.91.8,3.58,2.17,6,.74.94-.55,2.74.21,4.1.54.71.17,1.3.9,2,1,1.66.32,3.64,0,5,.75,2.28,1.34,4.25.44,6.37.08l.77.78h.85c2,2.17,2.13,2.17,4.06,0q.36,0,.72,0l1.05,2.11c1.38-1.95,2.44.57,3.71.27a6.29,6.29,0,0,1,4,.53c3.3,1.33,6.81,1.51,10.05-.56-.23,1.47.28,2.13,1.87,2.27a43.54,43.54,0,0,1,5.25,1c.95,2.41,2.81.51,4.2.81A100.44,100.44,0,0,0,307.77,171c1,.11,2.07-.55,3.11-.86,1.6.53,3.19,1.48,4.81,1.53,6.13.17,12.27.1,18.41,0a26.71,26.71,0,0,0,4.3-.75c0-.13-.14-.26-.2-.39.06.13.15.26.2.39,1.88,1.66,3.78-.3,5.67,0,7.83.5,15.55-1.85,23.4-.91.27,0,.59-.47.89-.71,4.59,1.83,9.25.43,13.7-.29,5.13-.84,10.28-1.41,15.42-2.1a4.82,4.82,0,0,0,1.71.28c4.85-1.16,9.67-2.38,14.5-3.59,3-.32,5.95-.59,8.9-1,.53-.08,1.39-.79,1.36-1.16-.12-1.81.05-2.09,1.74-1,.88.58,2.5.44,3.65.14,2.65-.71,5.22-1.73,7.82-2.62h0a4.33,4.33,0,0,0,1.65.31c2.38-.47,4.74-1,7.09-1.64.4-.11.66-.74,1-1.14l8.92-2.45c6.2-2.65,12.8-3.41,19.43-4l4.8-.82.87-.77,6.48-.81-1.62-.81c-1-.14-2.06-.26-3.09-.44,1,.18,2.06.3,3.09.44l1.62.81c3.8-.56,7.62-1,11.41-1.69,2.18-.37,4.3-1,6.45-1.52l1.57-.12,1.68-.68c3-.69,5.94-1.35,8.89-2.08,1.1-.28,2.15-.75,3.22-1.13a6.85,6.85,0,0,0,.79-.13H523l1.57-.76a2.53,2.53,0,0,0,.12-.77,31.39,31.39,0,0,0,4.25-.46c4.53-1.08,9.3-1.24,13.51-3.52l4-.92c1.08,0,2.15-.08,3.23-.08q6.06,0,12.12.13c2.43,1.91,5.32,1.52,8.12,1.59h.85c2.05,0,3.32,1.31,4.39,2.83,2.31,3.28,7.2,3.8,8.67,8,.1.27,1,.28,1.47.41,1.8,2.48,5,1.76,7.29,3.28a15.55,15.55,0,0,0,2.83,2.15c2.63,1.2,5.81,1.65,7.94,3.4,3.87,3.18,8.49,3.47,12.92,4.57,1.18.29,2.55-.23,3.83-.38.56.26,1.12.76,1.68.76,5.5,0,9.79-2.56,13.29-6.6.31-.35.3-1,.43-1.48a.5.5,0,0,0-.2-.08.5.5,0,0,1,.2.08,27,27,0,0,0,1.08-2.69c.27-1,.38-2,.56-3l.81-3.21c.26-.44.79-.92.72-1.29-.73-3.65-1.56-7.27-2.36-10.9a16.37,16.37,0,0,0-.91-2.8c-.28-.54-1-.87-1.48-1.29h0l-.07-3.16q-1.2-2.85-2.38-5.71a11.27,11.27,0,0,0-1-1.61c-1.43-1.69-3-3.31-4.38-5s-2.56-4.58-4.33-5.08c-2.33-.64-3.06-2.11-4.17-3.61-2.13-1.46-4.25-2.93-6.4-4.35-.37-.25-1.09-.6-1.26-.45-1.43,1.23-2.46.22-3-.77-1.54-3-4.13-3.85-7.13-4.15A62.12,62.12,0,0,0,595,88c-2.87-2.15-5.9-4.08-8.87-6.1a2.24,2.24,0,0,0-2.5-2.43c-1.07,0-2.13,0-3.19,0l.06,2.39-.06-2.39h0c.45-.89.86-1.77-.8-1.61h0l-.81-.82-.77-.07c-2.06-2.27-4.79-1.41-7.31-1.56l.3-2.15-3.51-.3c-.57-.26-1.18-.79-1.71-.72-1.94.25-3.61.41-4.08-2.2-.08-.42-1.51-.88-2.24-.78-.42.06-.7,1.2-1.08,1.92-2-3.88-4.13-5-8.93-5.12-.47,0-.94-.77-1.41-1.18,1-2.6-.82-2.88-2.6-3.22s-3.35-.74-5-1c-2-.29-4.09-.43-6.14-.63h0l-.81-.8h0l-.83-.76c-.25,0-.5,0-.75,0-1.73-.18-3.71.49-4.8-1.75-.15-.3-1.64,0-2.51.09,0,.25,0,.51-.05.76L519,54.36l.06-.06-.11,0,0,0c-3.2-.82-6.11-3.27-9.72-1.66-.45-2.31-2.28-2.27-4-2.38-1.53-.55-3.79-.56-2.46-3.27h0c1.34,2.61,2.7,1.21,4.07,0,5,2.18,10.16,3.83,15.76,3.25.39,0,1.1,0,1.15.1.82,2.52,3.11,1.11,4.63,1.74a19.61,19.61,0,0,0,5.2,1.39c1,.12,2.11-.51,3.18-.81h0l.83.78,5.64,1.65c.14,2.22,1.66,2.88,3.34,2.22a3.9,3.9,0,0,1,4.05.72A12.51,12.51,0,0,0,561.85,60c2,1.4,3.63,3.06,6.82,2.37,1.76-.39,4.2,1.79,6.18,3.06,1.49,1,2.73,2.17,4.7,1.19a2.32,2.32,0,0,1,1.54.2c2.47,1,4.93,2,7.39,3A3.92,3.92,0,0,0,591.57,73c1.86.59,3.59,1.59,5.4,2.32a26.93,26.93,0,0,0,2.95.85l5.67,4.07,8.87,8.16,4.86,2.42c2.93,2.17,5.89,4.32,8.79,6.54a5,5,0,0,1,.92,1.53c.14.59.09,1.49.46,1.72,1.39.88,2.93,1.56,4.41,2.31h0c.2,1.7.82,2.93,2.72,3.46a31.16,31.16,0,0,1,4.68,2.14c2.22,2,5.38,3.63,6.36,6.12.71,1.81,2.12,3.33,2.49,5.38.41,2.26,1.81,4.34,2.18,6.61.34,2,.58,4.6-.41,6.1C650.23,135.27,653.16,137,652.27,139.23ZM78,237.52l1.32,2.16a2.17,2.17,0,0,1,.62,1,1.75,1.75,0,0,0-.56-.82l-.06.11a3.84,3.84,0,0,0-.33-.28c.09.05.25.18.39.17C78.9,239,78.49,238.33,78,237.52Zm-.54,6a2.49,2.49,0,0,1-.17-.24h0A2.49,2.49,0,0,0,77.46,243.54Zm38.67-123.21c0,.09,0,.2-.07.24a.94.94,0,0,1-.23.1Zm-6-17.83c-1.29,0-2.08.38-1.88,1.28-.24-1,.63-1.39,1.86-1.68a5.77,5.77,0,0,0,.3-3.52,8.71,8.71,0,0,1,.08,3.69l0,0c-.12.08-.35.17-.34.24ZM633,129c0-.05.05-.11.07-.17L633,129l.09-.11c.2.64.36,1.3.62,1.93A18.27,18.27,0,0,0,633,129Zm1.26-2a.87.87,0,0,1,0,.51A.87.87,0,0,0,634.29,127Zm18.82,26.6c.32-.17.68-.33,1-.48v-.81c-.75-.17-1.3-.3-1.69-.43.39.13.94.26,1.69.43v.81C653.79,153.23,653.43,153.39,653.11,153.56Zm9.4,3.27.16-.11h0Z"/>
      <path class="cls-2" d="M314.94,494.57A18.1,18.1,0,0,0,313.1,492a1.93,1.93,0,0,0-1.7-.44c-2.1.93-4.13,2-6.18,3.05a14.25,14.25,0,0,1-2.1,1.51c-2.11,1-4.26,1.93-6.42,2.84-1.74.73-3.5,1.41-5.25,2.11l0,0,0,0a7.82,7.82,0,0,0-2.07-.78c-1.8-.17-3.45-.06-5.16-1.37-2.12-1.62-4.84-2.45-7.3-3.62.13-.65.59-1.52.33-1.89-1.84-2.68-1-5.67-1.21-8.53.59-4.69,1.86-9,6.23-11.7.88-.56,1.28-1.88,1.91-2.84,0-.29,0-.57,0-.85l1.13-.13-1.13.13c0,.28,0,.56,0,.85,3.21.37,6.36.92,8.89,3.19h.81c1.36.85,2.55,1,3.23-.82,1.6-1,2.76-2.37,2-4.39a40.45,40.45,0,0,0-2.23-4.88,6.82,6.82,0,0,0-1.43.37,4.11,4.11,0,0,0-.07-.78c-1.94-1.65-3.84-3.35-5.83-4.93-1.53-1.23-2.88-1-3.83.82l-2.42-.76c-3.14-2.08-5.79-1.41-6.46,1.63h0a2.23,2.23,0,0,0-3.25.78h0l-4.87,4.86-3.24,4-.92,1.6h0c-.49.82-1,1.64-1.49,2.46-.35,1.67-.31,3.57-1.13,5-2.05,3.48-.93,6.92-.45,10.4a3.65,3.65,0,0,0-.1.8c-1.36,3.95-.22,7.46,3.27,10.48a10,10,0,0,1,2.4,2.8c.55,1.07,3.13.35,2.18,2.57l1.92.28,6.49,3.33,0,0a10.49,10.49,0,0,1,2.74.69c4,2.18,8.55,1.88,12.88,2.51a33.31,33.31,0,0,0,4.58,0l0,0,0,0c3,.91,5.49-.82,8.07-1.72,1.15-.4,3.2-.13,3.31-2.28a9.9,9.9,0,0,1,4.2-2.53c2.17-.6,5.46-3.73,5.27-5.48C318.51,497.9,317.93,495.37,314.94,494.57Zm-47-23.43v0a1.68,1.68,0,0,1,.39,0A1.68,1.68,0,0,0,268,471.14Zm1.62-3.24h0l2.2.12Zm5.67-2.43c-1.35.52-2.7,1.71-4.05,0-.89,0-1.3.3-1.48.76.19-.49.61-.86,1.55-.93h0l0,.09,0,.08.15-.05c1.26,1.7,2.58.56,4-.12h0l-.06.17.06,0c0,.59.19,1.24.14,1.75C275.48,466.67,275.24,466,275.25,465.47ZM278,509a1.33,1.33,0,0,1-.21.09c.09-.11.19-.21.29-.31C278,508.89,278,509,278,509Z"/>
      <path class="cls-2" d="M445.26,470c.41-2.89-.55-4.91-3.19-6.14-.61-3.15-1-3.45-4.89-4-1.11-.72-2.21-1.46-3.34-2.15A17.53,17.53,0,0,0,422,454.94c-2.59.32-5.2-.23-7.47,1.56-1.43-1.47-1.82,0-2.46.85h0l-1.6.84h0l-5.63,3.26h0c-.56.25-1.17.78-1.68.7-6-1-6-1-8.92,4.11-1.09.82-1.06,1.64,0,2.47h0q-.36,4.85-.74,9.69c0,.53,0,1.05,0,1.58l0,2.48h0l.06,2.45h0c-.29,3.39-.66,6.76-.84,10.15-.27,5,1.12,9.91.73,14.91.27,1.61.54,3.22.82,4.83.35,2.48.66,5,1.11,7.42.06.32.83.52,1.28.78a5.65,5.65,0,0,0,.05.71c.27,1.08.53,2.16.8,3.25h0c.4,1.53.8,3.06,1.32,5,2.44-2.54,4.45-1.23,6.84,0a8,8,0,0,0,5.76.23,3.22,3.22,0,0,0,1.46-4.43c0-.24.05-.48.07-.72l1.09-.38-1.09-1.38h0c-.43-3.42-.76-6.86-1.35-10.25-.21-1.23-1.21-2.31-1.54-3.54a12.46,12.46,0,0,1-.49-4.36c.16-1.56-.64-3.67,1.71-4.43,1.24.26,1.52,3.71,3.69,1.09.13-.15,1.09.48,1.69.58a7.76,7.76,0,0,0,2.1.08c1.08-.1,2.15-.32,3.23-.47a8,8,0,0,0,2.59-.36c1.85-1,3.56-2.22,5.33-3.35l-4.07,0,4.07,0,4.06-4h0a4.22,4.22,0,0,0,.79-.14l.86-.74,2.4-2.37c2.51-2.9,5.57-5.48,5.66-9.78l1.56-7.3a1.47,1.47,0,0,0,0-.78A39.61,39.61,0,0,1,445.26,470Zm-51.78,12.52h0a2.5,2.5,0,0,0,1.22-.6A2.5,2.5,0,0,1,393.48,482.49Zm36.46-8.11c-.3,1.88-.6,3.75-.91,5.63h0l-5.64,6.51L421,488.94h0c-1.26.36-2.87.35-3.72,1.15-2.79,2.6-5.5,2.05-8.39.44.15-2.25.35-4.5.43-6.75a9.11,9.11,0,0,0-.45-2.13c2.15-3.47,4.11-7.09,7.71-9.4.4-.25.34-1.22.49-1.85l.69,0,4.87-2.41C427.7,466.42,430.53,468.91,429.94,474.38Zm.21,16.69.16-.11h0Zm5.4.3-1.86,1.23,1.86-1.23h0Zm2.26-15.45.17.13c-.13,1.19.18,2,1.07,2.31C438.14,478,437.79,477.2,437.81,475.92Zm3.4-11.26h0l.82.81Z"/>
      <path class="cls-2" d="M379.77,497.74c0-1.64.77-3.42-.91-4.74l0-3.25-.78-3.26-.87-8.08-.71-2.39c3.66-4.26-.71-8.19-.61-12.31,0,0-1.7.14-2.23-.27a43.69,43.69,0,0,1-3.75-3.59c-.69-1.28-1.28-2.75-3.21-1.66-3.73,1.41-6.29,3.63-5.62,8.09,0,3.82.38,7.7-.18,11.43-.68,4.47-1.2,9.23-5.14,12.47-1.27,1.05-2.36,2.33-3.71,3.25-3,2.08-6.14,4-9.18,6-.93.62-1.31.61-2.27-.25-1.77-1.59-3.29-3.32-3.4-5.64-.12-2.78-1.46-4.89-2.88-7.05-.53-2.15-1.06-4.31-1.6-6.46,0-2.56.13-5.13-.1-7.66-.09-1-1-1.93-1.5-2.89-.19-3.71-.67-4.4-3.68-4.79a31.5,31.5,0,0,0-3.64-.07l-3.25,0L319,467.12c-.27,2.15-.53,4.3-.8,6.45l3.19,1.59-3.19-1.59c0,1.07,0,2.14,0,3.21l.75,4.87a4.17,4.17,0,0,0,.71.07,17.28,17.28,0,0,0-.57,2.62c-.32,4.31,2,8,3.07,11.92,0,1.65.21,3.17,2.37,3.24.53,1,.81,2.44,1.65,3a64.31,64.31,0,0,0,6.53,3.43c3.63,2.17,7,4.82,11.33,5.64a7.94,7.94,0,0,0,2.36.37c.86-.14,1.79-1.17,2.44-1,4.36,1.32,6.53-1.69,9-4.24.26,0,.53,0,.8,0l.77-.07,5.71-4-.81-1.6.81,1.6c3.68-1,6.05,2.18,9.18,3,3.9,1.08,5.65,1,6.91-3a2.42,2.42,0,0,0,.18-.75C382.61,499.3,382.46,498.9,379.77,497.74ZM319,476.8l1.61-1.6C320.34,477.08,320.13,477.28,319,476.8Zm4.1,17a6.35,6.35,0,0,0,1.41-.85h0l.06,0-.06,0,.1.11Zm1.27-3.29c.12-.18.24-.41.36-.63-.12.22-.24.45-.36.63.28.1.57.25.86.36C324.89,490.73,324.6,490.58,324.32,490.48Zm1.11-21h-.69c0-.78,0-1.56-.05-2.34C325.94,467.58,326.09,468.39,325.43,469.46Zm2.43,13-.38-.37.38.37Zm33.21,17.82h0l1.21.4Zm9.3-35.22h0l.07.1Z"/>
      <path class="cls-2" d="M303.06,401.46c-.24-3-1.82-5.8-.76-9,.2-.59-.72-1.55-1.12-2.34,0-2.13,0-4.26,0-6.39.17-.44.56-.93.48-1.33-.51-2.54-1.33-5-1.66-7.6-.38-2.94-.35-5.94-.5-8.91l-.78-.79.78.79a1.91,1.91,0,0,0,0-.79c0-3,.15-6.07,0-9.1a33.12,33.12,0,0,0-.82-4.67c0-.27,0-.54,0-.81h0c-.43-2.83,1.67-6-1.17-8.5-.06-.06,0-.25,0-.37-.2-2.06-.44-4.11-.6-6.17s-.17-3.89-.33-5.82c-.33-3.86-.72-7.71-1.09-11.56a3.94,3.94,0,0,0-.05-.76l0-4.87-.66-9.73a5.18,5.18,0,0,0-.09-.78l0-7.29c1.77-1.56-.71-2.11-.77-3.23v-2.42h0c.27-.55.8-1.12.75-1.65-.19-2.43-.55-4.85-.84-7.28q0-3.63.1-7.24c1.68-3.55-.39-7.15.11-10.72,0-.18-.58-.46-.89-.69-.09,1.14.18,2.52-1.66,2.49-.06,1.29.28,2.79-.27,3.82.55-1,.21-2.53.1-3.89h0l.17.07,0-.08c1.84,0,1.6-1.3,1.69-2.41l.78-13.71h0l0-7.28h0c0-1.08,0-2.16,0-3.24-.25-.81-.51-1.62-.76-2.43h0c.59-1.35,1.55-2.7,0-4.06h0c-.28-1.08-.55-2.16-.83-3.23h0c0-1.06-.35-2.27.05-3.15,1.72-3.78-1.22-7.35-.29-11.17a3.17,3.17,0,0,0-3-3.57c.64-4.74-2.24-8-5.42-10.43-2.57-2-5.61-3.88-9.19-4-2.44-1.9-6.44-1.92-9.75,0h0l-.78,0-.8-.07a53.44,53.44,0,0,0-6.77-1.29c-1.07-.07-2.64-.13-3.21,1.63-.15.48-1.53,1-2.17.82-1.67-.45-1.9.86-2.12,1.7-.15.57.61,1.35.89,2.07a2.12,2.12,0,0,1,.18,1.27c-.09.38-.8.86-.73,1a11.26,11.26,0,0,0,2.38,3.07c.51.36,1.73-.27,2.62-.45,2.67.77,5,2,8.2,1.62,2.56-.31,5.37-1,8.13-.51.43.08,1-.67,1.52-1l2.4,4.78,1.65,4.06c.49.55,1,1.1,1.46,1.66-1,1.41,0,2.26.9,3.14-.36.12-1,.18-1,.36-.52,2.68-.6,5.44.86,7.8.75,1.22,1,2.08.2,3.2-1.21,1.06-1.16,2.16-.1,3.28l.1,24.24c0,2.79-.48,5.72.21,8.33.48,1.83.41,3.65.81,5.44.47,2.12-1.2,4.26-2.92,3.49-2-.9-3.25.09-4.84.5-2.05.54-4.14,1-6.22.07l0,0-.07-.07,0,.09-3.16,1.5c.25-.5.49-1,.73-1.52a4.69,4.69,0,0,0-7.05.59c-.54.62-.37,1.72-1.78,1.26-.3-.1-1.44,1-1.41,1.48a4,4,0,0,0,1.17,2.56c.61.51,1.7.44,2.59.62,0,1.34-.23,2.92,1.87,1.23.23-.19.93.22,1.41.34a11.06,11.06,0,0,0,2.91,1.58,39.45,39.45,0,0,0,13,.42c2.58-.35,2.91,1.17,3.1,2.56a50.31,50.31,0,0,1,.67,10c-.28,4.42,1.32,8.82,0,13.23,0,.13.31.38.48.57,0,.81.08,1.62.11,2.43-.38,3.22,1.62,6.43,0,9.67-.07.15.43.58.66.87h0c.15,4.11.08,8.24.5,12.31a76.73,76.73,0,0,0,1.92,8.77c0,.52.07,1,.11,1.55,0,.26,0,.53,0,.8l0,.81h0l.81,10.53h0c-1.21,1.34-3.12,2.11-4.36,1.2-3-2.23-6.32-.66-9.41-1.23-.42-.26-.95-.83-1.25-.73-2.3.74-5,1.15-6.63,2.65-.76.7-3.48,2.22-1.87,4.58.2,1.42,3.37,1.3,1.87,3.6l1.13.65c1.84-3.06,4.5-.72,6.74-1.05l0,0,0,0c.17.2.36.57.5.55,2.74-.38,5.16-.11,6.82,2.55.21.35,1.33.18,2,.17,1.4,0,2.79-.15,4.19-.16,2.77,0,0,2.93,1.82,3.42a2.49,2.49,0,0,0,0,.77h0l.8,8.1,1.16.11-1.16-.11c-.67,3-1.6,5.92,0,8.89,0,.25,0,.51,0,.77-1.17,2.37.76,4.32.87,6.52l-.07,1.55.06.87h0v4.05c.54,6.48-1.16,12.95,0,19.43l-1.57,3.21h0c-.59,3.23-3.17.3-4.44,1.44-4-3-8.43.53-12.53-.88-.12,0-.53.79-.81,1.22-.12.66-.18,1.33-.36,2-1.06,3.9-1.06,3.88,2.38,6.56.34.27.23,1.07.55,1.44s1.23,1.16,1.5,1c2.13-1.07,3.48.72,5.18,1.18a5.62,5.62,0,0,0,2-.18l0,0c1.65-.12,3.31-.18,5-.38,3-.36,6.31.47,8.82-2.06,5.86-.95,9.12-4,8.91-8.2a19.54,19.54,0,0,1,.11-5.41c1-4.09.4-8.2.61-12.29,0-.27.06-.54.08-.81s.05-.61.07-.92a1.26,1.26,0,0,0-.1-.69l0-.85,0,0C303.88,408.53,303.36,405,303.06,401.46ZM255,201.64c-.45-.19-.77-.33-1-.44.21.11.53.25,1,.44Zm1.93,79.95a.63.63,0,0,1-.23.12l.3-.36C257,281.44,257,281.55,256.93,281.59ZM286,334.89h0l.27-.26Zm.63,56.1v0l.9.13Zm-7.73,52.25c.08,0,.2,0,.24.07a1.13,1.13,0,0,1,.11.22Zm11.32-228-.39.18h0Zm-2,90.82Zm2.11-78.36a20.05,20.05,0,0,0-2.92-.14h3.24l1.64,0h0a5.79,5.79,0,0,0-1.71.19l.07-.17A1.15,1.15,0,0,0,290.31,227.68Zm2.75,43.56-1.06-1,1.06,1Zm1.82,147.66h0l.24-.21Zm.77-23.77-.16-.07.16.07Zm.06,13.95h0l.28-.17Zm-.06-13.95-.14-.13c.26-.79.52-1.58.79-2.36A12.83,12.83,0,0,0,295.65,395.13Zm4.69,4v0l.57.37Z"/>
      <path class="cls-2" d="M442.54,214.2a5.83,5.83,0,0,0-1.71-4.44c-1.68-1.28-4-1.69-6.08-2.47-.07-1.78-.94-2.58-2.74-3.09a31.11,31.11,0,0,0-8.53-1.44c-2.48,0-5-1-7.35.49-2.35-1.58-4.74.86-7.12-.11a2.08,2.08,0,0,0-2.72.75c-.58.7-2.05.68-3.12,1-1.33-.12-3.08-.82-3.9-.23-1.86,1.32-4,3.07-4.58,5.07-.43,1.46,1,4.14,2.42,5.24,1.15.89,3.68,1.91,5.25-.4l.82,0,.4.07.4,0,.4,0,.4,0c.56,1.07.92,2.76,2.42.82,1.43.05,2.87.07,4.29.18.4,0,5.1,1,5.14.82.72-2.28,2.9-1,4.25-1.77.82.22,1.9.89,2.4.59,1.83-1.11,2.87.19,4.12,1q-.76,5.26-1.55,10.53h0l0,.81c0,.26,0,.51,0,.77a11.71,11.71,0,0,0,3.48,1.27l-.06,0,.11.2a8.64,8.64,0,0,0-1.49,7.18,8.85,8.85,0,0,1,1.21-7l-3.25-1.64a27.13,27.13,0,0,0-.54,8.06c.31,4.57-.15,9.19-.28,13.8h0q-.4,3.65-.83,7.29c-.05,1.58-.05,3.17-.16,4.74a7.66,7.66,0,0,1-.56,1.74c-1.43,1.34-1.06,2.12.76,2.44a5.78,5.78,0,0,0,.72,0c-.88,1.08-2.33,2.06-2.53,3.25a76.63,76.63,0,0,0-.58,8.86l-.88,1.53c-.93,0-1.86.06-2.8.06s-1.88,0-2.82,0c-.95-1.83-2.38-1.75-4.07-1.15-1.48.52-3.06.74-4.54,1.24-3.24,1.07-6.72,1.16-9.87,2.49-.45.2-.64,1-.95,1.52-.48.94-1.6,2.33-1.32,2.75a28.56,28.56,0,0,0,4.14,4.39c.11.11.82-.42,1.25-.66,1.5.08,3,.08,4.51.24,2.43.25,4.9,1.06,7-.94.17-.16.74.17,1.13.16,1.71,0,3.43-.13,5.15-.19.46.17,1.13.2,1.37.53,1.55,2.2.95,4.68.25,6.85-1.35,4.19-2.24,8.36-1.65,12.76l-1.68,11.27-1.53,7.34c0,.27-.05.54-.07.81a2.05,2.05,0,0,0-.08,3.33c-.52,2.66-1,5.31-1.55,8-.25,1.09-.5,2.18-.74,3.27,0,.51-.07,1-.1,1.55l-.72,3.3-.84,9.71c-.57,3.24-1,6.52-1.77,9.7-.33,1.32-1.06,2.62-3.08,1-1.13-.89-3.15-1.72-4.83-.22-.33-.42-.6-1.13-1-1.21a17.09,17.09,0,0,0-10.22,1.16c-.16.06-.16.49-.24.75-1.14-.53-2.13-1.89-3,.7a8.09,8.09,0,0,0-.21,4.26c-.2,1.51.15,1.89,2.32,2.51,1,1.49,2,2.51,4,1.18.84-.56,2.23-.31,3.37-.42,2.18,2.55,5.15,3.15,8.29,3.39,1.16.09,2.87-.05,3.35.63.67.93.59,2.53.52,3.83a33.25,33.25,0,0,1-.81,4.28c0,.28,0,.55,0,.82h0c-.55,2.69-1.09,5.38-1.64,8.06-.26,1.26-.6,2.51-.77,3.79-.56,4.22-1,8.45-1.58,12.68s-1.06,8.45-1.6,12.67l-.09.81h-3.19c-1-.19-2.26-.85-2.81-.46-1.38,1-2.24.89-3.34-.3-.29-.32-1.17-.14-1.77-.12-1.69,0-3.38.09-5.06.14-4.58-.51-8.49.8-9.64,6.38.68,5.31,2.09,6.42,7.25,5.72.26,0,.53,0,.8,0,1.3.67,3.19-.15,4.05,1.61l0,0,.08.07,0-.08c2.76-.41,5.44-1.75,8.34-.38.68.32,1.73-.17,2.61-.27,2.81-.31,5.6-2,8.45-.16,2.41,2.8,3.93,2.91,6.18.38a38.84,38.84,0,0,0,3-3.66c.23-.32-.16-1.06-.26-1.61,1.4-3.58-.34-7.75,2.13-11.16.19-.25-.13-1-.43-1.44-1.22-1.59-.47-3,.31-4.41s1.7-3.09.43-4.82c0-.51,0-1,0-1.55a2.22,2.22,0,0,1,0-.38,2.22,2.22,0,0,0,0,.38,8.24,8.24,0,0,0,.75-1.74c.77-4.16,1.27-8.37,2.26-12.47.86-3.61.34-7.43,2.28-10.92.83-1.5.29-3.77.37-5.69,0-1.59,0-3.18,0-4.77,1.7-4.06.33-8.12,0-12.18,1.38-2,1.53-4.19,1.57-6.46a13.46,13.46,0,0,0,.74-2.5c.35-3.22.59-6.45.88-9.68,0-.28,0-.57,0-.85,0-1.59,0-3.17,0-4.76.26-.54.52-1.09.77-1.63h0q1.62-9.74,3.25-19.47a4,4,0,0,0,0-.69c.24-.85.49-1.7.74-2.55.14-2,.16-3.95.43-5.9.74-5.45.63-11,2.45-16.34.45-1.31-.2-3-.35-4.51,2.63-4.25,2.43-9,2.32-13.71h0c.29-1.09.59-2.18.88-3.27a11,11,0,0,1,0-3.19,38.56,38.56,0,0,0,1.51-15.39c.11-2.43,1.7-4.85,0-7.29.17-2,.33-3.9.51-5.84C441,232.15,441.9,223.18,442.54,214.2Zm-35.7.83c.07,0,.18,0,.22.07a.81.81,0,0,1,.1.21Zm.74,162.46,0-.05a2,2,0,0,1-.23.18c-2.1-1.29-1.74.37-1.95,1.22.21-.88-.21-2.68,1.83-1.58l1-1.41A2.88,2.88,0,0,0,407.58,377.49Zm.44,48.33-3.13,5.12c1.07-1.76,2.1-3.44,3-5.19h0l.16.07c0-.05,0-.11,0-.16a12,12,0,0,0,1.67-1.46Zm3.24-17h.23c.17,0,.36,0,.6.05h0A5.28,5.28,0,0,0,411.26,408.82Zm2-63.55h0l.11.16Zm1.09,22.56c-.1-.21-.16-.37-.25-.39.11,0,.17.27.37.35Zm4.18-.29.81-1.61a5.82,5.82,0,0,1-1-1.11,5.82,5.82,0,0,0,1,1.11l-.81,1.61h0Zm-1.62,0h0l-.81-.81Zm-.81,14.56h0l2.46,1.15Zm2.5,20.07h0l0,.05-.05.12.06,0c-.06,1.27-.06,2.41-.06,4v-4l-1.78.7a11.68,11.68,0,0,0,1.85-.87Zm-2.88-31.9,3.59.67.19.08,0,0C417.79,370.66,416.77,370.47,415.74,370.28Zm4.83-71.11-.16.12.16-.12Zm0,.81.26-.24c-.08-.16-.15-.32-.23-.49.08.17.15.33.23.49Zm-2-16.6c-.29.73-1,1.82-.78,2.14-.25-.32.49-1.41.61-2.21l.17.07v0c1.3.34,2.41.54,2.54-.65C421,283.94,419.78,283.69,418.55,283.38Zm9.36-33.53c0,.11.08.24.11.35,0-.11-.08-.24-.11-.35l-.4.27Zm-.47,1h0c.15-.09.36-.14.49-.24C427.8,250.72,427.59,250.77,427.44,250.86Zm.43,26.44h0c.06-.06.17-.13.22-.18S427.93,277.24,427.87,277.3ZM429.49,321l-.07.05.07-.05Zm3.43-38.69c.07-1.11-.34-1.4-1.9.05l.13-.43c.09-.32.18-.67.27-1a4,4,0,0,0,.08-.65c.07-.27.14-.53.19-.78A2.84,2.84,0,0,1,432.92,282.32Zm4.24-9.47-1.43-.65,1.43.65c0-.46,0-.92,0-1.38C437.18,271.93,437.16,272.39,437.16,272.85Z"/>
    </g>
  </g>
</svg>