<svg xmlns="http://www.w3.org/2000/svg" viewBox="0 0 575.74 119.11"><defs><style>.cls-1{fill:#d8add1;}</style></defs><g id="Layer_2" data-name="Layer 2"><g id="flip"><path class="cls-1" d="M575.74,74.74h0c-.2-.66-.41-1.32-.62-2h0l-2-2.59c-2-4.24-5.78-6.73-9.85-8.08-4.74-1.56-9.85-2-14.8-3L542,58.57a3.08,3.08,0,0,0-.61-.07l-2.62-.6.65,1.27h0l-.65-1.27a1.91,1.91,0,0,0-.63,0c-.35.38-.74,1-1.07,1.29.33-.27.72-.91,1.07-1.29l-12.38-.08-1.28-.59h0a1.69,1.69,0,0,0-.63-.06l-8.44-1.3h-.69a1.78,1.78,0,0,0-.61.05c-.22.64-.44,1.27-.65,1.91v.24a.91.91,0,0,0-.22-.42h0l.22.18a1.46,1.46,0,0,0,0-.3,1,1,0,0,1,0-.1,5.13,5.13,0,0,0,.71-1.51l-28.56-.71,2.76,1.47-2.76-1.47-18.15-.57h-2.66c-9.58-.44-19.16-1-28.75-1.27-7.88-.23-15.78,0-23.66-.25-7.15-.25-14.28-1-21.42-1.41-3.06-.15-6.14.16-9.21.26l-24-1.89c-9.21-.61-18.43-1.25-27.65-1.82-1.89-.11-3.8.18-5.68,0-6.21-.46-12.41-1-18.61-1.56l-10.36.08-2.58-.09h0a4.64,4.64,0,0,0-1.44-.52c-3.67,0-7.35.08-11,0-8.62-.19-17.24-.47-25.86-.72h0l-18.18.63c-1-.4-2.72-.72-2.78-1.23-.94-8.09-1.57-16.21-2.54-24.29-.15-1.32-1.57-2.49-2.4-3.73-2.75-3.31-5.65-6.05-10.39-6.6C211.72,9.56,205.38,8,199,7a41,41,0,0,0-7-.11C185.69,7,179.8,3,173.33,5.16a2.25,2.25,0,0,1-1-.08c-3-.47-6-1.07-9-1.4-4.76-.52-9.75-.16-14.28-1.46-5.08-1.46-10.06-.52-15-.88-5.77-.42-11.63.43-17.45.53-3.38,0-6.76-.31-10.14-.48L96.74.79C93.49.59,90.24.3,87,.2,82.46.05,77.93,0,73.41,0,67.65.08,61.89.28,56.14.49c-1.84.07-3.66.47-5.5.59-2.53.18-5.14-.1-7.59.42C38,2.58,33,4.06,27.93,5.37l-5.15,5.16c-.72,1.81-1.47,3.61-2.16,5.43-1,2.72-2,5.45-3.06,8.17l.72.5-.72-.5q-1.95,7.14-3.89,14.28a2.48,2.48,0,0,0-.07.61h0L13,40.37c-.7,2-1.47,4-2.07,6.05-1.11,3.8-2.12,7.63-3.16,11.45q-1.27,3.9-2.54,7.8-2,9.39-3.92,18.8l-.69,2.6h0C.45,89,.22,91,0,92.91c.08,2.49,0,5,.28,7.48s2.41,3.89,3.68,5.78c2.78,4.13,6.57,6.35,10.85,8.21h0c.53.45,1,1.11,1.61,1.31A63.83,63.83,0,0,0,40.14,119c2.44-.17,4.87-.5,7.3-.76l-4.59-1.32,4.59,1.32h8.39a9,9,0,0,0,2.13.46c3.54-.09,7.09-.41,10.63-.38,3.93,0,7.86.56,11.78.47a82.34,82.34,0,0,0,9.2-1.17c2.59,0,5.18.11,7.76,0,5.85-.17,11.74-1,17.53-.49a111.93,111.93,0,0,0,23.08-.25c4.85-.61,9.63-1.78,14.47-2.46a58.5,58.5,0,0,1,7.26-.15h0c1.68,0,3.36.06,5-.06,5.22-.37,10.44-.71,15.65-1.25s10.46-1.3,15.69-2c4.47-.31,8.95-.61,13.42-1,.31,0,.58-.58.87-.89,8.82.81,13.32-2.48,16.9-11,1.19-2.85,1.42-6.11,2.09-9.17h0c-.05-.21-.09-.41-.13-.61a3.88,3.88,0,0,0,0-.59v0q1.31-4.86,2.6-9.74l7.11.6c1.37.21,2.74.53,4.12.61,2.08.12,4.17.07,6.25.09h0l24,2.59,3.2,0v0c1.35.21,2.7.5,4.06.61q15.51,1.33,31,2.61l12.36,1.92,1.91,0a5,5,0,0,0,1.45.57c6.24.26,12.47.47,18.71.7l3.17.06,4.62,0h0l7.76.66h0l3.28,0h.29l.28,0,13.71,1.18,15.61,1.36,2.56,0,.3,0h.3a6.34,6.34,0,0,0,1.77.55c6.13,0,12.26,0,18.39,0h0l1.3,0,31.16.65h.65l29.19,1.26H481c1.9,0,3.81.07,5.71.08h10.56c4.28.18,8.55.42,12.82.5a37.15,37.15,0,0,0,4.67-.48h0l4.52,0c1.89.16,3.78.48,5.67.46,4.68,0,9.36-.11,14-.4,5.59-.35,11.15-.94,16.73-1.43l8.39-1.34,3.86-1.24h0l.7,0h0l.66-.64,3.22-2h0l.65-.65,2.57-4.54c0-.44,0-.87,0-1.3ZM107.1,54.63c-.26,0-.57,0-.85,0,.28,0,.59,0,.85,0Zm9.33-.35c-.09-.16-.18-.33-.28-.49h0l.27.49Zm-2.18,2.29,1.79.09-1.79-.09Zm27.9-18.16c-.21-.65-.43-1.31-.65-2h0C141.72,37.1,141.94,37.76,142.15,38.41Zm-6.65-.35c.26.53.54,1.06.81,1.6C136,39.12,135.76,38.59,135.5,38.06Zm4.06,1h0l2.05,1.81Zm.64-3.25h0l.64.32Zm-5.84,0h0l3.9,0Zm17.53-13.67.37-.37h0Zm.66-.64,1-.29-1,.29Zm-50.64,3.89-.64-.65a2.72,2.72,0,0,0-1.13-.43,2.72,2.72,0,0,1,1.13.43Zm-3.86.68h0L92.64,26ZM72.14,25c.12.38.21.77.33,1.14l-.53.17.53-.17C72.35,25.77,72.26,25.38,72.14,25ZM53.89,28.07h0c4.22-1.43,8.51-1,12.87-.79,8,.39,16.07.51,24.11.44,2.4,0,4.78-1,7.18-1.61v0h0l2.63.64c4.38,0,8.77,0,13.15-.07,5.55-.14,11.09-.4,16.64-.6h0l5.85.61,7.32.31,8.9.38.67,0h0L157,29.34l-7.77,2.55H148l-4.55,1.28h0l-10.36,2.61-6.49.06-19.44,1.9c-.15.35-.27.73-.42,1.09.15-.36.27-.74.42-1.09-5.37,0-10.77.34-16.1-.1-8.17-.68-16.33-1.64-24.41-3-5.82-1-11.52-2.71-17.27-4.1C49.62,27.46,52.69,29.45,53.89,28.07ZM43.06,59.46c5.47-1.67,10.51-4.35,16.74-3.72,8.6.87,17.33.52,26,.67A3.78,3.78,0,0,0,87,55.94h0c6.07.41,12.14.86,18.22,1.21,8.68.5,17.36,1,26,1.35,2.1.09,4.23-.38,6.33-.26,2.63.14,5.24.62,7.85,1,4.79.62,9.57,1.23,14.35,1.9a5.91,5.91,0,0,1,1.56.76c-.43.43-.78,1-1.29,1.26-2.26.93-4.58,1.73-6.87,2.58a2.42,2.42,0,0,0-.4.86,2.35,2.35,0,0,1,.4-.86L148,67.59l-1.29,0-5.84,3.2h0l5.84-3.2-9.1,1.89,3.26,1.31h0l-3.26-1.31-5.83.67-13.64,0-.37,1.22.37-1.22a1.47,1.47,0,0,0-.55-.08l-1.41,0v0h0L93.49,69.5c-7.69-.41-15.39-.68-23.06-1.28-5.52-.44-11-1.32-16.52-2A8.61,8.61,0,0,0,52.1,65.1c-3-.95-6-1.75-9-2.73-.6-.2-1.4-.94-1.4-1.44S42.48,59.64,43.06,59.46ZM155.78,70.92c.27-.66.49-1.36.78-2h0c-.29.65-.51,1.35-.78,2a5.6,5.6,0,0,1-1,1.78A5.6,5.6,0,0,0,155.78,70.92Zm-55.12,19.2-.14,0h0ZM121.4,76.69l-4.56.64-2-.65-.64-.64.64.64,2,.65,4.56-.64h0Zm14.91,13v0Zm0,0,1-.75-1,.75ZM16.24,51.39l1.29-5.84h0l-1.29,5.84-.65,3.24C15.8,53.55,16,52.47,16.24,51.39Zm-2.95,3.23h0ZM18.84,25l-.2-.15Zm-13,63.34c.42,1.94.86,3.87,1.28,5.82-.42-2-.86-3.88-1.28-5.82ZM66.21,115l1.62.85L66.21,115h0Zm0-2,1.94,1.3L66.22,113h-2l-1.94.65h0l1.94-.65Zm-5,4h0Zm1.46-.42a.94.94,0,0,0,.23-.43A.94.94,0,0,1,62.67,116.57ZM87.56,99c-5.9,0-11.79-1.35-17.7-1.56-7.31-.26-14.64.26-22,0-4.07-.15-8.1-1.23-12.14-1.89h0c0-.83-.19-2.23.17-2.41,2.63-1.28,5.39-2.3,8.09-3.45a20.94,20.94,0,0,0,2.09-1.21h0c.4.34.78.94,1.2,1,3.11.23,6.22.36,9.33.5,3.41.15,6.81.27,10.22.41l13,1.31c2.64.2,5.42,1,7.89.47,5.87-1.31,11.65-.81,17.53-.51,6.66.34,13.36.05,20,0h3.91l7.14,0h0a27.09,27.09,0,0,1,4.83-.23c4.1.53,8.17,1.29,12.25,2v1.12l-7.39,1.74-14.93.65-15.58,1.31C106.22,98.42,96.89,99,87.56,99ZM159,95.51h0l.83,1.48ZM314,81.92l-.06.15Zm.17-.55a1.34,1.34,0,0,0,.11-.14h.55a1,1,0,0,0-.65.15h0Zm.66-.79h0v0ZM235,53.35l-1-.84,1,.84,1.94,0Zm2.6-1.32-.5-1,.5,1,.3,1.23Zm1.3,0h3.9a6.38,6.38,0,0,1,.68-1.05,1.36,1.36,0,0,1,.29-.26,1.36,1.36,0,0,0-.29.26,6.38,6.38,0,0,0-.68,1.05Zm72,27.25h1.3l2-.65h0l-2,.65Zm91,9.35c.16-.08.31-.16.47-.26C402.19,88.47,402,88.55,401.88,88.63Zm.69-.4a4.35,4.35,0,0,1,.7-.38,1.62,1.62,0,0,1,.46-.14h0a1.62,1.62,0,0,0-.46.14A4.35,4.35,0,0,0,402.57,88.23Zm173.15-9.58V78c0,.23,0,.46,0,.68l-.63,1.93ZM489.4,85.78c0-.28,0-.57,0-.85,0,.28,0,.57,0,.85A2.25,2.25,0,0,0,491,87.13a2.77,2.77,0,0,0,.91,0,2.77,2.77,0,0,1-.91,0A2.25,2.25,0,0,1,489.4,85.78ZM511.48,71.5l.16.32-.16-.32Zm23.36,18.16h0l-1.29-2.59c.22-.65.44-1.3.65-1.95a2.89,2.89,0,0,1,.51-.49,2.89,2.89,0,0,0-.51.49c-.21.65-.43,1.3-.65,1.95Zm-6.49-5.18h0c.22-.44.44-.87.65-1.31C528.79,83.61,528.57,84,528.35,84.48ZM500.41,72.76h0Zm3.1-1.22a2,2,0,0,0,.41-.25A2,2,0,0,1,503.51,71.54Zm-.15,8.38c.53-.41,1-1.33,1.6-1.31h0l-.79-2,.79,2h0c-.63,0-1.07.9-1.6,1.31a.88.88,0,0,1-.38.18A.88.88,0,0,0,503.36,79.92Zm.29-4.61c.15.36.28.7.41,1C503.93,76,503.8,75.67,503.65,75.31Zm-2.56,4-.65-.62.65.62,1.11-.73Zm-3.24-4.52h0Zm1.95,3.9Zm6.46,1.26-.62-1.26.62,1.26.06-.6h0c.37-.67.71-1.36,1.1-2-.39.66-.73,1.35-1.1,2l-.06.6.68,1.32h0Zm5.86-7.1ZM518,76l-1.91,1.27.62,0h7.79l-2-1.32-2.57,0h0a15.45,15.45,0,0,1-1.5-.86,15.45,15.45,0,0,0,1.5.86l2.57,0h0l2,1.32h-7.79l-.62,0-.66.06.66-.06Zm10.4.67v0Zm-2-3.26h0l1.94-.65h0Zm1.9,5.59a2.29,2.29,0,0,1-.32.58A2.29,2.29,0,0,0,528.31,79Zm1.18-1.69h.17l2.52.65-2.52-.65ZM528.36,76h0l2.59-2h0Zm-3.24,3.88h0l-2.44,1Zm.64,0c.21-.22.43-.43.65-.64a1.77,1.77,0,0,0,1.11.58.58.58,0,0,0,.34-.12.58.58,0,0,1-.34.12,1.77,1.77,0,0,1-1.11-.58Zm9.63,4.36a2.39,2.39,0,0,0-.5.22A2.39,2.39,0,0,1,535.39,84.29ZM523.16,70.2h0v0Zm-11,3.23h0l0,0Zm-2.05,0h0l.11,0,0-.07c.72-.16,1.35-.37,2-.57l-1.94.64-.31,1.41A6.27,6.27,0,0,0,510.07,73.39Zm-4.43,5.24h0l3.25-5.85h0Zm-3.25-6.85a4.6,4.6,0,0,0,.52-.06A4.6,4.6,0,0,1,502.39,71.78Zm-1.95.37h0l-7.14,1.94c-.73.26-1.49.49-2.23.74.74-.25,1.5-.48,2.23-.74l7.14-1.94a2,2,0,0,1,.72-.27A2,2,0,0,0,500.44,72.15Zm.81-.29.51,0ZM493.47,86.8l-.64.15Zm28-3.39,0-.48h0C521.54,83.09,521.53,83.25,521.52,83.41Zm2.32,2.15a27.9,27.9,0,0,1,3.23-1.73h0a27.9,27.9,0,0,0-3.23,1.73,17,17,0,0,1-2.18,1.08A17,17,0,0,0,523.84,85.56Zm6.46,1.51,1.29.65h0l-1.29-.65A3.52,3.52,0,0,1,529,87,3.52,3.52,0,0,0,530.3,87.07Zm-1.94-29.2,4.17.8-4.17-.8c0,.22,0,.44,0,.65Zm-13,11-5.82.6c-1,.12-2.25.09-3.27.18a5.46,5.46,0,0,0-.91.14,5.46,5.46,0,0,1,.91-.14c1-.09,2.32-.06,3.27-.18Zm-28-8h0c-.24-.06-.48-.16-.72-.23C486.9,60.75,487.14,60.85,487.38,60.91ZM467.34,91h0l-1.76.7Zm31.32-7.58c.17.58.32,1.17.5,1.75h0C499,84.55,498.83,84,498.66,83.38Zm14.76,1.75L500.28,87l13.14-1.91L518,87.07Zm11,8.42h0c0-.22,0-.43,0-.64C524.46,93.12,524.45,93.33,524.45,93.55ZM568,90.31h0Zm3.43-2.61h.45l.65-.63h0l-.65.63Zm.81,0h0Zm.61-3.46a3.35,3.35,0,0,1,.43-.5A3.35,3.35,0,0,0,572.8,84.23Zm1.32-1.17a10.88,10.88,0,0,1,1-.53l-.64-.65h0l.64.65A10.88,10.88,0,0,0,574.12,83.06Z"/></g></g></svg>