<svg xmlns="http://www.w3.org/2000/svg" viewBox="0 0 628.88 201.49"><defs><style>.cls-1{fill:#546d89;}.cls-2{fill:#eceef1;}.cls-3{fill:#9cd2ff;}.cls-4{fill:#fee8ad;}.cls-5{fill:#fee3c2;}.cls-6{fill:#de7728;}.cls-7{fill:#f57c12;}.cls-8{fill:#fd7c06;}.cls-9{fill:#da9055;}.cls-10{fill:#fb9132;}.cls-11{fill:#f58414;}.cls-12{fill:#f7963a;}.cls-13{fill:#a57459;}.cls-14{fill:#f77903;}.cls-15{fill:#fb7804;}.cls-16{fill:#e8d0bd;}.cls-17{fill:#fec58f;}.cls-18{fill:#fe9a35;}.cls-19{fill:#fdbc03;}.cls-20{fill:#fe8920;}.cls-21{fill:#f47e13;}.cls-22{fill:#f99236;}.cls-23{fill:#ec7d20;}.cls-24{fill:#fe810d;}.cls-25{fill:#f99f4e;}.cls-26{fill:#fec38f;}.cls-27{fill:#6c7483;}.cls-28{fill:#febf01;}.cls-29{fill:#fd8813;}.cls-30{fill:#fe860b;}.cls-31{fill:#fd8a18;}.cls-32{fill:#fe880c;}.cls-33{fill:#df9b70;}.cls-34{fill:#f38d43;}.cls-35{fill:#e0a27a;}.cls-36{fill:#feb97c;}.cls-37{fill:#fba80c;}.cls-38{fill:#feac08;}.cls-39{fill:#b3cbe2;}.cls-40{fill:#fe7a02;}.cls-41{fill:#d3a387;}.cls-42{fill:#fe8f2c;}.cls-43{fill:#feb908;}.cls-44{fill:#feba00;}.cls-45{fill:#f88a37;}.cls-46{fill:#f19747;}.cls-47{fill:#fe7e00;}.cls-48{fill:#f0924f;}.cls-49{fill:#cba895;}.cls-50{fill:#fea95c;}.cls-51{fill:#fea652;}.cls-52{fill:#fed6b2;}.cls-53{fill:#faa153;}.cls-54{fill:#f88e31;}.cls-55{fill:#feaf01;}.cls-56{fill:#fe9e48;}.cls-57{fill:#fd7b04;}.cls-58{fill:#feba01;}.cls-59{fill:#fea505;}.cls-60{fill:#fd7d07;}.cls-61{fill:#fd8523;}.cls-62{fill:#fb8832;}.cls-63{fill:#f78a36;}.cls-64{fill:#fd8518;}.cls-65{fill:#feb904;}.cls-66{fill:#9ec1e2;}.cls-67{fill:#fe9535;}.cls-68{fill:#fe7e06;}.cls-69{fill:#cea893;}.cls-70{fill:#fe810f;}.cls-71{fill:#fd7f0b;}.cls-72{fill:#feb705;}.cls-73{fill:#fd810d;}.cls-74{fill:#fe850e;}.cls-75{fill:#fe9a3c;}.cls-76{fill:#fe9a23;}.cls-77{fill:#fea655;}.cls-78{fill:#fe8519;}.cls-79{fill:#fea84e;}.cls-80{fill:#fe9a40;}.cls-81{fill:#fed3aa;}.cls-82{fill:#feae66;}.cls-83{fill:#fe7902;}.cls-84{fill:#fd7903;}.cls-85{fill:#fd800d;}.cls-86{fill:#f68a27;}.cls-87{fill:#f18f48;}.cls-88{fill:#d5a487;}.cls-89{fill:#da9e7a;}.cls-90{fill:#fe8905;}.cls-91{fill:#d7a07f;}.cls-92{fill:#acc8e3;}.cls-93{fill:#fea704;}.cls-94{fill:#c8d7e6;}.cls-95{fill:#feb708;}.cls-96{fill:#fea605;}.cls-97{fill:#fe9537;}.cls-98{fill:#fead05;}.cls-99{fill:#fe800b;}.cls-100{fill:#feb702;}.cls-101{fill:#fea801;}.cls-102{fill:#fe850c;}.cls-103{fill:#febd00;}.cls-104{fill:#f59043;}.cls-105{fill:#feab01;}.cls-106{fill:#fa8932;}.cls-107{fill:#f98831;}.cls-108{fill:#fe8212;}</style></defs><g id="Layer_2" data-name="Layer 2"><g id="gas"><path class="cls-1" d="M243.39,132.1h0l-5.86,1.22-9.85.21-.43.07m-87.75,1.56c-6.2-.1-12.39-.2-18.59-.35a5.71,5.71,0,0,1-1.7-.61l-1.72.53h0l-1.27.56-6.7-.58-.17,0-.16-.06-3.89,0c-1.86-.16-3.84-.83-5.55-.4-5.46,1.34-10.19-2.49-15.49-1.83a12.18,12.18,0,0,1-3.75.14,15,15,0,0,1-3.4-1.55l-5.06-.16h0l-3.1.56L66.2,130l-.65-.61-1.16,0c-2.15.87-4.16.26-6.18-.33,2,.59,4,1.2,6.18.33-.06-.21-.13-.42-.2-.63a4.94,4.94,0,0,1-1.91-.15c-6-3.29-12.45-2.29-18.81-2.42H40.94c-1.68,2.86-3.44,1.13-5.18.09l-1.85,0-9.22-.7c-2.65-.63-5.27-1.38-7.94-1.83a35,35,0,0,0-5.13-.13l-.65.53-1.2,0,0,0h0c-4.66-1.64-6.79-.84-7.07,3.09-.49,6.75-.65,13.54-.94,20.31h0l-.54,4.57-.06,1.33h0C.81,161.88.53,170.2,0,178.5c-.16,2.57.78,3.89,3.16,4.39l.09-.83h0l-.65-.63h0l.64.63h0l1.1.58-1.1-.58-.09.83,2,1.84,0-.71-.27-.14.12-.12.15.26,0,.71,6.52,3.15c5.76,1.41,11.28,3.59,17.43,3.51,4.54,0,9.07,1.36,13.64,1.71,10.31.8,20.64,1.32,31,2,1.72.12,3.43.57,5.14.84l19.78,3c.06-.16.11-.32.16-.5-.05.18-.1.34-.16.5l2.54.71h0l1.34-.09a24.84,24.84,0,0,1,3.2-.28c6.54.27,13.07.6,19.61.9,2.93.41,5.86.89,8.8,1.18.48,0,1-.68,1.57-1.06,3.22.1,6.43.24,9.65.29q6.32.07,12.62,0c1.48,0,3-.17,4.46-.26h.31c3.31.39,6.62,1,9.94,1.11a69.1,69.1,0,0,0,7.72-.48l0,0h0l14.06.32c2.42.05,4.85.28,7.25.11,3.1-.22,6.18-.76,9.27-1.17,1.38,0,2.76-.12,4.14-.12,5.73,0,11.46.08,17.19,0,3.94,0,7.87-.29,11.81-.44h0l20.78-2.12h0a1.78,1.78,0,0,0,.61.16c8.67-.75,17.24-2.71,26-1.64,1.43.17,3-.64,4.48-1v0c.68.35,1.35.95,2,1,5.64.12,11.29.25,16.93.09,1.71-.05,3.39-1,5.08-1.55h0l14.22-.85,16.9-3.79h0l12.33-4.59-.69-.07h0l.69.08,4-1.86a1.83,1.83,0,0,0-.42-.34,1.53,1.53,0,0,1,.25.16l.17.18h0a5.2,5.2,0,0,0,2.16-5.16c-.44-3.9-.25-7.87-.32-11.8v-1.57a1.71,1.71,0,0,0,0-1.1l0-3.83c-.2-1.3-.39-2.6-.59-3.9l-1.39-.62c0,.1-.07.21-.11.32,0-.11.08-.22.11-.32.21-.44.43-.87.64-1.31h0c-.21.44-.43.87-.64,1.31l1.39.62.69-9.64,0,0c.17-2.84.33-5.69.5-8.53l.05-.64c0-3.27.09-6.53.13-9.79.21-1.47.41-2.93.62-4.4,1.56-3.72.61-5.8-3.32-7.3-3.45-2.19-6.26.29-9.28,1.28,2,.07,4.22,0,3.07,2.71,1.15-2.7-1-2.64-3.07-2.71l-1.75.8-7.73,2.61c-4.8,3.2-10.32,2.74-15.68,3.13l-.69-.14-6.43.78M2.28,154.8c-.33-.16-.51-.84-.82-1.12C1.77,154,2,154.64,2.28,154.8Zm-1,11.71c0,.21,0,.42,0,.64.63,1.09,1.88,2.17,0,3.26v-3.26a2.94,2.94,0,0,1-.25-.46S1.2,166.57,1.29,166.51Zm0,7.12v1.31c0,.86,0,1.73,0,2.59,0-.86,0-1.73,0-2.59C1.3,174.5,1.29,174.07,1.29,173.63Zm1.32,7.78-2-2.58v-.65l.65-.65v1.3l1.62-.18Zm0-33.72h0l1.3-.65Zm2,35h0a7.08,7.08,0,0,1,.37-1.11A7.08,7.08,0,0,0,4.53,182.72Zm2.17-42.6a2.77,2.77,0,0,1-.2,1.07c.15.63.3,1.26.46,1.89-.16-.63-.31-1.26-.46-1.89A2.77,2.77,0,0,0,6.7,140.12Zm.44,4.35-1.27-.67,1.27.67ZM135.71,200.3c.27-.18-.41-.91-.41-1.26C135.3,199.39,136,200.12,135.71,200.3Zm35-.71c0-.21,0-.43,0-.64h0C170.69,199.16,170.69,199.38,170.7,199.59Zm35.7-62.93h0c0,.34.06.59.09.8C206.46,137.25,206.43,137,206.4,136.66Zm32.73,62.4a13.28,13.28,0,0,0,1.65-.1A13.28,13.28,0,0,1,239.13,199.06Zm16-1.42L244,198.94a6.49,6.49,0,0,0-1.82-.1,6.49,6.49,0,0,1,1.82.1l11.05-1.3Zm52.58-65.51H307l.66-.65-.66.65Zm-.65-1.95h0l1.93.64Zm2.58,1.94H309v0h.65l.65-.65h0Zm27.91,55.8-.41-.23.41.23Zm4.59,2.22c.27-1.54.44-2.53.61-3.52a4.34,4.34,0,0,1-.51,0c.12,0,.28-.13.54-.5h0l.15.2C342.49,187.89,342.33,188.81,342.1,190.14Zm11.18-6v0l-.2-.18Zm.46,3.73h0Zm.67-.72c0-.87,0-1.75-.05-2.61.07.86,0,1.74.05,2.61l1.18-.53Zm14.27-53.77,0-.2Zm0-.32v0Zm0-.19a1.42,1.42,0,0,0,0-.2A1.42,1.42,0,0,1,368.68,132.91Zm-.09-.32a.91.91,0,0,0-.07-.14A.91.91,0,0,1,368.59,132.59Zm-.17-.31a.86.86,0,0,0-.07-.1A.86.86,0,0,1,368.42,132.28Zm.9-4.71h0l-.45.91ZM368,125l0,0,0,0c.65-.64,1.29-1.29,1.94-1.94Zm1.91-2.56h0l-1.93-.21,1.93.21Zm-.63-2-1.26-.68h0l1.26.68Zm-8.42,0c.11-.21.2-.4.28-.58C361.09,120,361,120.22,360.89,120.43Zm1.29-.54c-.41.21-.87.35-1.29.54C361.31,120.24,361.77,120.1,362.18,119.89Zm0,0a2.55,2.55,0,0,0,.38-.26A2.55,2.55,0,0,1,362.22,119.88Zm5.16-.74h0l-2-2.17ZM366.27,183h0a2.22,2.22,0,0,1,.42.06A2.35,2.35,0,0,0,366.27,183Zm1.11-47.59a10.81,10.81,0,0,0,1-1.19,10.81,10.81,0,0,1-1,1.19Zm1.29-1.9,0,.13Zm-.07.24s0,.07-.05.1S368.58,133.73,368.6,133.7Zm-.11.23-.09.15Z"/><path class="cls-1" d="M270.19,120.05a.72.72,0,0,0-.27-.09s-.06.15-.09.23a.92.92,0,0,0,.27.08S270.16,120.13,270.19,120.05Z"/><polygon class="cls-1" points="1.3 167.15 1.3 167.15 1.3 167.15 1.3 167.15"/><path class="cls-2" d="M314.86,147.08c-.25-2.86-2.6-3.44-4.7-4.3l-1.9-1.32-1.86-.05,0,.05c-.4-.35-.81-1-1.19-1a62.91,62.91,0,0,0-10,.82c-2.89.63-5.58,2.14-8.36,3.27l-.62.23-.72.41-3.93,3.9c-2.23,4.86-4.81,9.48-2.94,15.33,1.21,3.77,2.79,6.84,6.27,8.77l.73.6,3.09,1.44h0l4.58,1.92,0,0,1.26.64c6.28,2.81,11.83.66,17.22-2.54l4.36-3.92.66-.67h0c.38-.46.77-.92,1.15-1.39l2.7-7.66C322.35,157.49,319.24,149.72,314.86,147.08Z"/><path class="cls-2" d="M267.75,158.21c-.25-.23-1.62.77-2.47,1.2l-4.36-.49-3.1,2.12c1.16.83,2.24,2.21,3.48,2.39a38.13,38.13,0,0,0,7.7-.06c.68-.05,1.31-.8,2-1.23A30.93,30.93,0,0,0,267.75,158.21Z"/><path class="cls-1" d="M307.06,156.9a52.92,52.92,0,0,0-5.6-.41c-4.18.11-8.38.29-12.55.65-2.14.19-4,1.93-3.51,3.76s1.62,4.3,4.67,4a46.89,46.89,0,0,1,13.59,0c3.5,1.34,4.68-1.35,5.28-3.65C309.25,160,307.74,158.35,307.06,156.9Z"/><path class="cls-2" d="M327.05,164.84v0h0Z"/><path class="cls-2" d="M337.52,155l-1.11-.79-2-1.21-.83.1h0l.83-.1c-4.5-3.07-8.8-.34-9.27,5.88h0l1.9,5.92.72.64c2.92,3.3,6.42,3.32,8.5.06.58-.34,1.58-.58,1.67-1C338.61,161.31,339.73,158.07,337.52,155Zm-2-.1a2.34,2.34,0,0,1-.6.27A2.34,2.34,0,0,0,335.47,154.91Zm-4.45-1.2,1.34-.6-1.34.6h0Zm1.9,9.07-2.48.65-1.3-1.38h.05l.62-5h0l1.76-1.17c.24.6.48,1.21.71,1.82l0,0c.22,1.7.45,3.4.67,5.1Zm1.33,1.53c-.09.05-.3-.08-.46-.13.08-.17.12-.41.25-.48s.33.08.51.13C334.45,164,334.39,164.22,334.25,164.31Zm.51-1.64a5.51,5.51,0,0,1,.87.05A5.51,5.51,0,0,0,334.76,162.67Zm1.36-8.23,1.18.78h0Z"/></g><g id="pan_gas" data-name="pan&amp;gas"><polygon class="cls-3" points="69.67 81.3 69.67 81.3 69.67 81.3 69.67 81.3"/><path class="cls-3" d="M69.44,81.11a.07.07,0,0,1,0,0l.22.14Z"/><path class="cls-3" d="M628.76,43.56c-.35-2.16-.31-4.38-.45-6.58-1.06-1.92-.75-4.88-3.95-5.16-1.89-1.05-3.68-2.54-5.71-3.05a111.15,111.15,0,0,0-15.89-3.17,167.58,167.58,0,0,0-19.41-.67c-12.93.18-25.85.66-38.78,1a14.87,14.87,0,0,0-2.55-.29c-8.11.52-16.23,1-24.34,1.65-3.6.28-7.19.8-10.78,1.2h0c-8.22.57-16.43,1.11-24.65,1.73-1.77.13-3.52.56-5.29.86-9.61.42-19.23.76-28.84,1.29-10.47.59-20.93,1.36-31.4,2L416,35v0H414.1l-.64,0h0l-9-1L394,35c-.58-.2-1.18-.64-1.72-.58-5.5.59-11,1.26-16.49,1.91a2,2,0,0,0-.64,0h0c-4.1-.18-8.2-.39-12.3-.53-3.47-.12-7.26.68-9-3.75-.2-.52-1.34-.68-2-1l-5.25-5.09h0c-1.95-1.48-3.72-3.32-5.88-4.37-4.62-2.23-9.43-4-14.16-6h0l-4.6-1.9c-3-.6-6-1.3-9.08-1.79-2.54-.41-5.13-.58-7.7-.86A83.66,83.66,0,0,0,270.47,3.9l-.45.66c.2.53.39,1.07.61,1.64-.22-.57-.41-1.11-.61-1.65,0-.21,0-.43,0-.64L245.36,1.27l-.66.08L241.86.77,231.7.57h0L216.77.06a1.92,1.92,0,0,0-.63,0h-1.95a2.28,2.28,0,0,0-.64,0l-.66,1.26v0L213.55,0h-.67L194,1.2l-2.53.11L163.56,4c-3.52.19-7.05.34-10.57.59a31.4,31.4,0,0,0-3.32.53l-1,.1-1.87,0c-.24-.27-.47-.37-.69,0-.46.28-.95.82-1.38.78-6.6-.64-12.91.87-19.29,2.27-7.15,1.56-14.49,2.21-21.67,3.63l-4.41.46h0c-2.71.42-5.43.8-8.13,1.26-4.86.83-9.71,1.71-14.57,2.57h0a24.66,24.66,0,0,0-3.34.22c-4.91,1-9.8,2.07-14.7,3.11L46.68,22l12.38-1.27L46.68,22c-.41-.07-.87-.3-1.24-.2C38.25,23.8,31,25.47,24,27.91c-3.48,1.21-6.47,3.85-9.67,5.85l-.65.63h0l-3.27,3.31,0,3.19h0l0-2.65C8.13,43,5.56,47.67,5.78,53.19c-.7,2.77,0,5.23.91,7.94,2,5.88,3.38,12,5,18q1.94,2.76,3.86,5.53c1,3,4.41,8.62,6.39,12.24l5.83,6.89c4.74,3.7,11.7,8.66,16.3,9.71l.14,0c4.25,2,16.94,3.68,18.91,4.54a141.42,141.42,0,0,0,18.27,2.6l20,1.87c3,1,14,1,19.32,1.33,3.89.26,7.79.45,11.67.82,2,.19,4,.71,6,1.07a57.08,57.08,0,0,0,15.32.12c3.82.07,7.65.09,11.47.23,2.54.1,5.08.36,7.61.55.16-.06,10.7.85,16.68.44,1.33-.16,2.66-.36,4-.46,3.26-.25,6.52-.45,9.77-.68l11.37.55c9.88-1,17.84-2.6,19.37-2.79,5.76-.71,11.51-1.61,17.26-2.44a80.2,80.2,0,0,0,14.2-1.27c1.45-.33,2.88-.74,4.34-1,5-.77,10.08-1.47,15.11-2.2,1.6-.34,9.6-.34,13-1.24l9.77-2.62h0c.48.15,1,.55,1.4.41,3-1.17,6-2.44,9.05-3.68h0l-1.31-.66h0l1.31.66c.21-.22,11.41-4.2,12.91-5.33l14.29-9c4.21-1.87,6.95-6.47,7.13-6.49l3.41-6.41.58-.57h0l9.71-2a22.89,22.89,0,0,0,4.09.52C378.11,80,386,79.53,394,79.05c1.53-.1,3-.34,4.58-.52h.06L413.24,78l9.31-.76h0l9.07,0h.65l3.25-1.93-3.25,1.93,21.42-.64c2.47-.17,4.95-.4,7.42-.52,5.55-.27,11.11-.48,16.66-.72a1.63,1.63,0,0,0,.58-.08l1.31.07.79-.12a18.24,18.24,0,0,0,1.85-.62c-.61.29-1.34.43-2,.66,2.35-.15,4.7-.35,7.06-.46,5.75-.27,11.51-.4,17.26-.76,4.86-.31,9.7-.87,14.55-1.31a17.22,17.22,0,0,0,3,.57c3.74.07,7.49.08,11.23,0,4.79-.11,9.57-.34,14.36-.52,3.77-.37,7.54-.87,11.32-1.08,4.28-.24,8.6.07,12.85-.37,8.4-.87,16.76-2.09,25.15-3.16l4.53-1.27h.66l2.89-.67,1.69-.55L622.42,59h0l3.36-3.83C626.75,51.33,629.47,47.92,628.76,43.56Zm-302.92-28,.29,0-.29,0c0,.21,0,.42,0,.63C325.83,16,325.83,15.8,325.84,15.59Zm-7.18,4.56h0l-.4-.3Zm-3.73-2.28c-.93.49-1.82,1.11-2.74,1.61C313.11,19,314,18.36,314.93,17.87ZM290.6,10l.19.06L290.6,10Zm-2.81,1.52.14,0-.14,0-.06.14Zm-20-3.24c0-.16.05-.29.07-.44l3.49.28a8,8,0,0,0-3.56.16l0,.16-.59-.49C267.38,8.13,267.63,8.34,267.76,8.26ZM266.45,4.5a5.52,5.52,0,0,0-1.56-.69A5.52,5.52,0,0,1,266.45,4.5Zm.69,2.08c-1.47.75-2.54,1.3-3,2.14l0,0,0,0h0L264,8.65l.05,0-.22-.11.17.08-.4-.23Zm-75.67-2,.65.64-.65-.64-.41-.76Zm.65,1.29h0l-2,.65Zm-10.38,2.6,1.3.64-1.3-.64-.32-.27Zm-30.62,1.84-.05,0-.49-.5ZM85,16.32c0,.2.08.39.11.59,0-.2-.07-.39-.11-.59l-.17.05ZM68.09,22.41c-.36.05-.68-.07-.92-.66A1,1,0,0,0,68.09,22.41Zm1.29-.14.66-.1L69.46,22l.58.17h0c.49.16,1,.37,1.4.54l0,0a7.64,7.64,0,0,0,1.37.38c-.13.17-.68-.05-1.4-.36-2,1.52-3.06,2.73-4.43,2.74C68.28,25.38,68.88,23.93,69.38,22.27ZM20.53,35.48l-5,3.45h0Zm-6.91,2.8,1.46.49-1.46-.49ZM154,90.22l.33-.48h0Zm8.15-.54a.67.67,0,0,0,.09-.14L161,88.9l-2.58-.66,2.58.66,1.29.64A.67.67,0,0,1,162.15,89.68Zm4-2.08c-.1.55-.2,1.09-.3,1.66.1-.57.2-1.11.3-1.66h0Zm187.57-24-2.22,1.77,2.22-1.77Zm3-6.89-6.86,6.88h0l-3.91,1.93v0h0l-7.17,2.58c-8.14,1.83-16.26,3.76-24.42,5.47-10.16,2.13-20.3,4.47-30.56,6-6.11.89-12.42.31-18.65.38-2.24,0-4.48,0-6.72,0-3.6,1-7.16,2.24-10.83,2.88-4.59.79-9.27,1.08-13.92,1.58-3.41.64-6.8,1.63-10.25,1.85-12.87.82-25.76,1.39-38.65,2-1.23.06-2.46,0-3.69-.07h0L170.71,87l-.66,0a5.5,5.5,0,0,1-.42.38,5.5,5.5,0,0,0,.42-.38l-2,0c-4.19,0-8.39-.1-12.57,0a55,55,0,0,0-5.56.65,3.43,3.43,0,0,0-.64,0l-.7-.63h0c-.22,0-.44,0-.65,0a4.28,4.28,0,0,0-.62,0,2,2,0,0,0-.64,0h0l-4.55-.54h-6.53l0,0-4.48-1.22-.66,0c-.05,1.15-.5,1.46-1.1,1.47.6,0,1-.32,1.1-1.47l-7.15-.73-21.42-.6-2.6-.06h-.64c-6.4-1.06-12.78-2.27-19.2-3.16C66.11,78.66,52.55,78.19,39.59,74a3.16,3.16,0,0,0,.06.47,3.16,3.16,0,0,1-.06-.47l-1.9-.69L27.92,70c-2.59-1.68-5.46-3-7.71-5.11-2.49-2.28-4.41-5.19-6.59-7.82,1.77-2.83-1.09-6.33,1.32-9.07h0l.57-2c0-.22,0-.44,0-.66q1.29-2,2.56-3.9a1.54,1.54,0,0,0,.1-.56l1.27-1.36h0l11.07-5.18c4.3-1.41,8.57-2.92,12.91-4.17a49.72,49.72,0,0,1,6.48-1.05l0,0,5.22-.62c2.94-1.44,5.88-2.9,8.83-4.33-3,1.43-5.89,2.89-8.83,4.33L76,24h0l6.5-1.29-1.32-2h0l1.32,2q.31,0,.63,0h0l.31,0h1l5.16-1.31h0l3.27-.62h0l5.88-.65c3.76-.47,7.52-.88,11.27-1.4,4.45-.62,8.87-1.32,13.31-2,.33-1.24.8-1.85,1.45-1.63-.65-.22-1.12.39-1.45,1.64l2.64-.6,15.56-2.53h0c4.18-.23,8.36-.43,12.53-.71,1.25-.08,2.48-.37,3.72-.57l2-.62h0L171.35,11l6.5-.6h0L185,9.81l7.77-.74L196,7.79l-3.26,1.28,5.2-.62,10.39-.65h0l.64,0h0c4.27.17,8.53.41,12.8.49,6.12.11,12.24.1,18.36.15h0l9.08,0a20.06,20.06,0,0,0,4.29,1.44C264,11,274.61,11.72,285.1,13.05c4.19.53,8.81.3,12.35,3.48a1.3,1.3,0,0,0,.6.21l14.14,2.74h0l6.5.67h0l3.27,1.25h0c3,1,6,1.92,8.94,2.95,2,.7,4,1.52,6,2.29h0l.68.59a4.94,4.94,0,0,1,1.87,0,4.94,4.94,0,0,0-1.87,0l3.9,3.21,11.88,11c1,.92,2,1.81,3,2.71l.5.11-.5-.11c.43,1.3.77,2.63,1.31,3.89C359,51.07,358.6,54.79,356.7,56.7Zm12-18.41h0l-1.41.26Zm-1.29,39.56h0l.66.67h0c.22.21.44.43.65.65l-.65-.65h0Zm2.59,2h-.63l-.66-.63h0l.66.63H370c-.22-.86-.43-1.72-.65-2.58,0-.66,0-1.31,0-2h0c0,.65,0,1.3,0,2C369.53,78.08,369.74,78.94,370,79.8Zm.66-4.54h0Zm5.82,3.24h-1.92l-1.28.2,1.28-.2h1.92l.66-1.29a2.44,2.44,0,0,1-.05-.57,2.44,2.44,0,0,0,.05.57Zm3.22-3.28c-.41.69-1.67.27-2.28.69.61-.42,1.87,0,2.28-.69.3-.36.56-.79.88-1.12C380.22,74.43,380,74.86,379.66,75.22Zm10.42,2.63a.94.94,0,0,0-.12-.18.94.94,0,0,1,.12.18Zm.76-3.59a4.81,4.81,0,0,1,.25-.79A5.42,5.42,0,0,0,390.84,74.26Zm.67-1.85c-.13.34-.25.63-.36.91.09-.22.17-.44.24-.65l-4-.58a11.43,11.43,0,0,0,4.1.08l-.11.21Zm22.17,3.74-.22-.29v-.59a1.7,1.7,0,0,0,.22.88Zm6.92-.89h0c-.22-.43-.44-.86-.65-1.29l.65,1.29a12.84,12.84,0,0,0,1.39.15A12.84,12.84,0,0,1,420.6,75.26Zm17.07-1.14h0l.48.33Zm2,1.49-.48,0,.48,0Zm17.51-.8h0l-.23-.19a.28.28,0,0,1,0,.09c-1.9-.81-2.18.93-3,1.69.89-.79,1.14-2.66,3-1.78.22-.87.44-1.73.65-2.6a10.82,10.82,0,0,0-.42,2.79ZM484.85,35l.65.65c-.08-.43-.17-.85-.25-1.27.08.42.17.84.25,1.27C485.29,35.47,485.07,35.26,484.85,35Zm13.27-1.48-.16.14a1.86,1.86,0,0,0-.2-1.05C497.87,33,498,33.26,498.12,33.56Zm-3.78.24a.39.39,0,0,1,.13.06l-.13,0h0l-.1,0,0,0h0l0,.06c-.82.07-1.56.62-2.14.44.6.17,1.3-.5,1.91-.57-.69-2.65,1.74-2.68,3.06-3.65C495.69,31.05,493.29,31.1,494.34,33.8Zm2.73.25a4.44,4.44,0,0,1,.49,0c-.32.1.32.5.87,1A13.69,13.69,0,0,0,497.07,34.05Zm85.15,4.13c-.43-.18-.86-.37-1.3-.54h0C581.36,37.81,581.79,38,582.22,38.18Zm-8.44-.55h0l-.15-.26Zm1.3,2.6h0l-1.3-1.94h0Zm-1.3-2.29v.34h0Zm-21.42,2.29h0c.21.65.43,1.29.64,1.94a3.79,3.79,0,0,0,.34,1.67h0l-.16-.17-.16-.19a2.44,2.44,0,0,1-.1.24,48.57,48.57,0,0,0-5.39-1.37L553,43.47c0-.43,0-.87,0-1.3L551.71,39,553,42.17C552.79,41.52,552.57,40.88,552.36,40.23Zm3.73,5.8c-1.87.12-3.74.07-5.62.09h0C552.35,46.1,554.22,46.15,556.09,46Zm-10.22-6.46,2.6-.64-2.6.64c-.1.44-.24.88-.3,1.32C545.63,40.45,545.77,40,545.87,39.57Zm.64,5.85h0v0Zm-.65-2.6c0-.09-.05-.18-.07-.27,0,.09.05.18.07.27l-1.29,1.3Zm-1.29,2.6c-.21.65-.43,1.3-.65,1.95h0C544.14,46.72,544.36,46.07,544.57,45.42Zm-1.73-5.18h0l-.44.64ZM540.6,48h0l2.94-.53-2.94.53,3.92.09.66-.66-.66.66h0L540.65,48h0l-4.45.6ZM528.34,72.66h0L529,72Zm3.74-17.78c-.1-.11-.21-.22-.32-.32.11.1.22.21.32.32l.22-.28Zm-1.26-11.35h0c.66,1.41,3.17,1.57,3.66,3.11C534,45.1,531.48,44.94,530.82,43.53Zm3.41,5h0l.64.06Zm7.1.75-5.83-.63,5.83.63h0l.39,0Zm.78,4.25.06-.13.12,0c.8,1.21,1.28,1.94,1.75,2.67A18,18,0,0,0,542.11,53.54Zm1.22-4.22.58,0h0Zm1.24-.65-2,.57h0l2-.57,7.84,0,5.13,0L558.2,50l-.66-1.27-5.13,0h0Zm8.33,22.8-.51,0,.51,0Zm1.7.18a.94.94,0,0,0,.27-.46A.94.94,0,0,1,554.6,71.65Zm1-1.58c0-.43,0-.86,0-1.29l-.65,1.3a5,5,0,0,1,0,.54,5,5,0,0,0,0-.54L554,69l1,1.08c.22-.43.43-.87.65-1.3v1.29h0Zm2.59-.64c-.43-.22-.86-.44-1.3-.65.44.21.87.43,1.3.65,0,.21,0,.43,0,.65C558.21,69.86,558.2,69.64,558.2,69.43Zm1.3-18.18c0,.22,0,.43,0,.65,0-.22,0-.43,0-.65l1.11-.67Zm-.59-8.6a3.79,3.79,0,0,0,1.87-.48l-.63-.64.63.64A3.79,3.79,0,0,1,558.91,42.65Zm6.43,8.6h0c.18.44.34.9.54,1.3C565.68,52.15,565.52,51.69,565.34,51.25Zm-.61-1.9c.51,0,.9.15.83.92C565.63,49.5,565.24,49.34,564.73,49.35Zm6.44,6.45-1.29-1.3,1.29,1.3a7.68,7.68,0,0,1,.82,0A7.68,7.68,0,0,0,571.17,55.8Zm2.6-7.75-11,.59v0h0l11-.59c.29.89.66,1.27,1.09,1.38C574.43,49.32,574.06,48.94,573.77,48.05Zm1.3-3.31,5.46.85-5.46-.85Zm7.8.68h0l-4.66,7.22Zm1.3,7.14-1.84.46,1.84-.46.76-.28Zm3.89-6.49h0Zm-1.3-4.54h0l1.3,2.59Zm11,25.29,0,0,0,0Zm.64-2.58-.13.51.13-.51v0Z"/></g><g id="pancakemix"><path class="cls-4" d="M233.65,84.36a59.25,59.25,0,0,0,20.26-18.82,26.18,26.18,0,0,0,4.26-15.17,12.36,12.36,0,0,1,.16-1.71c2.82,3.45,3.57,7.53,3.18,11.79-.51,5.61-1.26,11.2-2,16.78a11.54,11.54,0,0,1-1.11,2.67c-3.6,1-7.16,2.24-10.83,2.88C243,83.57,238.3,83.86,233.65,84.36Z"/><path class="cls-4" d="M124.64,63c.49,2.13.86,4.3,1.48,6.39,2.07,7.09,7.68,11,13.45,14.73a22.43,22.43,0,0,1,2.59,2.3h-6.53l0,0-4.48-1.22-.66,0-7.15-.73A43.39,43.39,0,0,1,124.64,63Z"/><path class="cls-5" d="M253.45,40.8a159.64,159.64,0,0,0-15-10.73,33.92,33.92,0,0,0-6.83-3.51c-10.23-3.86-20.78-6-31.77-5.15-6.09.46-12.33.43-18.21,1.84a171.93,171.93,0,0,0-23.2,7.62C151.49,33.62,145,37,139.21,42.28A65.19,65.19,0,0,0,129.1,53.82c-1.89,2.77-3,6.07-4.46,9.13.49,2.13.86,4.3,1.48,6.39,2.07,7.09,7.68,11,13.45,14.73a22.43,22.43,0,0,1,2.59,2.3l4.55.54h0a1.91,1.91,0,0,1,.63,0,4.28,4.28,0,0,1,.62,0l.65,0h0l.7.63a3.43,3.43,0,0,1,.64,0,55,55,0,0,1,5.56-.65c4.18-.08,8.38,0,12.57,0l2,0,.66,0,10.35,1.18c1.23,0,2.46.13,3.69.07,12.89-.65,25.78-1.22,38.65-2,3.45-.22,6.84-1.21,10.25-1.85a59.25,59.25,0,0,0,20.26-18.82,26.16,26.16,0,0,0,4.26-15.17,12.36,12.36,0,0,1,.16-1.71C256.74,46,255.68,42.71,253.45,40.8Zm-19.78.08c-2.84,4-5.81,5.33-9.21,4.16l9.2-4.17c.34-.09.68-.19,1-.27l.08.3Z"/></g><g id="fire"><path class="cls-6" d="M260.33,138.71H261a6.05,6.05,0,0,0,0,1c.06.52.17,1,.26,1.56a2.28,2.28,0,0,0,.56-.14,7.87,7.87,0,0,0-.2-1.68c-.07-.26-.4-.45-.61-.67.55-.07,1.41-.39,1.6-.17a9.09,9.09,0,0,1,1,2.23c-1.49,1.59-2.79,4-5.32,1.3l1.31-1-.49-.52-.84,1.54-2.56,0c.7-.92,2.84-1.09,1.59-3l2.41-1-.73.4Z"/><path class="cls-7" d="M221.48,141.25l-4.19-2.61.2-.08.2.07,7.62.05.61.71Z"/><path class="cls-8" d="M225.92,139.39l-.61-.71c.83-2.14,2.23-2.18,3.94-1.07l-1.4,1.73Z"/><path class="cls-9" d="M116.89,138.66l1.29,0c0,.2,0,.41,0,.62l-6.7-.58c1.57-2.47,3.16.81,4.73,0A2.18,2.18,0,0,0,116.89,138.66Z"/><path class="cls-9" d="M107.87,137.42l3.33,1.26-3.89,0Z"/><path class="cls-10" d="M118.23,139.3c0-.21,0-.42,0-.62l1.32.06Z"/><path class="cls-11" d="M147.43,141.31h0Z"/><path class="cls-12" d="M176.59,140l-.64-.61Z"/><path class="cls-10" d="M116.89,138.66a2.18,2.18,0,0,1-.63.05Z"/><path class="cls-13" d="M260.33,138.71l-1.36-.28.73-.4Z"/><path class="cls-14" d="M261,138.72c.21.22.54.41.61.67a7.87,7.87,0,0,1,.2,1.68,2.28,2.28,0,0,1-.56.14c-.09-.52-.2-1-.26-1.56a6.05,6.05,0,0,1,0-1Z"/><path class="cls-15" d="M258.26,142.06l.84-1.54.49.52-1.31,1Z"/><path class="cls-16" d="M334.27,127.5l-6.43.78-1.3-1.19.64-.14,2.76-.44,2.31-.24Z"/><path class="cls-17" d="M31.19,123.8l.67-.06,3.09,4.7Z"/><path class="cls-18" d="M35,128.44l-3.09-4.7h1.31l2.56,2.65.1,2.49a3.45,3.45,0,0,1-.28.26Z"/><path class="cls-18" d="M37.76,130.33l-1.85,0-.36-1.16a3.45,3.45,0,0,0,.28-.26Z"/><path class="cls-19" d="M251.42,134.89l1.8-6.65c.4-1.05.79-2.11,1.19-3.17L257.7,120c2.83,3.14,1.39,6.62.77,10-.22,1.15-.82,2.22-1,3.37-.91,4.85-.92,4.88-5.45,4C251.79,136.56,251.6,135.73,251.42,134.89Z"/><path class="cls-20" d="M155.69,132.84c.18,2.09.37,4.18.55,6.27a1,1,0,0,1-.45.24L153,138c2.72-1.42,1.51-2.36-.38-3.18h0c2.07-1.83.32-4.22.92-6.3a19.36,19.36,0,0,0,.37-3.43C154.48,127.67,155.08,130.25,155.69,132.84Z"/><path class="cls-21" d="M71,135.41,68.2,134c.43-1.25.86-2.5,1.28-3.75l3.25,1.95.67.61.64,0,1.27.65.68.66-1.93.68h0Z"/><path class="cls-11" d="M141.5,139.17c-.21-2.1-.41-4.19-.62-6.29h.61c1.32,2.6,2.65,5.19,4,7.78-.23.45-.47.9-.71,1.35Z"/><path class="cls-22" d="M74.06,134.85l1.93-.68h.64l.65-.65c2.43-.63,2.43-.63,1.3-1.93h0l3.9-2.59c-.58,1.43-1.08,2.9-1.78,4.27A9,9,0,0,1,79.12,135Z"/><path class="cls-10" d="M122.23,131.65c1,2.39,1.32,4.68-1,6.56l-1.72.53a27.61,27.61,0,0,0,1.28-5c.07-.9-.84-1.87-1.3-2.8h0c.23-.44.45-.89.67-1.33Z"/><path class="cls-23" d="M266.85,134.1c-.65,2-1.29,4-1.94,5.92l-.58.16c.13-1.15.25-2.3.39-3.45a6.33,6.33,0,0,1,.2-.69c-2.75-.85-.52-2.54-.66-3.82C265.12,132.85,266,133.48,266.85,134.1Z"/><path class="cls-24" d="M289.45,132.89l-.69-.7-1.23-5.12,2,2.57,1.29,2.58v1.3Z"/><path class="cls-25" d="M69.48,130.28c-.42,1.25-.85,2.5-1.28,3.75l-.65-.61c-1.1-1,1.55-3.46-1.47-3.65l-.5-.78,3.25,0Z"/><path class="cls-26" d="M66.08,129.77c3,.19.37,2.68,1.47,3.65l-1.16,0c-.06-.21-.13-.42-.2-.63C66.15,131.8,66.12,130.78,66.08,129.77Z"/><path class="cls-27" d="M292.13,134.81l4.52.56Z"/><path class="cls-22" d="M71,135.41l3.1-.56Z"/><path class="cls-8" d="M225.29,118c2.22-1.72,2.77.57,3.46,1.68a14.35,14.35,0,0,1,1.16,3.83c-.31,1-.67,1.93-.92,2.91-.17.72-.46,2-.24,2.12,3.82,1.88-1.6,4.29.39,6.19a24.33,24.33,0,0,1-4.65,2.38c-.61.17-1.62-1.07-2.45-1.66.44-1.08.88-2.16,1.31-3.24l.61-.67.67-1.31L225.9,127h0l.6-.62c0-.22,0-.43.07-.65l.58-.65c0-.21,0-.43,0-.64l-1.26-1.33Z"/><path class="cls-28" d="M179.18,124.47c2.63-.43,3.56,1.42,3.65,3.35a30.5,30.5,0,0,1-.54,9.12c-.9,3.33-3.25,1.24-5.06.53,0-.24,0-.47,0-.71,1.8-1.74.67-3.46,0-5.19a5.8,5.8,0,0,1,0-.59c0-1.12,0-2.23,0-3.35Z"/><path class="cls-29" d="M231.08,125.75c0,.22.09.44.13.66s-.07.41-.1.62c0,1.1.1,2.21.16,3.32q-.79,3.59-1.58,7.19l-.44.07c-1.71-1.11-3.11-1.07-3.94,1.07l-7.62-.05q-.56-2.58-1.1-5.16,2.32-4,4.67-8c.05.53.09,1.05.14,1.58,0,.21,0,.42,0,.64a4.56,4.56,0,0,0,0,.64l0,0-.59.64c-.88,1.95-1.83,3.87-2.61,5.85a8.07,8.07,0,0,0-.2,2.33,8.22,8.22,0,0,0,2.5-.16c.63-.24,1.06-1,1.57-1.52.83.59,1.84,1.83,2.45,1.66a24.33,24.33,0,0,0,4.65-2.38c-2-1.9,3.43-4.31-.39-6.19-.22-.11.07-1.4.24-2.12.25-1,.61-1.94.92-2.91Z"/><path class="cls-30" d="M103.94,126.41l1.31,1.24.58-.59.69-2.63q0,3.6,0,7.21l-2.58-1.36-.46-.77Z"/><path class="cls-31" d="M225.29,118c.21,1.7.42,3.39.62,5.08-.21.22-.43.44-.65.65l-.63,0-.67,1.27c-.2,0-.4,0-.6,0l-1.47-.66Z"/><path class="cls-32" d="M141.49,132.87h-.61a2.15,2.15,0,0,1-.51-.15c-.06-1.91-.12-3.82-.19-5.73l1.29-.77C141.48,128.45,141.48,130.66,141.49,132.87Z"/><path class="cls-33" d="M141.47,126.23l-1.29.77-.45-2.59-.07-1.21c.18-1.33.37-2.66.55-4l1.29,5.3Z"/><path class="cls-34" d="M82.42,121.88a5.11,5.11,0,0,1-2.13.3c-.63-.18-1.11-.91-1.65-1.4.44-.36.89-.71,1.31-1.08s.91-.82,1.36-1.24Z"/><path class="cls-12" d="M177.24,136.76c0,.24,0,.47,0,.71L176,139.36c-.41-.42-.83-.84-1.25-1.25l0-1.31.48-3.4,1.3-2.51.69.09a5.8,5.8,0,0,0,0,.59Z"/><path class="cls-35" d="M122.23,131.65l-2.08-2.05a6,6,0,0,1,.06-.61l-.06-1.3.67-2.64c.64,1.93,1.29,3.85,1.93,5.78C122.58,131.1,122.4,131.37,122.23,131.65Z"/><path class="cls-22" d="M82.49,129c0-2,0-3.9,0-5.85l.93,4.49Z"/><path class="cls-36" d="M175.22,133.4l-.48,3.4,0-3.18A3.13,3.13,0,0,0,175.22,133.4Z"/><path class="cls-37" d="M221.89,124.39l1.47.66c-.65.66-1.3,1.33-2,2-.05-.53-.09-1.05-.14-1.58Z"/><path class="cls-38" d="M177.21,131l-.69-.09c.23-1.08.47-2.17.7-3.26C177.22,128.75,177.21,129.86,177.21,131Z"/><path class="cls-39" d="M266.14,123.83c-.25-.87-.49-1.74-.74-2.61C265.65,122.09,265.89,123,266.14,123.83Z"/><path class="cls-40" d="M139.66,123.2l.07,1.21Z"/><path class="cls-41" d="M189,123.75c-.05-.23-.09-.46-.14-.69C188.88,123.29,188.92,123.52,189,123.75Z"/><path class="cls-42" d="M329.94,126.51l-2.76.44Z"/><path class="cls-43" d="M326.49,126.86l-.69-.4Z"/><path class="cls-44" d="M141.47,126.23l0-1.72c.66-1.34,1.33-2.67,2-4l.66,0c1.73,6.22,3.42,12.45,5.23,18.65.43,1.47.44,2.3-1.39,2.13h-.56l-2-.66c-1.32-2.59-2.65-5.18-4-7.78C141.48,130.66,141.48,128.45,141.47,126.23Z"/><path class="cls-45" d="M147.65,124.62a3.67,3.67,0,0,1,.94.64c.07.1-.22.49-.35.75l-1.28-.79Z"/><path class="cls-46" d="M144.15,120.53l-.66,0,.34-.84Z"/><path class="cls-20" d="M151.93,134.82l-.27-.15.27.15Z"/><path class="cls-20" d="M152.58,134.82h0Z"/><path class="cls-47" d="M183.91,118.49l1.14.85-.68-.09-.85-.3Z"/><path class="cls-48" d="M187.27,131.24l-.14-.23.32-.18c0,.09.06.2,0,.27S187.34,131.2,187.27,131.24Z"/><path class="cls-49" d="M184.37,119.25l.68.09a2.9,2.9,0,0,0,0,.51Z"/><path class="cls-50" d="M103.89,130.28l2.58,1.36c0,.4.07.81.1,1.22l-1.31,1.86c0,.21,0,.42-.05.63Z"/><path class="cls-51" d="M105.21,135.35c0-.21,0-.42.05-.62l1.91-1.22.68.69c0,1.07,0,2.14,0,3.2h-.65l-1.36-1.86A2.84,2.84,0,0,1,105.21,135.35Z"/><path class="cls-52" d="M105.79,135.55l1.36,1.86Z"/><path class="cls-10" d="M120.15,127.69l.06,1.3Z"/><path class="cls-10" d="M119.47,130.92l-.14.27.15-.26Z"/><path class="cls-53" d="M266.23,125.69c.39.43.79.85,1.19,1.28l.12,5.93-.69,1.21-2.59-1.89C265.59,130.24,267.58,128.47,266.23,125.69Z"/><path class="cls-44" d="M294.07,125.08v2l-1,.51,1,.79h0c0,.65,0,1.3,0,1.95h0c-1.42.45-3,1.74-3.93-.66V129c.47-.49,1.4-1.06,1.32-1.45a24,24,0,0,0-1.3-3.74l-.08-5.19,1.36-.64c2.55,1.77,2.34,4.54,2.61,7.14Z"/><path class="cls-54" d="M299.85,132.84l.15,0c0-.22,0-.43-.07-.65l.62-.56q-.35-4.56-.71-9.11L298,119.83c-.34,2.83,2,5.61.18,8.48,0,0,.48.3.62.53.38.63.7,1.31,1,2-3.05-.71-3.57-.22-2.83,2.55.12.44-.19,1-.3,1.5a1.37,1.37,0,0,0-.13.52l1.43-.51,2.52-1.32-.54-.67Zm-2,1.83h0l.16.18Zm.35-1.59c.26-.38.7-.54,1.44-.32C298.87,132.54,298.43,132.7,298.17,133.08Z"/><path class="cls-55" d="M290.18,129.63c.94,2.4,2.51,1.11,3.93.66,0,2.56-.75,3.73-3.28,1.93l-1.29-2.58h.64Z"/><path class="cls-55" d="M294.08,128.33l-1-.79,1-.51Z"/><path class="cls-55" d="M294.1,130.29c0-.65,0-1.3,0-1.95C294.08,129,294.09,129.64,294.1,130.29Z"/><path class="cls-44" d="M294.09,125.1l.13-.27-.15.25Z"/><path class="cls-56" d="M39.29,128.28l-.5-.29c.17-.08.35-.23.52-.23s.33.17.5.27Z"/><path class="cls-57" d="M42.23,118l.27.15-.26-.15Z"/><path class="cls-58" d="M68.83,129c.21-2.62.43-5.24.64-7.86,2.12.72,3.35,2,3.29,4.45,0,.89.83,1.8,1.28,2.7.43.65.87,1.3,1.31,1.94,0,.86,0,1.73,0,2.59H74l-.64,0-.67-.61-3.25-1.95Z"/><path class="cls-40" d="M76,134.17l-.68-.66c0-.21,0-.43,0-.65h1.32v1.27H76Z"/><path class="cls-59" d="M75.32,132.86c0,.22,0,.44,0,.65L74,132.86Z"/><path class="cls-59" d="M72.73,132.23l.67.61Z"/><path class="cls-21" d="M76.63,134.15v-1.27l.64.62Z"/><path class="cls-21" d="M76,134.17h0Z"/><path class="cls-60" d="M289.37,118.66l.75-.06c0,1.73.06,3.46.08,5.19l-.66,5.19v.65h0l-2-2.57,0,0-.06-4.23a.23.23,0,0,1,.07-.36c.09-.06.27-.13.26-.16a2.92,2.92,0,0,0-.19-.49v-.67l.61-1.27h0l1.24-.84A.93.93,0,0,1,289.37,118.66Z"/><path class="cls-61" d="M75.34,120.55l1.7-1,.56,1.25-2.26-.23Z"/><path class="cls-59" d="M76,132.87h-.66c0-.86,0-1.73,0-2.59.42.65.85,1.3,1.28,1.94Z"/><path class="cls-62" d="M77.48,122.19c-.19.09-.37.24-.53.23s-.33-.17-.49-.27c.17-.09.35-.24.51-.24S77.3,122.08,77.48,122.19Z"/><path class="cls-63" d="M74.28,122.28c.07,0,.17,0,.19,0a.65.65,0,0,1,.06.24l-.34,0Z"/><path class="cls-61" d="M75.34,120.54l-.15.28.15-.27Z"/><path class="cls-22" d="M78.58,131.57l-.14.27.15-.26Z"/><path class="cls-21" d="M76,132.87l.64-.66c0,.22,0,.44,0,.66Z"/><path class="cls-64" d="M40.25,120.25l-.31.47c-.08-.17-.23-.34-.23-.5s.18-.32.28-.47Z"/><path class="cls-65" d="M221.4,127c.66-.66,1.31-1.33,2-2,.2,0,.4,0,.6,0l.67-1.27.63,0,1.91.68c0,.21,0,.43,0,.64l-.58.65c0,.22,0,.43-.07.65l-.6.62h0l-2.94.41c.66,1.11,1.16,2,1.67,2.84l-.67,1.31-.61.67c-.43,1.08-.87,2.16-1.31,3.24-.51.52-.94,1.28-1.57,1.52a8.22,8.22,0,0,1-2.5.16,8.07,8.07,0,0,1,.2-2.33c.78-2,1.73-3.9,2.61-5.85l.59-.64,0,0c.08-.06.24-.14.24-.17a3.42,3.42,0,0,0-.23-.47C221.4,127.46,221.4,127.25,221.4,127Z"/><path class="cls-37" d="M224.63,130.27c-.51-.86-1-1.73-1.67-2.84l2.94-.41Z"/><path class="cls-37" d="M227.17,124.45l-1.91-.68c.22-.21.44-.43.65-.65Z"/><path class="cls-37" d="M226.59,125.74l.58-.65Z"/><path class="cls-37" d="M223.35,132.25l.61-.67C223.75,131.8,223.55,132,223.35,132.25Z"/><path class="cls-37" d="M225.92,127l.6-.62Z"/><path class="cls-66" d="M231.11,127c0-.21.07-.42.1-.62a4.26,4.26,0,0,1,.15.47S231.2,127,231.11,127Z"/><path class="cls-38" d="M177.24,136.76l0-5.19C177.91,133.3,179,135,177.24,136.76Z"/><path class="cls-37" d="M221.41,127.68a3.42,3.42,0,0,1,.23.47s-.16.11-.24.17A4.56,4.56,0,0,1,221.41,127.68Z"/><path class="cls-37" d="M221.37,128.35l-.59.64Z"/><path class="cls-67" d="M66.75,125.69l-.09.23-.25-.26.19-.17Z"/><path class="cls-68" d="M66.6,121.6c0,.09.13.18.12.26s-.11.14-.17.22C66.57,121.92,66.58,121.76,66.6,121.6Z"/><path class="cls-24" d="M287.49,122.86l.06,4.23c-.23-1.09-.45-2.19-.68-3.28C287.08,123.49,287.29,123.18,287.49,122.86Z"/><path class="cls-24" d="M288.24,119.91l-.61,1.27c0-.42.05-.84.07-1.25Z"/><path class="cls-24" d="M287.63,121.85a2.92,2.92,0,0,1,.19.49s-.17.1-.26.16C287.59,122.28,287.61,122.07,287.63,121.85Z"/><path class="cls-69" d="M105.83,127.06l-.58.59Z"/><path class="cls-37" d="M224.63,123.8l-.67,1.27Z"/><path class="cls-24" d="M289.49,119.06l-1.24.84Z"/><path class="cls-70" d="M325.38,110.15a12.82,12.82,0,0,1,.44-2.5c.68-1.74,1.66-2.35,3.24-.72.43.44,1.33.43,2,.63l1.47,1.28-.11.67.54,1.83c1.29,5,2.39,10.09-.72,14.93l-2.31.24-2.76.44-.64.14-.05-.23-.69-.4h0q1.34-5.22,2.68-10.45c.22-1.56.5-3.11.66-4.68.22-2.09-1-2.28-2.59-1.8Z"/><path class="cls-71" d="M17.56,91.68l.84-.14a.49.49,0,0,0,.49.24c4.68,2.48,4.5,6.93,4.59,11.28l-.49.71-1.55-.08c-1.3.54-3.43,0-3.18,2.52l-.72.73-.65-2v-.67l0,0c.54-2.38,1.13-4.75,1.57-7.14.09-.49-.36-1.08-.56-1.62a5.68,5.68,0,0,0-1.18.76,13,13,0,0,0-1.13,1.52l-.71-1.39.81-3.17Z"/><path class="cls-72" d="M348.54,116.65l-2-3.74c.69-2.21,1.37-4.43,2.05-6.64.2-.22.4-.45.61-.67h0l3.29,2.65c0,.21,0,.41,0,.62l-.05,1.29L351.17,116Z"/><path class="cls-73" d="M347.26,102.34c0-.64,0-1.28,0-1.92l1.38-3.64,1.72-2.19.24-.6c2.17-1.39,3.06-.45,3.23,1.78l-.06,4.66c-1.44-1.72-2.72-1.64-3.48.52a45.55,45.55,0,0,0-1.1,4.65h0l-.68.05-1.17-.69C347.35,104.08,347.3,103.21,347.26,102.34Z"/><path class="cls-74" d="M29.72,110.76l1.49-1.87,1.92,3.87c0,.21,0,.43,0,.65l-.68,1.87q-.31,0-.63.09l-.16-.85-.35.21c.18.2.35.41.53.62l.6,1.23v.72c-.19.44-.38.87-.58,1.31l1.29,5.14H31.86l-.67.06Z"/><path class="cls-75" d="M351.17,116l1.32-5.82,1.95.61a1.53,1.53,0,0,0,.25-.15,4.09,4.09,0,0,0-.25-.46h0l-.64-.63-.63-.66,2.37-5.71.26-.18c1.24,5.11,0,9.64-3.17,13.75l-.76.61h0l-1.27-.08h0Z"/><path class="cls-76" d="M14.91,96.42c.23.47.47.93.71,1.39q-.66,2.61-1.3,5.21c-1.6,2.93-.89,5.65.73,8.29l-.1.22-1.21-.12-2.05-1.84Q13.3,103,14.91,96.42Z"/><path class="cls-67" d="M21.39,109.53c-2.13,3.61-3.61,4.07-6.44,2l.1-.21,2.52.13C19,111.07,18.54,107,21.39,109.53Z"/><path class="cls-77" d="M21.39,109.53c-2.85-2.49-2.41,1.54-3.82,1.92l0-2.53.63-1.35,1.28-.63h0c.64,0,1.47.29,1.89,0a7.29,7.29,0,0,0,1.39-2C22.31,106.49,21.85,108,21.39,109.53Z"/><path class="cls-78" d="M19.51,106.94l-1.28.63h-.65c0-.2,0-.41,0-.62l.72-.73,3.18-2.52,1.55.08L22.78,105a7.29,7.29,0,0,1-1.39,2c-.42.29-1.25,0-1.89,0l.15-.26Z"/><path class="cls-79" d="M347.39,105l1.17.69a4.36,4.36,0,0,0,.07.62c-.68,2.21-1.36,4.43-2.05,6.64Z"/><path class="cls-80" d="M353.81,100.43l.06-4.66a1,1,0,0,0,.52.08L355.8,103l-.26.18-1.74-2.74Z"/><path class="cls-81" d="M11.69,109.57l2.05,1.84Z"/><path class="cls-82" d="M351.17,116l-.58,1.27-2-.6Z"/><path class="cls-82" d="M350.61,117.26l1.27.08Z"/><path class="cls-82" d="M351.87,117.34l.76-.61Z"/><path class="cls-40" d="M147.37,115.39a4.78,4.78,0,0,1,5,3.88c.51,1.93,1,3.88,1.49,5.82a19.36,19.36,0,0,1-.37,3.43c-.6,2.08,1.15,4.47-.92,6.3h-.65l-.27-.15.27.15h.65c1.89.82,3.1,1.76.38,3.18l2.83,1.35c-.48,5.68-2.92,7.36-7.8,5.34-1.08-.9-2.16-1.8-3.25-2.69h0c.24-.45.48-.9.71-1.35l2,.66H148c1.83.17,1.82-.66,1.39-2.13-1.81-6.2-3.5-12.43-5.23-18.65l-.32-.86-.34.84c-.66,1.33-1.33,2.66-2,4l-1.29-5.3,2-2.56Zm.28,9.23-.69.6,1.28.79c.13-.26.42-.65.35-.75A3.67,3.67,0,0,0,147.65,124.62Zm.65,17.71-.44-.13.07.24Z"/><path class="cls-40" d="M188.83,122.6a1.77,1.77,0,0,1,0,.46c0,.23.09.46.14.69l1.92,9.05c.18.42.37.84.56,1.25l.14,4.25c.17.78.35,1.55.52,2.32-2,3.18-5,3.73-8.37,3.29l-2.62-.55-3.2-2.05L176.59,140l-.64-.61h0l1.27-1.89c1.81.71,4.16,2.8,5.06-.53a30.5,30.5,0,0,0,.54-9.12c-.09-1.93-1-3.78-3.65-3.35q1.6-3.28,3.22-6.57l.75-.52v0l.77,1.09-.39.46.85.3.67.6Zm-1.56,8.64c.07,0,.18-.07.21-.14s0-.18,0-.27l-.32.18Z"/><path class="cls-83" d="M107.78,115.33c3.3-2.28,5.38-1.93,7.75,1.5,1.85,2.68,3.53,5.48,5.29,8.22l-.67,2.64.06,1.3a6,6,0,0,0-.06.61c-.22.44-.44.89-.67,1.33l-.15.26.14-.27c.46.93,1.37,1.9,1.3,2.8a27.61,27.61,0,0,1-1.28,5h0l-1.32-.06-1.29,0-.63.05c-1.57.82-3.16-2.46-4.73,0l-.17,0-.16-.06-3.33-1.26-.07,0c0-1.06,0-2.13,0-3.2l4.87,1c-.25-1.47-.58-2.93-.73-4.4-.3-2.76-1-5.62-.59-8.28.61-3.72.53-4.62-3-5.85Z"/><path class="cls-84" d="M257.7,120c-1.51-4.26-.68-6,2.68-5.41a4.81,4.81,0,0,0,.58,1.47,16.9,16.9,0,0,1,3.09,6.36c.29.94-.48,3.55,2.15,3.27h0c1.35,2.78-.64,4.55-2,6.53.14,1.28-2.09,3,.66,3.82a6.33,6.33,0,0,0-.2.69c-.14,1.15-.26,2.3-.39,3.45l-.73.6a9.09,9.09,0,0,0-1-2.23c-.19-.22-1.05.1-1.6.17v0h-.65l-.63-.68-2.41,1c1.25,1.94-.89,2.11-1.59,3-3-.13-2.95-2.7-3.72-4.62,4.53.88,4.54.85,5.45-4,.22-1.15.82-2.22,1-3.37C259.09,126.63,260.53,123.15,257.7,120Z"/><path class="cls-60" d="M289,114.1c1.34-1.86,3.51-1.52,5.48.92,1.25,1.56,2.38,3.2,3.57,4.81-.34,2.83,2,5.61.18,8.48,0,0,.48.3.62.53.38.64.7,1.31,1,2-3.05-.71-3.57-.22-2.83,2.55.12.44-.19,1-.3,1.5a1.37,1.37,0,0,0-.13.52l.06,0-4.52-.56-1.3-1.29v-1.3c2.53,1.8,3.32.63,3.28-1.93h0l0-1.95h0c0-.43,0-.86,0-1.3v-2l.15-.25-.13.27c-.27-2.6-.06-5.37-2.61-7.14l-.65-.67h-2.58C288.49,116.23,288.72,115.16,289,114.1Z"/><path class="cls-64" d="M46.22,120.49c-.72,1.73-1,4.05-2.27,5-2,1.55-1.68,2.94-1,4.71-1.68,2.86-3.44,1.13-5.18.09l-1.93-1.44c0-.83-.06-1.66-.1-2.49,2-.06,4.88,1.41,4.56-2.64.3-1.77.56-3.54.93-5.28.05-.24.66-.36,1-.53l.26.15-.27-.15.65-2h0l1.47.76c.58,1.25,1.15,2.51,1.73,3.76Zm-6.93,7.79.52-.25c-.17-.1-.33-.26-.5-.27s-.35.15-.52.23Z"/><path class="cls-40" d="M82.49,129l-3.9,2.59-.15.26.14-.27c1.13,1.3,1.13,1.3-1.3,1.93l-.64-.62h0v-.66c-.43-.64-.86-1.29-1.28-1.94S74.47,129,74,128.33a82.15,82.15,0,0,1-.11-9.41c.25-2.73-.58-3.56-3.13-2.93l-1.38-2.07c1.87-1.13,4.23-3.61,5.51-3.14,3.24,1.18,6.95,2.93,6.38,7.68-.45.42-.89.84-1.36,1.24s-.87.72-1.31,1.08c.54.49,1,1.22,1.65,1.4a5.11,5.11,0,0,0,2.13-.3c0,.42,0,.84,0,1.26,0,2,0,3.9,0,5.85Zm-7.15-8.45,2.26.23L77,119.52l-1.7,1-.15.27Zm2.14,1.65c-.18-.11-.34-.27-.51-.28s-.34.15-.51.24c.16.1.32.27.49.27S77.29,122.28,77.48,122.19Zm-3.2.09-.09.23.34,0a.65.65,0,0,0-.06-.24S74.35,122.28,74.28,122.28Z"/><path class="cls-57" d="M44.35,116.76,42.88,116l-.48-.71.48.71-.65,2h0c-.36.17-1,.29-1,.53-.37,1.74-.63,3.51-.93,5.28-3.17-1.36-4.19-4.17-3.29-9.05,0-1.72.13-3.45,0-5.16-.05-.6-.73-1.15-1.12-1.73-.58.41-1.45.69-1.7,1.25a23.67,23.67,0,0,0-1,3.69l-1.92-3.87,1.3-2.59c.66-.87,1.32-1.73,2-2.59,1.29-.09,3-.76,3.78-.17,2.71,2.14,6.57,3.5,6.45,8a10.24,10.24,0,0,0,.9,3.06Zm-4.1,3.49-.26-.5c-.1.15-.27.31-.28.47s.15.33.23.5Z"/><path class="cls-85" d="M69.42,113.92,70.8,116l-.65.67-.85.3.81.34c-.21,1.29-.42,2.58-.64,3.88-.21,2.62-.43,5.24-.64,7.86l-3.25,0-.45-4C65.86,121.06,65.89,116.81,69.42,113.92Zm-2.67,11.77-.15-.2-.19.17.25.26Zm-.15-4.09,0,.48c.06-.08.17-.15.17-.22S66.64,121.69,66.6,121.6Z"/><path class="cls-86" d="M107.78,115.33l.63,1.35-1.89,7.75-.69,2.63-.58.59-1.31-1.24c.13-1.48-.06-3.08.46-4.41A69.54,69.54,0,0,1,107.78,115.33Z"/><path class="cls-87" d="M266.12,123.82c0,.63.05,1.25.08,1.88-2.63.28-1.86-2.33-2.15-3.27a16.9,16.9,0,0,0-3.09-6.36,4.81,4.81,0,0,1-.58-1.47c1.28,1.5,2.6,3,3.83,4.51a14.5,14.5,0,0,1,1.19,2.11c.25.87.49,1.74.74,2.61Z"/><path class="cls-41" d="M183.91,118.49l-.77-1.09a6.54,6.54,0,0,1,1.81-.11,22.91,22.91,0,0,1,3.11.89c2.85,1,1,2.86.77,4.42L185,119.85a2.77,2.77,0,0,1,0-.5Z"/><path class="cls-88" d="M44.35,116.76l1.28-2.12.45,5.88C45.5,119.27,44.93,118,44.35,116.76Z"/><path class="cls-89" d="M147.37,115.39l-5.19,1.26C143.63,115.07,144.88,112.67,147.37,115.39Z"/><path class="cls-90" d="M325.38,110.15l1.15-.62-1.29,5.19h-.64l-.32,0c.18-.46.37-.92.55-1.37a.73.73,0,0,0,.37-.42Z"/><path class="cls-91" d="M34.5,103.71c-.67.86-1.33,1.72-2,2.59Z"/><path class="cls-92" d="M350.4,94.59l-1.72,2.19Z"/><path class="cls-41" d="M183.15,117.38l-.75.52Z"/><path class="cls-93" d="M325.2,112.91a.73.73,0,0,1-.37.42Z"/><path class="cls-92" d="M348.6,93.29l-.15.27.15-.26Z"/><path class="cls-94" d="M18.89,91.78a.49.49,0,0,1-.49-.24A.4.4,0,0,1,18.89,91.78Z"/><path class="cls-43" d="M323.42,116.61a2,2,0,0,0,.42,0c.46-.63.93-1.26,1.4-1.88h0c.57,1.67,1.91,1.45,3.22,1.29q-1.33,5.24-2.68,10.45c-3-1.41-3.83-3.62-2.72-6.73A13.81,13.81,0,0,0,323.42,116.61Z"/><path class="cls-93" d="M328.46,116c-1.31.16-2.65.38-3.22-1.29l1.29-5.19c1.62-.48,2.81-.29,2.59,1.8C329,112.9,328.68,114.45,328.46,116Z"/><path class="cls-95" d="M17.54,106.94c0,.21,0,.42,0,.62,0,.46,0,.91,0,1.36l0,2.53-2.52-.13c-1.62-2.65-2.33-5.37-.73-8.3l2.57,2Z"/><path class="cls-96" d="M16.89,105l-2.57-2q.64-2.59,1.3-5.21a13,13,0,0,1,1.13-1.52,5.68,5.68,0,0,1,1.18-.76c.2.54.65,1.13.56,1.62-.44,2.39-1,4.76-1.57,7.14-.08-.27-.16-.54-.25-.81l-.22.15c.14.23.29.46.44.68Z"/><path class="cls-97" d="M21.44,103.69l-3.18,2.52C18,103.72,20.14,104.23,21.44,103.69Z"/><path class="cls-98" d="M349.23,105.6a45.55,45.55,0,0,1,1.1-4.65c.76-2.16,2-2.24,3.48-.52h0q-.63,3.92-1.28,7.83Z"/><path class="cls-73" d="M352.52,108.25q.64-3.91,1.28-7.83l1.74,2.74-2.37,5.71h-.63C352.53,108.66,352.52,108.46,352.52,108.25Z"/><path class="cls-99" d="M352.54,108.87h.63l.63.66.64.63h0v.61l-1.95-.61C352.51,109.73,352.52,109.3,352.54,108.87Z"/><path class="cls-98" d="M348.63,106.27a4.36,4.36,0,0,1-.07-.62l.68-.05C349,105.82,348.83,106.05,348.63,106.27Z"/><path class="cls-100" d="M37,114.71c-.9,4.88.12,7.69,3.29,9.05.32,4-2.56,2.58-4.56,2.64l-2.56-2.65-1.29-5.14c.19-.44.39-.87.58-1.31v-.72c0-.43,0-.87,0-1.3.23-.62.45-1.25.68-1.87Z"/><path class="cls-101" d="M37,114.71l-3.85-1.3c0-.22,0-.44,0-.65a23.67,23.67,0,0,1,1-3.69c.25-.56,1.12-.84,1.7-1.25.39.58,1.07,1.13,1.12,1.73C37.13,111.26,37,113,37,114.71Z"/><path class="cls-102" d="M32.46,117.3c-.19.44-.39.87-.58,1.31C32.08,118.17,32.27,117.74,32.46,117.3Z"/><path class="cls-82" d="M31.86,115.34l-.53-.61.35-.21c.06.28.11.57.16.85Z"/><path class="cls-82" d="M32.47,115.28c0,.43,0,.87,0,1.3l-.6-1.23,0,0Q32.15,115.31,32.47,115.28Z"/><path class="cls-73" d="M354.44,110.77v-.61a4.09,4.09,0,0,1,.25.46A1.53,1.53,0,0,1,354.44,110.77Z"/><path class="cls-73" d="M354.44,110.16l-.64-.63Z"/><path class="cls-71" d="M17.6,108.92c0-.45,0-.9,0-1.36h.65Z"/><path class="cls-97" d="M19.51,106.94l.14-.27-.15.26Z"/><path class="cls-103" d="M107.85,134.2l-.68-.69-.6-.65c0-.41-.07-.82-.1-1.22q0-3.62,0-7.21l1.89-7.75c3.52,1.23,3.6,2.13,3,5.85-.44,2.66.29,5.52.59,8.28.15,1.47.48,2.93.73,4.4Z"/><path class="cls-24" d="M291.48,118l-1.36.64-.75.06c-.37-.45-.74-.91-1.12-1.36h2.58Z"/><path class="cls-104" d="M290.83,117.29h0Z"/><path class="cls-105" d="M74,128.33c-.45-.9-1.3-1.81-1.28-2.7.06-2.46-1.17-3.73-3.29-4.45.22-1.3.43-2.59.64-3.88a2.76,2.76,0,0,0,0-.64l.65-.67c2.55-.63,3.38.2,3.13,2.93A82.15,82.15,0,0,0,74,128.33Z"/><path class="cls-106" d="M42.88,116l-.48-.71.48.71Z"/><path class="cls-107" d="M70.15,116.66a2.76,2.76,0,0,1,0,.64L69.3,117Z"/><path class="cls-93" d="M325.24,114.72c-.47.62-.94,1.25-1.4,1.88.25-.63.51-1.26.76-1.88Z"/><path class="cls-95" d="M16.89,104.31c-.15-.22-.3-.45-.44-.68l.22-.15c.09.27.17.54.25.81Z"/><path class="cls-108" d="M106.57,132.86l.6.65-1.91,1.22Z"/><path class="cls-55" d="M289.54,129l.66-5.19a24,24,0,0,1,1.3,3.74c.08.39-.85,1-1.32,1.45Z"/><path class="cls-24" d="M289.54,129h.64v.65h-.64Z"/></g></g></svg>