<svg xmlns="http://www.w3.org/2000/svg" viewBox="0 0 418.17 223.93"><defs><style>.cls-1{fill:#fea9a4;}.cls-2{fill:#bf6964;}</style></defs><g id="Layer_2" data-name="Layer 2"><g id="plate"><path class="cls-1" d="M416.2,105.87c-4.06-.85-2.19-3.7-2-6a9.5,9.5,0,0,0-.38-2.54c-2.8-6.33-5.27-12.85-8.65-18.85S397.39,66.79,393.44,61l-2.6-3.27L373.33,41.51l-8.5-5.16L359,30.49h0l-.68-.62h0l-1.9-.72v0c-2.25-1.69-4.46-3.45-6.79-5-.56-.38-1.52-.16-2.3-.21L344,20.8l-2.55-.7L335,16.9l-1.22-.72-15-5.1h0l-.65,0c-2.14-.53-4.25-1.23-6.43-1.57-4.33-.67-8.69-1.14-13.05-1.7a16.66,16.66,0,0,0-3.31-1.2c-12-1.63-24-3.33-36-4.68-4.16-.47-8.43,0-12.64.05V2a11.72,11.72,0,0,0-3-.64c-2.67.07-5.34.59-8,.48-6.51-.26-13-.79-19.5-1.21L209,1.4,207.13,2,209,1.4l7.24-.8L209.7,0l-3.28.08H181.8L171.86,1h0l-4.95.43-6.57,1.17a2.87,2.87,0,0,0-.57.11l.31,2c-.1-.68-.21-1.36-.31-2l-2.58,0L148,4.52l-4.49.72h0L137,6.58a.86.86,0,0,0-.57,0L111,12.33l.65.66-.65-.66-1.23.1-1.37.59h0l-1.25.07c-.65.24-1.3.49-2,.71l-20.81,7-1.27.14-.67.52h0l-11,4.49L59.73,31.75l-.66.56a4.5,4.5,0,0,0-.6.17l-3.92,1.89h0L52,35.73h0L46.14,39.6l-1.31.63-9.11,6.45v0l-2.56,2h0a5.14,5.14,0,0,1,.69,1,5.14,5.14,0,0,0-.69-1l-7,7.19-1.4,1.89c.21,0,.49,0,.73,0-.24,0-.52,0-.73,0l-2,3.17-3.79,4.63h0c-1.22,1.74-2.42,3.5-3.67,5.22C8.55,80,2.46,89.69.65,101.11c-1,6.6-.48,13.45-.64,20.19l.66,14.36a31.91,31.91,0,0,0,.08,3.39c.93,7.39,4.88,13.4,8.93,19.37a7,7,0,0,1,1.34-.17c.31,1.08.51,2.19.73,3.29,6.38,8.62,13.76,16.26,22.79,22.09,7.8,5,15.65,10.05,24.58,13l2.49-.68c0,.66.07,1.32.11,2h0L65,199.19c2.6,1,5.19,1.95,7.79,2.9,8.94,3.22,17.79,6.73,26.85,9.56a211.27,211.27,0,0,0,22.49,5.5c5.82,1.14,11.79,1.54,17.71,2.14,8.34.84,16.69,1.66,25.06,2.3,10,.76,20,1.44,30,1.9,4.71.22,9.44-.13,14.16-.23h0a18.56,18.56,0,0,0,3.09.55c6.28.05,12.58.26,18.85-.06s12.68-1.2,19-1.84l5.15-1.22h0c.06-.53.12-1.06.19-1.62-.07.56-.13,1.09-.19,1.62l10.42-1.38a6.28,6.28,0,0,0-.59-.27,6.28,6.28,0,0,1,.59.27c6.27-1.27,12.58-2.43,18.82-3.86,4.88-1.12,9.68-2.55,14.51-3.88,5.34-1.49,10.68-3,16-4.53h0l3.91-1.3h0l17.56-6.46a1.36,1.36,0,0,0,.57-.08l7.24-3.79-.12-.1h0l.12.1,2-1.35a1,1,0,0,0,.52-.07l8.45-5.16h0c.29-.36.57-.72.84-1.09-.27.37-.55.73-.84,1.09l11.6-5.86a1.11,1.11,0,0,0,.16-.59c7.08-2.24,13.1-6.3,18.79-10.91l.58-.23,5.35-4.41a1.4,1.4,0,0,0,.53-.11l.66-.58h0l9-9.12c2.1-2.63,4.38-5.14,6.27-7.92a86.48,86.48,0,0,0,4.23-7.61h0c.87-1.68,1.87-3.3,2.59-5a49.36,49.36,0,0,0,3.31-19.65C418.12,113.15,416.89,109.51,416.2,105.87ZM235.7,220.45l-.48-.33h0ZM341.5,20.11ZM182.44,2l.65.65v.64L185,2.62l.39.09L185,2.62a15.45,15.45,0,0,0-2,.78h0l.08-.14H183a3.39,3.39,0,0,0,.06-.65L182.44,2l-3.65,1.09Zm-13.62,1.3,1.93.65-1.93-.65c-.56.06-1.12.16-1.68.25C167.7,3.43,168.26,3.33,168.82,3.27ZM148.69,5.2h0l-4,.82ZM234.88,222l3.38-.07a6.84,6.84,0,0,1,.49-1.67,6.84,6.84,0,0,0-.49,1.67Zm3.39-.06h0l1.74-.11Zm79.52-17.52h0l-.11-.1c2.19-.91,4.67-1.27,6.27-3.16C322.3,203.1,319.75,203.41,317.79,204.4Zm18.58-8.74a8,8,0,0,0,1.07-.78A8,8,0,0,1,336.37,195.66Zm5.34-2.58a5.25,5.25,0,0,1,1.19.19A5.25,5.25,0,0,0,341.71,193.08Zm3.66-1.89a1.31,1.31,0,0,1,.21-.92A1.31,1.31,0,0,0,345.37,191.19Zm19.41-9.32a2.09,2.09,0,0,1,.26-1.21A2.09,2.09,0,0,0,364.78,181.87Zm5.66-5.56Zm2.83-1.11-2.59,2-1.89,1.19a8,8,0,0,0,1.66-1.38h0l.23.19a2.64,2.64,0,0,0,0-.29,5.94,5.94,0,0,0,2.44-2.07h0c.06.14.12.27.17.41a5.73,5.73,0,0,0,.46-.54.72.72,0,0,0,.09-.2.31.31,0,0,0,0-.1h0s0,0,0,0v0a5.08,5.08,0,0,0,2.33-.65C375.21,174.22,374.24,174.7,373.27,175.2ZM405.8,146l-.23-.43.23.43c.09-.06.22-.11.32-.17C406,145.87,405.89,145.92,405.8,146Z"/><path class="cls-2" d="M346.9,92.94a54.52,54.52,0,0,0-7.41-16.35l-1.26-2c-10.36-19.46-23.85-29-47.39-30.47-6-.24-12-.65-17.93-.67-9.58,0-19.15,0-28.72.39-7.39.27-14.77,1.06-22.15,1.62l-4.53,0-6.5.58v0l-14.35.58c.34.4.71.79,1.07,1.18-.36-.39-.73-.78-1.07-1.18-5.08.17-10.2,0-15.24.57-10.55,1.15-21.12,2.29-31.56,4.16-8.92,1.59-17.67,4.18-26.49,6.33.81,1.21,1.22,1.82,1.66,2-.44-.14-.85-.75-1.66-2L113.55,61l-1.21.08-3.28,1.25-1.9.11q-3,1.74-5.93,3.46,3-1.73,5.93-3.46l-11,4.46,2.8-.41-2.8.41-30.5,15-7.89,5.73-2.51,2.66a16.38,16.38,0,0,0-2.06,2.91,70.86,70.86,0,0,0-3.33,8.61c-1.52,5.32-3.94,10.54-2.45,16.32a16.4,16.4,0,0,0-1,2.87,17.25,17.25,0,0,0,2.3,11.48c1.62,3.45,3,7,4.91,10.32,4.11,7.27,9.6,13.05,17.54,16.37,6.31,2.63,12.26,6.15,18.64,8.55A176.39,176.39,0,0,0,118,175.86c5.59,1.07,11.26,1.74,16.8,3,6.19,1.44,12.56.58,18.83,2.45,5.39,1.61,11.39,1.19,17.12,1.66,4.48.38,9,.86,13.44,1.09,7.49.36,15,1.1,22.48.7,10.78-.56,21.51-2,32.26-3.05a9.47,9.47,0,0,1,1.85-.37c11.26.13,21.81-3.45,32.48-6.32.79-.21,1.38-1.14,2.06-1.74l3.19-.69c6.19-.63,11.19-4,16.33-7.08a92.8,92.8,0,0,0,27.83-16.89l2.56-2h0l3.91-3.22,10.39-11h0l.63-.65,4.56-8.45q1.62-9.41,3.25-18.8A35.61,35.61,0,0,0,346.9,92.94Zm-3,15.45c0-.09-.09-.17-.14-.26l-.1.11.1-.11C343.81,108.22,343.86,108.3,343.9,108.39ZM289.13,46.56a3.89,3.89,0,0,0,1.06,2.74L293.44,48l-3.25,1.27A3.89,3.89,0,0,1,289.13,46.56ZM261,47.37h0l0,0h0l0,0-.84.26ZM71.24,84.1h0Zm-2.92,1a.36.36,0,0,0,0,.11h0s0,.07,0,.11.15.1.24.15v0a2.38,2.38,0,0,0,1,.84h0l-1.31-.66L66.26,85h0a3.49,3.49,0,0,0,2,.24A.38.38,0,0,1,68.32,85.14ZM321.8,141.26a14.37,14.37,0,0,0-1.13,1.42h0l-8.44,6.51h0l-3.2,2-7.19,4.46h0L294.73,159l-7.77,4-.66,5.13h0l.66-5.13-4,1.84h0l-9.69,4c-.74,1-1.46,2-2.43,2.19,1-.17,1.69-1.24,2.43-2.19l-4.53,1.34h-.66l-1.3.58-7.14,2c-5.8,1.15-11.59,2.44-17.43,3.41-3.68.62-7.43.75-11.16,1.1h0l-5.16.68c-3.59.08-7.24-.24-10.75.32-8.82,1.4-17.63,1.08-26.47.63-5.09-.25-10.21-.05-15.29-.45-4.25-.32-8.44-1.37-12.69-1.81-6.72-.7-13.48-1-20.17-1.79-4.47-.56-8.85-1.81-13.27-2.75a2.53,2.53,0,0,0,.13-.22l-.16.21h0l0,0c-5-.68-10.12-1.23-15.14-2.11a64.06,64.06,0,0,1-7.93-2.32c-1.29-.41-2.51-1.09-3.82-1.39-8.58-1.9-15.89-6.7-23.71-10.34a2.69,2.69,0,0,1-3.53-.25,2.69,2.69,0,0,0,3.53.25l-4.6-1.34c-.88-.76-1.64-1.9-2.66-2.22-5.63-1.76-8.65-6.21-11.57-10.8l-.66-2a1.38,1.38,0,0,0-.13-.6c-1.33.18-1.43-.42-1.34-1.14-.09.72,0,1.32,1.34,1.14-.4-.64-.81-1.28-1.22-1.92l0,0-1.18-1.35a32.72,32.72,0,0,1-1.53-5.1c-.39-2.77-.43-5.58-.65-8.37a19.22,19.22,0,0,0-.4-2.09h0c.41-2.59.81-5.18,1.22-7.76h0c0-.44,0-.88,0-1.32-.76.06-1.86-.48-2.67-.51.81,0,1.91.57,2.67.51h0c2-5.22,3.81-10.49,6-15.63.53-1.27,2-2.14,3.06-3.19l-7.06,4,7.06-4,0,0a13.07,13.07,0,0,1,.42-2.45,13.07,13.07,0,0,0-.42,2.45q3.6-2.88,7.18-5.78h0l4.5-2,16.22-7.91c1.08-3.15,3.48-3.72,6-4,.84-.1,1.7-.18,2.53-.32l8.38-3.9q6.86-2.39,13.71-4.79-6.86,2.42-13.71,4.79c3.88-.88,7.8-1.62,11.64-2.68,4.17-1.15,8.25-2.6,12.38-3.91l-3.91.07,3.91-.08c6.19-1.28,12.36-2.76,18.6-3.81,8.74-1.48,17.53-2.65,26.3-4l7.65-1.12a21.52,21.52,0,0,1,10.17-1.86,21.52,21.52,0,0,0-10.17,1.86c2.2.13,4.41.42,6.61.37,6.07-.14,12.13-.41,18.19-.67a15.17,15.17,0,0,0,2.47-.48h0c8.35-.58,16.69-1.31,25.05-1.7,6.57-.31,13.16-.21,19.74-.3.33-.62.61-1.28,1-1.88-.36.6-.64,1.26-1,1.88l12.33-.61,20.69.07h0c1.77,1,3.53,1.74,5.32.05,1.54.52,3.07,1.1,4.64,1.55,4.27,1.24,8.55,2.42,12.82,3.62-3.67-1.75-7.34-3.51-11.1-5.12l.09-.14h-.09c-.06-2.73-1.68-.44-2.48-.79.82.36,2.48-2,2.57.79l11,5.26a98.08,98.08,0,0,1,9.59,5.46,28.45,28.45,0,0,1,6.32,6.31c3.17,4.37,6,9,8.83,13.61a53.14,53.14,0,0,1,4.94,9.71c.93,2.63.79,5.63,1.14,8.46.11.82.26,1.63.39,2.45,1.08.92,1,1.66.6,2.34a4.16,4.16,0,0,1-.32.45,4.16,4.16,0,0,0,.32-.45c.42-.68.48-1.42-.6-2.34-.22,1.29-.43,2.59-.64,3.88,0,.43,0,.86,0,1.3h0c-.25,2.15-.49,4.31-.74,6.46l0,1.42a2.9,2.9,0,0,0,0,.51h0c-.64,2.17-1.28,4.33-1.93,6.5h0v0l-2,3.84,0,0c-.22.22-.43.44-.64.67h0l-.63.66-2.58,3.91a2.09,2.09,0,0,0,2.12-1,2.09,2.09,0,0,1-2.12,1Q327.74,135.52,321.8,141.26Zm14.36-13.48a11.88,11.88,0,0,0,.13-1.23l1.38-.35-1.38.35A11.88,11.88,0,0,1,336.16,127.78Z"/></g></g></svg>