<svg xmlns="http://www.w3.org/2000/svg" viewBox="0 0 370.09 158.84">
  <defs>
    <style>.cls-1{fill:#9ec1e2;}.cls-2{fill:#f1f6fa;}.cls-3{fill:#fff;}</style>
  </defs>
  <g id="Layer_2" data-name="Layer 2">
    <g id="table_spoon" data-name="table spoon">
      <path class="cls-1" d="M51.42,155.84h.33c2.25,3.2,3.33,3.24,8.18,1.52a8.89,8.89,0,0,0,6.44,1.31,38.29,38.29,0,0,1,7.51-.43c7.34-.05,14.73.56,22-.21,4.91-.52,9.82,0,14.79-.87,4.68-.79,9.42-1,13.82-3a52.91,52.91,0,0,0,6.93-3.5c4.39-2.8,9.22-5,12.38-9.5,1.35-1.92,3.46-3.31,4.88-5.2s1.43-4.18,3.81-5.61c1.5-.91,1.63-3.88,3.05-5.23a9.84,9.84,0,0,0,2.64-4.82c.5-3,3.33-4.09,4-6.59a43.18,43.18,0,0,1,6.25-13c.83-1.88,1.66-3.75,2.48-5.63h0l.78-1.63h0L175.76,83l2.44-4.87,6.4-11.39c.55-1.07,1.09-2.15,1.63-3.23,1.73-2.35,3.17-5,5.27-7,2.59-2.41,5.31-4.86,8.86-6,1-.3,2.52-.34,2.82-1,1.43-3,6-.62,6.89-4.28.34.18.68.5,1,.51.89,0,1.78-.09,2.67-.14l8.89-.85,2.44-.76h0a57.64,57.64,0,0,0,7.91-.45c3.62-.68,7.15-1.82,10.72-2.77l4.86-.79L251,38.48c.69.37,2,1.1,2,1.07,1.92-3.18,5-1.09,7.48-1.7,4.1-1,8.24-1.8,12.37-2.69l0,0,0,0c3.15-1.9,6.77-1.25,10.16-1.84,5.22-.91,10.38-2.23,15.62-2.9,6.52-.84,13.2-.42,19.55-2.58,2.13-.36,4.28-.63,6.38-1.12,2.49-.58,4.93-1.36,7.39-2.06h.81c1.4,2,1.6-1.05,2.76-.67,4.66,1.55,9-1.26,13.63-1.08.46,0,1-.93,1.45-1.44,2,1.76,3.14-1.05,4.83-.89a29.1,29.1,0,0,0,13.77-7.26c1.71-2.87.91-5-2.4-6.52-1.62-1.34-3.18-2.76-4.9-4a9.09,9.09,0,0,0-3.46-1.56,27.45,27.45,0,0,0-4.63-.08h0L339.26,2l-.82,0-4.06.75h0l-5.65.06a23.41,23.41,0,0,0-4.15-.35c-3.95.36-7.54,2.67-11.83,1.73-1.45-.32-3.38,1.06-4.93,1.94-.37.2-.16,1.42-.2,2.21-1.12-1.7-2.23-3.38-4.7-1.92-.4.23-1.06,0-1.53.11-2.2.71-4.83,0-6.68,1.91h0c-1.63-.89-3.28-1.34-4.71.3-1.17,1.34-2.51,1.17-3.92.64a6.7,6.7,0,0,0-5.92.7c-4,.83-8,1.68-12.08,2.46-1.95.37-4,.46-5.91.9-3.86.88-7.65,2.06-11.52,2.84a37.83,37.83,0,0,1-6.13.25c-3.14,1.11-6.22,2.48-9.7,1.72-.22-.05-.56.46-.84.7h0l-4.05.93a31.14,31.14,0,0,1-5,1.75c-5.11.89-10.27,1.57-15.41,2.36-.65.1-1.3.58-1.9.5-5.66-.81-10.9.9-16.26,2.35-4.58,1.23-9.33,1.81-14,2.68-.83-.53-1.67-1.05-2.51-1.57l-3.12-1.7c-1.9-1.73-3.53-4.09-5.76-5.08A93.11,93.11,0,0,0,152.85,17c-1.15-.31-2.52.2-3.79.33-4.3-.66-8.58-1.49-12.9-1.88-1.61-.15-3.32.71-5,1.11l-1.63,0-7.28-.74-4,0c-.58-.25-1.16-.75-1.72-.72-3,.17-6,.37-9,.8a10.35,10.35,0,0,0-3,1.51c-1.63-1.28-3.26-1.83-4.91,0a11,11,0,0,0-2.23-.38c-1.5.07-3,.37-4.5.43-2.18.09-4.38,0-6.57.11-2.58.16-5.15.5-7.73.75a5,5,0,0,0-6.52.74c-3.47-.61-6.89-2-10.49-.74a19.28,19.28,0,0,0-3.7-.18c-3.65.52-7.26,1.21-10.89,1.83-4.41.31-8.9.18-13.2,1C28,22.06,22.14,23.07,17,26.31c-3.17.39-6.18,1.09-8.12,4-1.47,1.07-3.28,1.89-4.34,3.28A26.94,26.94,0,0,0,.91,40.32c-.51,1.34-.09,3-.09,4.57a20.23,20.23,0,0,0-.71,3.87c0,2.66.74,5.38.36,8C-.54,63.55.26,70.3,1.16,77S3.67,90.16,5,96.74a40,40,0,0,0,1,5.06c1.45,4.26,3.07,8.46,4.63,12.69h0q2.83,6,5.68,12.08l0,0,3.14,5.75,4.07,7.23c.39,1.07.46,2.55,1.22,3.14,3,2.35,6.2,4.41,9.32,6.58l7.24,4.07v0c.11.37.18,1.06.35,1.08,2.53.39,4.87,1.47,7.33,2,.63.15,1.43-.43,2.15-.67,0-.43-.08-.8-.12-1.13M116.47,16.5h0Zm-7.62.69a1,1,0,0,1-.25.11l.32-.33C108.9,17.05,108.9,17.15,108.85,17.19ZM27.16,52.57c.07,0,.18,0,.22.07a.9.9,0,0,1,.11.27Zm31.23,5.21a47.46,47.46,0,0,0-13.85-2.31,41.48,41.48,0,0,1-14.81-3,29.28,29.28,0,0,0-5.42-1.12h0l-2.4-1.66-.81-2.37c1.7-2.82,4.36-4.41,7.3-5.64l.74-.07,1.67-.71c2.81-.58,5.63-1.12,8.43-1.74,3.4-.75,6.79-1.55,10.18-2.33l2.38-.12,15.43-.8c6.35-2,12.92-1.48,19.42-1.63l2.44,0,2.4,0h.82l1.63.1a3.21,3.21,0,0,1,4,0c2.92-.35,6-1.48,8.7-.85a21.63,21.63,0,0,0,8.48.07,4.29,4.29,0,0,1,.8,0l14.44.68,4,0h.83a21.88,21.88,0,0,1,11,4.2c1.33,1,2.74,2.56,1.65,4.07-1.34,1.87-3.2,3.88-5.26,4.59-3.85,1.34-8,1.72-12,2.64a11.22,11.22,0,0,0-2.73,1.52c-4.87.7-9.74,1.42-14.61,2.07-1.17.16-2.37.08-3.55.15-1.53.08-3.06.14-4.57.33-.91.11-1.88.81-2.68.62a18,18,0,0,0-10.47,1c-5.15,1.93-10.61,1.83-15.89,2.5C70.32,58.72,64.31,57.91,58.39,57.78ZM158,40.11l-1.73,1.49-1.57.86c-1.84.51-3.61,1.26-3.43-2.06.05-1-1.25-2.36-2.28-3.06-3.34-2.3-6.7-4.66-11.06-4.64a9.77,9.77,0,0,1-2.66-.76h-.84a4.33,4.33,0,0,0-.8.07l-1.6-.06c-1.7-.22-3.39-.57-5.09-.62s-3.65.26-5.47.23c-4.84-.08-9.68-.42-14.52-.34-5.68.09-11.35.51-17,.79h-4l-1.64,0-1.58,0L67.23,33.6,51,34.44l-1.61.69c-1.14.28-2.28.61-3.43.85L30,39.25,28.34,40l-.79,0a14.22,14.22,0,0,0-8.11,4.86c-.46,1.27-.93,2.55-1.42,3.88L12.2,47.29,9,44.87c-2.37-3.81-.26-6.43,2.41-8.88l4-2.43c1.34-.74,2.41-2.22,4.34-1.19.51.27,1.48-.27,2.21-.51,5.15-1.76,10.21-3.75,15.82-3.62A8.44,8.44,0,0,0,42.32,27c2-1.32,4.48.15,6.28-1.48.76,2.24,2.45.84,3.59.72a23.35,23.35,0,0,0,4.59-1.48l.69,0c.27.37.68,1.1.78,1.06,1.39-.57,2.73-1.25,4.08-1.9-.07,1.43.7,1.25,1.59.8a12.28,12.28,0,0,0,2.81.56c1.78-.05,3.55-.35,5.32-.54a97.76,97.76,0,0,0,17.85-.84,20.17,20.17,0,0,0,4.18.6c3-.15,6.07-1.37,9.13.07.24.11.81-.46,1.23-.72l4.91-.05a6.26,6.26,0,0,1,0-.75,6.26,6.26,0,0,0,0,.75L111,23h0l33.18-.83c1.33.79,2.42,2,4.35,1,.93-.47,2.4,0,3.6.25,4,.79,8,1.19,11.75,3.26,4.19,2.32,4.64,3,2.39,7.26a3.69,3.69,0,0,0-.2,1.18Zm12.92,55h0ZM350.69,7.88a2.79,2.79,0,0,1,1.4,1.65c.1.3-.62.94-1.06,1.34a8.69,8.69,0,0,1-1.28.81h0c-2.49.45-5,1-7.47,1.33-3,.44-6.07.84-9.12,1.11-1.84.17-3.36-.79-3.33-2.66,0-1.71,1.47-2.32,3.21-2.19s3.61.06,5.41.07l.79-.08c2.79-1.18,5.95.13,8.74-1.35A3.77,3.77,0,0,1,350.69,7.88ZM333.11,24.51a.86.86,0,0,1-.28.11l.35-.36C333.16,24.34,333.17,24.47,333.11,24.51Z"/>
      <path class="cls-2" d="M53.51,128.23l-1.6-1.68L51,125.8h0l1.6-2.39.86-.76c1.22,0,2.43,0,3.64,0a16.47,16.47,0,0,1,1.7.22c-.15-.72-.06-1.62-.47-2.12-1.78-2.2-4.85-2.06-7.36.19l-.79.06-.81.77h0c-2.29,3.23-2.29,3.26,0,5.65.51.55,1,1.1,1.54,1.66,1,.51,2.11,1,3.14,1.53,2.27,1.2,3.9,2.81,3.39,5.68h0l-.86.79c-2.39,1.9-4.84,2.47-7.46-.22-.58,1.83-1.35,3.43.43,4.13,3.18,1.26,6.53,2.23,9.57-.54,2.14-1.74,3.2-4.72,2.23-6.31C59.55,131.14,57.48,128.43,53.51,128.23Z"/>
      <path class="cls-2" d="M147,123.36c-1.25.75-2.43,1.59-3.65,2.39l-.82-4.8-.09-1.6a8.35,8.35,0,0,0-3.2-6.42c-4.7-1.8-7.7.27-8.09,5.58-.25.29-.51.58-.76.88l-1.07,1.27a3.77,3.77,0,0,0-.25-1.38c-.22-.35-.73-.51-1.11-.75l-.15-3.45-.53,0c-.07.6-.14,1.19-.22,1.79-.24,3.12-.52,6.25-.7,9.37,0,.43.43.88.67,1.32a29.59,29.59,0,0,0,.76,5.1,3.13,3.13,0,0,0,2.17,1.89c.65,0,1.73-1.17,2-2a47.57,47.57,0,0,0,.85-5.88,7,7,0,0,0,0-.8l1.59-6.48c.45-.66.89-1.33,1.36-2s.82-1,1.23-1.53c.49.55,1.21,1,1.41,1.67a40.2,40.2,0,0,1,.88,4.26c-.25,1.23-1.12,2.9-.62,3.61a20.91,20.91,0,0,0,5,4.84c.35.25,2-1.25,3-1.94,2.13-.32,2.75-1.69,2.66-3.67S148.76,122.31,147,123.36Zm-14.88-.45a1,1,0,0,1-.15-.33l.17.07c.19.16.21.24.23.33S132.18,123,132.14,122.91Z"/>
      <path class="cls-2" d="M120.66,118.53h0l-.79-.83h0L119,117l-5.66,0-1.64,0a6.77,6.77,0,0,0-.78,0l-3.25,3.22c-1.17,1.1-2.81,1.85-2.61,3.93,0,.24-.92.57-1.42.86l-.83-2.34-1.63-.82-.76-.89c-.08-1.75-1.34-1.54-2.5-1.51H96.4a17.31,17.31,0,0,0-2.79,0c-4.86.79-6.58,3.41-5.35,8h0l-1.63,2.44c-1.39-3.31-2.35-7-6.46-8.08,0-.26,0-.52,0-.78l-.84-.84c-.91-.19-1.82-.36-2.72-.57a6.38,6.38,0,0,0-6.18,1.94c-1,1-1,2.88-3.26,2.92-1,0-.56,3.27.8,4.61l-1.49,3.23a2.22,2.22,0,0,1,.67-.74,2.22,2.22,0,0,0-.67.74,3.57,3.57,0,0,0,0,.8l.07,1.63,0,3.21.84,9.77a3.59,3.59,0,0,0,0,.73,6.54,6.54,0,0,0,0,1.6c.48,1.67,1.82,1.9,3.21,1.55s1-1.55.78-2.59c-.31-1.25-.53-2.51-.79-3.77-.57-1.87-2-3.73,0-5.62h2.38c1.82.83,3.38,0,4.92-.82l4.82-1.64a4.38,4.38,0,0,0,3.23-4.05h0l.81-2.43c1.34,1.6,2.74,3.14,4,4.79,2,2.66,4.4,3.46,6.68,2,1.63-1.07,3.13-2.33,4.7-3.51.82-1.2,1.59-2.44,2.51-3.56.26-.31,1-.26,1.47-.37a4.64,4.64,0,0,0,.19,1.3c.48,1.14,1,2.24,1.57,3.36a3.29,3.29,0,0,0,.7.11c1.25.87,2.36,2.5,4.12.82h0c1.37.08,3.15.74,4,.12,3.81-2.62,7.55-5.48,8-10.69l-2.35-4.84Zm-52,8.74s-.14-.17-.21-.26a3.39,3.39,0,0,1,.61-.21s.14.17.21.26A4.39,4.39,0,0,1,68.64,127.27Zm.14-1.47V125l1.68.79h0Zm4.08,13.8-1.2-2,1.2,2Zm8.93-7.34-5.66,3.28c-.64.18-1.27.38-1.91.54-1.54.4-2.87.68-2.76-1.78,0-.64-1.15-1.34-1.77-2a7.12,7.12,0,0,1,0-.8c.49-.54,1-1.07,1.49-1.61l.84-3.26h0a5.09,5.09,0,0,0,.06-.77c0-.29,0-.57,0-.86l0,.86c.19-.18.46-.31.55-.52,1.72-3.83,2-4,5.74-2.71a18.88,18.88,0,0,1,1.78.79l1.54.84c0,1.87.08,3.74.11,5.62a3.4,3.4,0,0,0,0,.78C81.82,131.19,81.81,131.73,81.79,132.26Zm17.78-1.63c-1.2,1.36-2.34,2.78-3.62,4.07s-2.77.82-3.69-.54a6.7,6.7,0,0,1-1.46-3.6A17.74,17.74,0,0,1,92,124c.46-1.07,2.3-1.53,3.52-2.27l2.38.84,3.27,2.41C100.66,126.89,100.12,128.76,99.57,130.63Zm2.75-3,1.33-1,.8,1.62ZM116,131.36a17.61,17.61,0,0,1-2.61,1.68l-4-.75c-.3-1.63-.59-3.25-.88-4.87.56-1.61,1.11-3.23,1.67-4.85l1.63-2.46.83-.74.8,0H115l3.17.87.89.75c.26,0,.53,0,.8.06,0,.79,0,1.59,0,2.38a3.66,3.66,0,0,0,0,.81C121,127.89,118.08,129.44,116,131.36Z"/>
      <path class="cls-2" d="M125.44,96a29.34,29.34,0,0,0-4,2.29,7.1,7.1,0,0,1-6.42-3.2l-.75-2.34,4.82-.86.76-.07.85-.75h0l1.61,0a11.48,11.48,0,0,0,1.54-.36c2-.79,3.83-2.23,3.48-4.37-.21-1.34-2-2.44-3.17-3.61a4.07,4.07,0,0,0-1-.59c-1,.08-2.57-.15-2.79.3-.8,1.61.8,1.7,1.79,2.31.57.35.65,1.49,1,2.28l-1.57.83h0l-5.65,2.44h0c0,.25,0,.51,0,.77h0L115,90.2l-.06-2.43c1.33-1.93,2.66-3.86,4-5.82l-2.39-1.42a6.7,6.7,0,0,0-4.8,5.63c-1.18,3.1-1.18,3.1-5.25,5.81-.16.11-.14.47-.25.9,1.13.2,2.26.44,3.39.59,2,.24,4,.24,3.86,3.17,0,.56.94,1.17,1.46,1.76,2.38,1.9,4.94,3.19,8.12,2.29l.83-.75h0a20.43,20.43,0,0,0,2.66-1.53c.45-.35.62-1.05.92-1.59C126.79,96.5,125.93,95.77,125.44,96Z"/>
      <path class="cls-2" d="M78.6,86.93c-1.38-1.47-2.74-.57-4.11,0l-2.42,1.62-.81.81h0l-.83.78c-.25,0-.49,0-.73,0l-.05-4.81c-.25-1.09-.51-2.17-.76-3.26-.28-1.63-.55-3.26-.83-4.88q0-.41,0-.81v-.77c.1-.09.24-.15.29-.26s0-.24,0-.36l-2.62.7a3.21,3.21,0,0,0,0,.62c.23,2.2.47,4.39.71,6.59v0c0,.79,0,1.58,0,2.37h0L65.62,87l1.56,4.81h0a4.89,4.89,0,0,0,0,5.73c0,.23,0,.47,0,.71,0,.56,0,1.12,0,1.68h0l-.75,3.27c.51,2.42,2.45,4.25,4.52,3.67a62.53,62.53,0,0,0,9.27-3.44,7.59,7.59,0,0,0,4.52-7.79C84.46,91.71,82.66,88.41,78.6,86.93ZM68.17,92.15a1.28,1.28,0,0,1-.13-.29l.38.36C68.34,92.2,68.22,92.21,68.17,92.15Zm5.53,9.41-1.78,1.33a9.67,9.67,0,0,1-.3-2c.08-1.66.29-3.31.45-5,0-.53,0-1.07,0-1.61.41-.32,1-.55,1.2-1,2.47-4.5,3.43-4.72,6.9-1.49C80.19,98.89,79.75,99.56,73.7,101.56Z"/>
      <path class="cls-2" d="M108.26,95.21a7.77,7.77,0,0,0-3.91,1.9c-1.18,1.14-2.18,2.21-3.95,2l-2.42,0-3.25-4-.81-2.43h0L93.14,87l1.58-2.44A22.13,22.13,0,0,0,98,82.37c1.48-1.41,3.6-2.5,3.21-5.1,2.83-.38,2.6-2.78,3.4-4.7.91-2.16-.31-3.44-1.57-3.8-2.35-.67-4.94-1.13-7.28.54-3.3,2.36-4,6-5.11,9.55-.53,2.44-1.06,4.87-1.58,7.31-.41.76-1.35,1.81-1.13,2.22,1.86,3.38,3.94,6.64,6,9.94.32,2.37,1.81,3.28,4,3.24l1.63.81c2.9.86,6-.71,8.1-4.08l.84-1.59C109.38,96,109.26,95,108.26,95.21Zm-9.2-24.27c.46-.19.94-.54,1.38-.5a9.88,9.88,0,0,1,2.07.64l-.81,1.56c-.77,1.48-2.74,2.83-.5,4.62-1.2.17-2.59-.53-3.36,1.31-.33.8-1.72,1.16-2.87,1.46C95.66,76.58,94.93,72.66,99.06,70.94Zm6.63,26.15c.08,0,.19,0,.23.06a.86.86,0,0,1,.11.28Z"/>
      <path class="cls-2" d="M59.91,95.89c-2-1.66-.68-3.76-.76-5.68,2.47-.92.79-2.64.78-4,0-.25,0-.51,0-.76a3.28,3.28,0,0,0-.7-.1l-.89-.74h0l-1.61-.82c-2.55-2.86-5.9-1.25-8.9-1.61-4.17.18-6.22,2.78-7.32,6.45l-1.59,3.25c-1.23,1.08-1.18,2.16,0,3.25l0,1.6L34,101.54l-2.41-1.62c0-2.08-.1-4.16,0-6.23s.46-4,.71-5.93h0a8.59,8.59,0,0,1,1.43-.7c1.66-.43,2.77-3.41,5.06-1.11.08.08.87-.26.93-.51a1.52,1.52,0,0,0-.25-1.28c-2-1.77-4.16-1.15-6.33-.41l-.81,0,0-1.63c0-2,.15-3.93.08-5.9a7.32,7.32,0,0,0-.79-2.12C34,73.73,33,71.87,33.18,70.6c.13-1,0-2.47-1.48-2.13a3.82,3.82,0,0,0-2.4,2c-.42,1-.1,2.36-.11,3.55l-.06,3.29.42-.42c0,.09,0,.21-.08.26a1.33,1.33,0,0,1-.34.16c-.27,1.33-.53,2.66-.8,4s-.53,2.71-.8,4.06l-4.62,2.44a5.45,5.45,0,0,0,3.23.94c.69,0,1.39-.07,2.09-.11l.88,4,.84.92c-2,.72-2.39,2.34-2.4,4.17,0,1.27,0,2.54,0,3.82.66,1.93,1.87,3.17,4,3.22l.78.05.85,0H34c1.71,1.36,2.8-.13,4-.88l.09-.77c.67-.33,1.83-.56,1.92-1,.75-3.55,2.33-1.31,3.69-.62.46.47,1,1.36,1.37,1.33,2.28-.2,4.76.44,6.73-1.32l2.44-2.42h0l.83-.78.77,0,.41,0,.4,0,0,0a12.09,12.09,0,0,0-.29,2.37c.12,1.36-.28,3.12,1.93,3.28,4-.11,4.07-.2,3.22-3.22ZM31.22,100.3c0-.08,0-.19.08-.23a.82.82,0,0,1,.23-.11ZM53,94.9l-1.16,1.79a5.3,5.3,0,0,0,0,.8l-3.29,2.36-2.34,0c-3.77-2.14-2.76-5.62-2.49-8.9l.9-2.33L46.12,87l.86-.79.87-.75c6.37-1.9,7.12-1.31,6.89,5.46a2.84,2.84,0,0,0,.3,1Z"/>
    </g>
    <g id="tablespoon_fill" data-name="tablespoon fill">
      <path class="cls-3" d="M17.72,27.05,39.87,6.25a25.62,25.62,0,0,1,4.21-3.44C47.78.57,52.32.31,56.64.15a110.08,110.08,0,0,1,13.1.09C76.89.82,83.88,2.67,90.81,4.5L162.3,23.41c2.86.75,6.25,2.08,6.66,5,.34,2.42-1.65,6.52-3.56,8.06C155.76,44.23,144,46.92,131.9,49.7s-24.44,3.74-36.78,4.7c-6.33.48-12.67,3-19,3.48-6.52.5-13.06-1-19.6-1.23-12.83-.41-25.4-3.55-37.82-6.78-4.44-1.16-10.8-3-10.7-8.37C8.1,35.88,14,30.55,17.72,27.05Z"/>
    </g>
  </g>
</svg>