<svg xmlns="http://www.w3.org/2000/svg" viewBox="0 0 184.83 79.18">
  <defs>
    <style>.cls-1{fill:#9ec1e2;}.cls-2{fill:#d5e4f2;}.cls-3{fill:#fff;}</style>
  </defs>
  <g id="Layer_2" data-name="Layer 2">
    <g id="tea_spoon" data-name="tea spoon">
      <path class="cls-1" d="M28.23,79.15l3.29,0H33.1l9,0c3.39-.24,6.77-.72,10.15-.68,9.94.13,17.54-4.13,22.88-12.26a160.8,160.8,0,0,0,9.24-16.13c2.2-4.4,3.75-9.13,5.59-13.72a16.35,16.35,0,0,0,2.38-3.14A17.46,17.46,0,0,1,100,25c5.23-3.11,11.23-2.84,16.83-4.29s11.16-2,16.75-3c4.72-.83,9.44-1.74,14.16-2.58s9.17-1.59,13.77-2.33c3.1-.5,6.23-.9,9.34-1.37,4.22-.64,8.32-1.47,12.09-3.77,2.38-1.46,2.43-2.74.79-4.6l-2.35-1.67h0c-.65-.91-1.15-2.25-2.55-.82a2.56,2.56,0,0,0-.62,0,12.2,12.2,0,0,0-3-.62c-2.52.12-5,.41-7.55.7-4.08.47-8.16,1-12.23,1.51-4.53.62-9.07,1.24-13.57,2-3.1.54-6.14,1.37-9.21,2.07-.93.09-1.88.12-2.8.29q-13.53,2.47-27,5a84.07,84.07,0,0,0-10.16,2.15,7.07,7.07,0,0,1-6.79-1C84.56,11.63,83.46,9.89,82,9.45c-5.34-1.58-10.78-3-16.43-1.5a2.07,2.07,0,0,0-3.34,0,3.32,3.32,0,0,0-.63,0l-1.71-.67-.83,0L50.13,8l-1.63.08-5.72.68c-6.46.15-13-.79-19.36.91-5,.23-10.17.07-14.61,3.12a12,12,0,0,0-8,5.74,3.94,3.94,0,0,0-.05.76l0,.83h0c0,.28,0,.56,0,.83a6.36,6.36,0,0,0-.08.75C.47,22.77.23,23.87,0,25c.24,4.38.33,8.77.74,13.13a67.6,67.6,0,0,0,10,29.62,60.07,60.07,0,0,0,3.82,5l7.23,4.08M80.1,19.33l-2.45,1.52a5.32,5.32,0,0,0-.79.18c-2-3-4.41-5.15-8.36-5.17-4.5,0-9-.38-13.49-.59-9.81-.44-19.54.48-29.25,1.65-3.94.48-7.81,1.54-11.71,2.39-.8.17-2,.25-1.16,1.65C18,19.86,23,18.31,28.14,17.78c6.93-.72,13.94-.61,20.91-.94,2.82-.13,5.62-.48,8.43-.73a37.48,37.48,0,0,0,4.28.72c2.41.13,4.85-.19,7.22.12,5.07.66,5.93,2.65,3,6.4h0l-2.49.75c-3.94.66-7.87,1.36-11.82,1.95-1.52.23-3.09.11-4.62.31-6,.8-12.07,1.78-18.12,2.44a20.88,20.88,0,0,1-6-.61c-5.49-1-11.33-.18-16.49-3a15.43,15.43,0,0,1-1.27-.9,8.18,8.18,0,0,1-7.16-2.6c-.48-1.93.81-3,2-4.07.88-.79,1.84-1.49,2.76-2.24.23,0,.46,0,.7,0l1,0L21.79,12.8c2.36-.25,4.72-.53,7.08-.71C30.28,12,31.7,12,33.12,12l6.57-.72a3.42,3.42,0,0,0,.64,0,7.93,7.93,0,0,0,7.41,0h1.6L55,11.17l10.54-.75a5.9,5.9,0,0,0,.73,0H68c3.33.5,6.69.9,10,1.55a61,61,0,0,1,6,1.79C84.43,16.83,82.09,18,80.1,19.33Zm100-15.06a3.87,3.87,0,0,0-.28-.5,3.87,3.87,0,0,1,.28.5Z"/>
      <path class="cls-2" d="M43.65,50v0c-.09-.37-.17-1-.26-1-2.72,0-3.9-2.13-5.38-3.83l0-4.83c1.24-1.53,2.66-2.69,4.8-2.49l1.7-1.62c-1.07-.13-2.14-.31-3.22-.37a10.33,10.33,0,0,0-2.42.09,3.48,3.48,0,0,0-1.62.74,4.34,4.34,0,0,0-1.1,1.58c-.14.31-.26.62-.37.94s-.12.36-.17.53a3.12,3.12,0,0,0-.14.5s0,.06,0,.09v-.09h0l-.72,4.93-4.93,1.55-1.54,0L25,45.21h0c-.24-.3-.47-.6-.71-.89,0-.23,0-.46,0-.69l7.26-3.28c2.17-3.48,1.68-4.76-2.44-6.48l-1.65,0h0c-1.9.25-4,.07-4.89,2.42h0l-.75.84L21,38.71h0l-.79,0,.06,2.46a3,3,0,0,0,0,.73c0,2.89-2.68,3.82-4.13,5.65h-.35l-.35,0-.09-2.38c0-.53,0-1.07,0-1.6l.83-4h0l1.63-.79a6.81,6.81,0,0,1,.78,0h1.6l-1.64-1.57c-.24,0-.49,0-.74,0h-.85c-2.86-.17-1.1-3-2.39-4.1-2-1.8-2.57-1.8-3.17.15a9.37,9.37,0,0,0-.08,2.32c.51,2.63-1.45,2.85-3.2,3.27-1.37,1.33-1.13,2.12.8,2.34h.75c1,.13,1.75.33,1.26,1.74-.22.66.24,1.55.39,2.34l2.42,4.87.8.76h.82c1.58,1,3.05,1.34,4.07-.74l.78-.84c0-.25,0-.5.08-.75.77-.82,1.55-1.63,2.33-2.45h0L25,48.44c2.38.73,4.61,2.81,7.29.8l3.22-2.41L38.83,50l4,.85,0,0,0,0c.42.2.92.65,1.24.55,2.67-.85,3.91-3.15,5.25-5.34l-2.43-.86Q45.29,47.62,43.65,50ZM28.27,36.26l.88.81-3.31,3.26c-.26-.54-.53-1.07-.8-1.6C26.12,37.91,27.2,37.09,28.27,36.26Z"/>
      <path class="cls-2" d="M52.57,44.37h0l-.78-.87c0-1.55-.14-3.09-.14-4.64,0-1.8-.47-2.68-2.59-2.19-1.18.27-2.53-.2-3.8-.33a3.38,3.38,0,0,0-.71-.1l-1.7,1.62h1.61c2.12.66,4.4,1.11,2.67,4.29-.44.8-.17,2-.22,3l2.43.86c.26,0,.53,0,.79,0,4.25,1.39,4.25,1.39,5.81-1.46Z"/>
      <path class="cls-2" d="M26.65,63.8a12.68,12.68,0,0,1-1.44-.69c-.59-.39-1.13-.86-1.69-1.29a11,11,0,0,0,1.65-1.27,13.67,13.67,0,0,0,1.27-1.9c-.75-.39-1.51-1.12-2.27-1.11-1.52,0-3.44,2.36-3,4,.3,1.14,1.6,2.19,2.7,2.9.67.44,1.81.17,2.75.21h0c.38,1.34.56,2.63-1.26,3-.91.17-1.89,0-2.79.22-.54.12-1.35.63-1.38,1a2.17,2.17,0,0,0,1,1.49c1.63,1.1,7.2.1,8.2-1.46a1.73,1.73,0,0,0,.09-1.5C29.6,65.82,29.08,63.78,26.65,63.8Z"/>
      <path class="cls-2" d="M78.46,53.27c-1.79,2.39-1.79,2.39-3.23,0l0,0-.8-.79,0-.05c-2.55-3-2.61-3-6.49-1.62L66.3,52.46l-1.61,1.61a19.29,19.29,0,0,1-3.14-.1c-3.61-.64-4.54-.1-5.76,3.63-.25.76-.25.76-1.58-.3L52.6,55.7h0c-1.56-1.7-2.87.49-4.2.3-3.39-.49-3.22,1.59-3.12,3.78l-2.47,0L42.05,59,41.22,59a16.74,16.74,0,0,0-1.66-1.13c-2.44-1.32-4.85-.42-6.86.76-.86.5-1.05,2.55-1.11,3.91-.14,3.63-.05,7.28,0,10.92.24,0,.49.07.75.09l0,2.42c0,1.9,1.39,1.93,2.44,1.45A2.87,2.87,0,0,0,36.16,75c-.29-1.74-.11-2.86,1.82-3.19l.83,0h.76c3.47-.29,4.77-2.74,5.66-5.62.48.14,1.27.15,1.4.45.77,1.81,2.28,1.82,3.92,2.06,3.09.46,4.33-1.77,6-3.51.38-.39,1.1-.45,1.66-.66l2.44.89a1.43,1.43,0,0,0,.43-.83,1.43,1.43,0,0,1-.43.83c1.61-.67,3.22-1.88,4.83-1.88,2.5,0,2.43-1.35,2.43-3,0-.79,0-1.58.07-2.37.25-.56.5-1.11.74-1.66l1.63-4.06L72,57.33h0c-1.94,2.32.54,2.41,1.62,3.2s2,.56,2.43-.76A39.77,39.77,0,0,0,80.2,55.3C81.63,53.2,79.79,53.33,78.46,53.27ZM41.18,64.57l-4,4.85v0c-.09-1.78.28-3.85-2.43-4.07a22.42,22.42,0,0,1,.85-2.55c1.44-3.08,1.46-3.07,4.77-1.43l0,0c.28.8.56,1.61.83,2.41A4.71,4.71,0,0,1,41.18,64.57Zm11.31,0-2.84,1.61a7,7,0,0,1-2.75-4.79c1.41-1,1.36-3.83,4-3.32a4,4,0,0,0,.77.11C54.17,60,52.28,62.43,52.49,64.56Zm7.32-1.51L59,61.41l-.74-.84h0A7,7,0,0,0,59,58.76c.15-1.36.18-3,1.92-2.85.77.06,1.43,1.48,2.14,2.28,0,.26,0,.51.06.77Zm5-8.86a4.53,4.53,0,0,1,.74-.09h0A4.53,4.53,0,0,0,64.78,54.19Zm9.64,1.53-.67-.8.44-.28.24,1.07Z"/></g><g id="teaspoon_fill" data-name="teaspoon fill">
      <path class="cls-3" d="M9.08,13.79l11-10.3a13.12,13.12,0,0,1,2.09-1.71C24,.67,26.22.54,28.37.47a54.05,54.05,0,0,1,6.49,0A60.08,60.08,0,0,1,45.29,2.62L80.72,12c1.41.37,3.09,1,3.3,2.48a5.53,5.53,0,0,1-1.77,4c-4.78,3.84-10.62,5.17-16.6,6.55a122.35,122.35,0,0,1-18.22,2.32c-3.14.24-6.28,1.49-9.42,1.73s-6.47-.5-9.71-.61C22,28.26,15.72,26.7,9.56,25.1c-2.19-.57-5.35-1.48-5.3-4.15S7.23,15.53,9.08,13.79Z"/>
    </g>
  </g>
</svg>